<?xml version="1.0" encoding="UTF-8" standalone="no"?>
<!-- Created with Inkscape (http://www.inkscape.org/) -->

<svg
   width="158.68431mm"
   height="53.285995mm"
   viewBox="0 0 158.68432 53.285995"
   version="1.1"
   id="svg5"
   xml:space="preserve"
   inkscape:export-filename="bitmapa.svg"
   inkscape:export-xdpi="96"
   inkscape:export-ydpi="96"
   xmlns:inkscape="http://www.inkscape.org/namespaces/inkscape"
   xmlns:sodipodi="http://sodipodi.sourceforge.net/DTD/sodipodi-0.dtd"
   xmlns="http://www.w3.org/2000/svg"
   xmlns:svg="http://www.w3.org/2000/svg"><sodipodi:namedview
     id="namedview7"
     pagecolor="#ffffff"
     bordercolor="#000000"
     borderopacity="0.25"
     inkscape:showpageshadow="2"
     inkscape:pageopacity="0.0"
     inkscape:pagecheckerboard="0"
     inkscape:deskcolor="#d1d1d1"
     inkscape:document-units="mm"
     showgrid="false"
     inkscape:zoom="4.7537427"
     inkscape:cx="301.13115"
     inkscape:cy="195.95087"
     inkscape:window-width="2516"
     inkscape:window-height="1416"
     inkscape:window-x="0"
     inkscape:window-y="0"
     inkscape:window-maximized="1"
     inkscape:current-layer="layer1" /><defs
     id="defs2" /><g
     inkscape:label="Vrstva 1"
     inkscape:groupmode="layer"
     id="layer1"
     transform="translate(-32.830086,-96.071575)"><path
       style="fill:#0055d4;stroke-width:0.264583"
       d="m 177.50156,149.23088 c -0.198,-0.13787 -0.56351,-0.19746 -0.81223,-0.13242 -0.68629,0.17947 -1.07813,-0.49494 -1.39357,-2.39857 -0.26582,-1.60421 -0.34153,-1.73963 -1.06091,-1.89763 -0.42605,-0.0936 -0.81637,-0.30774 -0.86738,-0.47592 -0.051,-0.16818 -0.16393,-2.20494 -0.25096,-4.52613 -0.15723,-4.19382 -0.30202,-4.7712 -1.11791,-4.45812 -0.23449,0.09 -0.35472,0.60879 -0.35472,1.53063 0,0.87672 -0.13842,1.50938 -0.37279,1.70388 -0.21927,0.18198 -0.36581,0.77017 -0.35586,1.42837 0.0188,1.24568 -0.46304,2.38284 -0.94291,2.22516 -0.17205,-0.0565 -0.3501,-0.62931 -0.39567,-1.27285 -0.0769,-1.08604 -0.57253,-2.1816 -0.58319,-1.28912 -0.01,0.83918 -0.54154,5.43939 -0.67866,5.87375 -0.0865,0.27402 -0.40889,0.46302 -0.7898,0.46302 -0.42082,0 -0.65795,-0.16028 -0.68502,-0.46302 -0.0228,-0.25466 -0.0525,-3.75623 -0.0661,-7.78126 -0.0136,-4.02503 -0.10933,-7.40367 -0.21271,-7.50809 -0.10337,-0.10441 -0.65764,-0.27573 -1.23172,-0.38071 -1.00301,-0.18342 -1.04991,-0.16015 -1.20111,0.59585 -0.0865,0.43269 -0.15734,1.78386 -0.15734,3.0026 0,2.59492 -0.039,2.61837 -2.25686,1.35599 l -1.51071,-0.8599 0.17986,-3.76908 c 0.15215,-3.18848 0.11627,-3.85986 -0.23289,-4.35835 -0.28911,-0.41278 -0.41273,-1.21344 -0.41273,-2.67323 0,-1.30162 -0.14857,-2.39702 -0.39573,-2.91789 -0.48791,-1.02818 -0.9295,-6.6886 -1.05925,-13.57769 -0.0525,-2.78918 -0.22223,-5.52762 -0.37712,-6.08541 -0.15489,-0.5578 -0.29545,-1.371374 -0.31235,-1.807934 -0.0242,-0.62421 -0.11165,-0.48293 -0.40956,0.66146 -0.30547,1.173464 -0.39441,4.784894 -0.45936,18.653124 -0.0443,9.45885 -0.0988,17.28721 -0.12109,17.39635 -0.075,0.36701 -0.7761,0.20256 -0.93828,-0.22007 -0.0883,-0.23019 -0.1606,-0.83378 -0.1606,-1.34132 0,-0.80564 -0.0756,-0.91207 -0.59531,-0.83826 -0.40169,0.0571 -0.62538,0.29775 -0.68775,0.74003 -0.0508,0.36051 -0.37825,0.92038 -0.7276,1.24414 -0.6212,0.57571 -0.63517,0.68495 -0.63517,4.96691 0,3.97803 -0.0423,4.38194 -0.46302,4.41856 -0.25466,0.0222 -0.58209,0.068 -0.72761,0.10177 -0.14552,0.0338 -0.40719,0.0752 -0.58148,0.092 -0.19059,0.0184 -0.34878,0.58418 -0.39688,1.41958 -0.0777,1.34924 -0.10272,1.38906 -0.87372,1.38906 h -0.79375 l -0.1948,-2.38125 c -0.10715,-1.30969 -0.24679,-4.0744 -0.31032,-6.1438 -0.11996,-3.907 -0.1974,-4.30724 -0.83341,-4.30724 -0.32184,0 -0.38126,1.03545 -0.38126,6.64327 v 6.64326 l -0.69233,-0.17376 c -1.70187,-0.42714 -2.21809,-0.46933 -2.21809,-0.18126 0,0.45118 -1.24386,0.35613 -1.42222,-0.10867 -0.25315,-0.65969 -0.47229,-4.9375 -0.51876,-10.12665 l -0.0434,-4.84443 -1.78594,-0.0644 -1.78594,-0.0644 -0.008,0.94004 c -0.005,0.51701 -0.001,4.00589 0.008,7.75305 l 0.0163,6.81302 h -2.40666 c -3.54145,0 -3.44025,0.11894 -3.29966,-3.87801 0.0646,-1.8355 0.1627,-3.38259 0.21809,-3.43797 0.0554,-0.0554 0.17698,0.97396 0.27022,2.28744 0.0932,1.31348 0.24639,2.86893 0.34036,3.45657 l 0.17085,1.06842 2.14695,-0.0473 2.14695,-0.0473 -0.008,-7.70455 c -0.005,-4.99765 0.0876,-7.77284 0.26458,-7.89893 0.47457,-0.3382 2.41896,-0.21843 3.45038,0.21252 l 0.99327,0.41502 -0.17975,2.44871 c -0.1034,1.40874 -0.0608,3.1935 0.10041,4.2024 0.15409,0.96453 0.30246,3.25533 0.32972,5.09067 0.0489,3.29339 0.20434,4.00181 0.68825,3.13712 0.1922,-0.34345 0.49028,-0.40919 1.33917,-0.29533 l 1.09195,0.14646 0.0468,-4.00972 c 0.0257,-2.20534 0.0555,-5.14081 0.0661,-6.52326 l 0.0193,-2.51354 1.04135,0.0639 c 0.57274,0.0352 1.14203,0.21375 1.26508,0.39687 0.12306,0.18312 0.21242,1.58311 0.19859,3.11108 -0.0543,6.00182 0.60996,12.12032 0.85459,7.87135 l 0.08,-1.38906 0.99219,-0.0821 0.99219,-0.0821 0.0623,-1.76997 c 0.0343,-0.97347 0.028,-2.54387 -0.014,-3.48975 -0.10215,-2.30185 0.11245,-3.3003 0.88955,-4.13881 0.3573,-0.38553 0.64963,-0.91467 0.64963,-1.17588 0,-0.60408 0.2478,-0.75032 1.41447,-0.83478 l 0.94261,-0.0682 0.0129,-15.45553 c 0.0103,-12.44378 0.0884,-15.84661 0.40049,-17.462504 0.21319,-1.10383 0.42121,-2.2953 0.46225,-2.6477 0.0909,-0.78067 0.60507,-1.00834 0.84792,-0.37548 0.0974,0.25376 0.40934,1.65777 0.69325,3.12004 0.39564,2.037674 0.51641,3.786524 0.51702,7.487324 5.3e-4,3.04217 0.0987,4.82864 0.26538,4.82864 0.16336,0 0.26459,1.37012 0.26459,3.58119 0,2.592 0.10118,3.74305 0.36633,4.16718 0.20148,0.3223 0.44583,1.7171 0.54301,3.09955 0.0972,1.38245 0.32307,2.75167 0.502,3.04271 0.23534,0.3828 0.2864,1.53955 0.18459,4.18219 l -0.14072,3.65302 1.1578,0.64646 c 0.63679,0.35555 1.20234,0.64645 1.25677,0.64645 0.0544,0 0.099,-1.30266 0.099,-2.8948 0,-1.59214 0.0894,-2.95008 0.19877,-3.01765 0.34765,-0.21486 3.09249,0.41095 3.50539,0.7992 0.3376,0.31744 0.38913,1.52745 0.34497,8.10103 -0.0523,7.79253 0.23756,9.69065 0.60154,3.93854 0.10348,-1.63543 0.29111,-3.03714 0.41694,-3.11491 0.41085,-0.25392 1.31095,0.19099 1.56976,0.77592 0.22724,0.51359 0.24257,0.49673 0.15005,-0.16499 -0.0725,-0.51824 0.055,-0.84774 0.42935,-1.10996 0.4635,-0.32464 0.51053,-0.55911 0.36335,-1.81138 -0.20455,-1.74039 0.0581,-2.04587 1.548,-1.80021 l 1.05834,0.17451 0.1626,4.22953 c 0.0894,2.32625 0.17873,4.43791 0.19844,4.69257 0.0236,0.30473 0.25662,0.46302 0.68167,0.46302 0.8047,0 0.82187,0.0296 1.23039,2.11965 0.18455,0.94425 0.48711,1.84488 0.67235,2.0014 0.22447,0.18968 2.23812,0.25693 6.03786,0.20163 5.27197,-0.0767 7.11658,0.13353 4.70887,0.53674 -1.83754,0.30773 -9.44754,0.47717 -9.81887,0.21861 z M 54.962627,147.38952 c 0,-0.27646 -0.0806,-0.58324 -0.17911,-0.68175 -0.320517,-0.32052 -0.418405,-3.61326 -0.107416,-3.61326 0.168763,0 0.286526,0.56319 0.286526,1.37028 0,1.40115 0.467498,3.12764 0.846902,3.12764 0.116287,0 0.211431,-0.5209 0.211431,-1.15755 0,-0.63665 0.07441,-1.52962 0.165365,-1.98438 0.160597,-0.80297 0.206375,-0.82682 1.5875,-0.82682 h 1.422135 v 1.85208 1.85209 h 1.684314 1.684311 l 0.233918,-7.73906 c 0.244549,-8.09084 0.268663,-10.65291 0.125143,-13.29532 -0.04742,-0.87312 0.0037,-3.79854 0.113636,-6.50093 l 0.199861,-4.91344 -0.962258,-0.56774 c -0.590693,-0.34852 -0.962258,-0.76973 -0.962258,-1.09083 0,-0.56291 0.920372,-1.34685 1.581245,-1.34685 0.355336,0 0.377685,-0.46372 0.181703,-3.77031 -0.22642,-3.82014 -0.01701,-10.252604 0.333777,-10.252604 0.105249,0 0.179634,3.236924 0.165298,7.193164 l -0.02606,7.19316 -0.871249,0.35551 c -1.160986,0.47373 -1.025874,1.18414 0.287075,1.50942 l 0.984711,0.24396 -0.141843,2.13729 c -0.07801,1.17551 -0.1972,7.67369 -0.264856,14.44041 -0.06766,6.76672 -0.21009,13.31516 -0.316513,14.55208 l -0.193495,2.24896 -1.993456,0.0762 c -2.249831,0.0861 -2.160828,0.18219 -2.213941,-2.39135 l -0.02594,-1.25677 h -1.11239 -1.11239 l -0.07824,1.78594 c -0.07576,1.72935 -0.101285,1.78858 -0.805839,1.86965 -0.567796,0.0653 -0.727604,-0.0267 -0.727604,-0.41892 z m 11.1125,-0.31522 v -0.81597 l 5.225521,0.0717 c 5.060169,0.0695 5.222631,0.0885 5.134221,0.6009 -0.05021,0.29104 -0.131773,0.57104 -0.181242,0.62222 -0.04947,0.0512 -2.359867,0.14795 -5.134221,0.21506 l -5.044279,0.12202 z m 10.054167,-0.15399 c 0,-0.32661 -0.700363,-0.36209 -4.689547,-0.23755 -2.579251,0.0805 -4.734298,0.19116 -4.788995,0.24585 -0.409551,0.40955 0.778441,0.52129 4.822618,0.45359 3.856734,-0.0646 4.655924,-0.14385 4.655924,-0.46189 z m -43.282395,-0.53896 c -0.207013,-0.49717 1.459401,-0.35779 7.128089,-0.19351 l 5.782152,0.16757 -0.09361,-1.29972 c -0.0928,-1.28854 -0.08679,-1.29972 0.70014,-1.29972 0.753997,0 0.797677,0.0602 0.872171,1.20239 l 0.07842,1.20238 1.773661,-0.11082 c 0.975514,-0.061 1.861136,-0.24483 1.968048,-0.40863 0.106913,-0.1638 0.196209,-0.82368 0.198438,-1.46639 0.0022,-0.64272 0.07209,-1.10054 0.155242,-1.01739 0.31731,0.31731 0.150188,3.19034 -0.198438,3.41139 -0.192295,0.12192 -1.272362,0.2235 -2.400148,0.22573 l -2.050521,0.004 v -1.32292 c 0,-0.7276 -0.119063,-1.32291 -0.264584,-1.32291 -0.145521,0 -0.264583,0.36501 -0.264583,0.81114 0,0.44613 -0.120232,1.0358 -0.267183,1.31038 -0.253535,0.47374 -2.189514,0.46648 -7.375852,0.16826 -5.186339,-0.29821 -5.534429,0.43595 -5.741442,-0.0612 z m 33.27761,-1.23631 0.08291,-0.8599 1.852083,0.0197 c 9.096883,0.0967 8.598958,0.054 8.598958,0.7381 0,0.54355 -0.160821,0.64754 -1.227553,0.79375 -0.675155,0.0926 -3.063949,0.16826 -5.30843,0.16826 h -4.080878 z m 10.004785,0.103 c 0,-0.34279 -2.382875,-0.56116 -6.151563,-0.56373 -2.823244,-0.002 -3.373437,0.0624 -3.373437,0.39458 0,0.33808 0.705556,0.39687 4.7625,0.39687 2.619375,0 4.7625,-0.10247 4.7625,-0.22772 z m 25.317316,0.58602 c -0.10005,-0.10005 -0.1819,-0.92306 -0.1819,-1.82892 0,-1.53615 -0.0445,-1.65818 -0.66146,-1.81302 -0.3638,-0.0913 -0.938181,-0.0966 -1.276401,-0.0117 -1.094531,0.27471 -1.241988,-0.27412 -0.966986,-3.59905 0.372248,-4.50068 0.373862,-4.48272 -0.402444,-4.48272 -0.363802,0 -0.661459,-0.12133 -0.661459,-0.26962 0,-0.23205 1.242219,-0.10108 1.554838,0.16394 0.05479,0.0465 0.08045,1.74023 0.05702,3.76396 l -0.04261,3.6795 1.053031,0.16839 c 0.653111,0.10444 1.209241,0.3914 1.464331,0.7556 0.38947,0.55604 0.41131,0.49277 0.41131,-1.19144 0,-1.36746 0.0876,-1.77866 0.37904,-1.77866 0.20848,0 0.45463,-0.23813 0.547,-0.52917 0.12498,-0.39378 0.40032,-0.52917 1.07616,-0.52917 h 0.90821 v -3.53494 c 0,-1.94422 0.0757,-4.08735 0.16826,-4.7625 0.1459,-1.06449 0.25087,-1.22755 0.79019,-1.22755 0.73713,0 1.15496,0.85499 1.68091,3.43958 0.19249,0.94588 0.40545,1.81988 0.47324,1.94221 0.0678,0.12232 0.58582,-0.22926 1.15117,-0.7813 0.92504,-0.90328 1.02806,-1.13735 1.02953,-2.33909 0.002,-1.22462 0.10602,-1.44865 1.2605,-2.70142 1.14974,-1.24761 1.2521,-1.46554 1.18069,-2.51354 -0.0941,-1.38135 0.26764,-2.11449 0.78731,-1.59553 0.38892,0.38839 0.42479,3.01989 0.10289,7.54872 -0.26127,3.67577 -0.18002,3.99837 1.02236,4.05916 0.79362,0.0401 0.93629,-0.0385 0.93629,-0.51594 0,-0.42664 0.0743,-0.48898 0.30628,-0.25698 0.55108,0.55108 -0.24377,1.12246 -1.56148,1.12246 h -1.1904 l 0.15402,-4.0349 c 0.0847,-2.21919 0.22804,-4.45161 0.31852,-4.96093 l 0.1645,-0.92605 -0.51855,0.79375 c -0.28521,0.43657 -0.94984,1.20406 -1.47697,1.70555 -0.81314,0.77359 -0.95843,1.08521 -0.95843,2.05578 0,1.21258 -0.90897,2.99498 -1.78207,3.49448 -1.2112,0.69292 -1.21092,0.69228 -0.74102,1.68251 0.53031,1.11756 0.45832,2.70335 -0.12274,2.70335 -0.31235,0 -0.4092,-0.42259 -0.45474,-1.98437 -0.0876,-3.00438 -1.13832,-7.36609 -1.82998,-7.59665 -0.12585,-0.042 -0.23571,0.66787 -0.24414,1.57737 -0.0347,3.74867 -0.16539,7.23848 -0.28729,7.67292 -0.0914,0.32581 -0.39905,0.46302 -1.03813,0.46302 -0.61505,0 -0.90822,0.12327 -0.90822,0.38187 0,0.21003 -0.23914,0.54938 -0.53142,0.7541 -0.48209,0.33767 -0.52508,0.62518 -0.46302,3.09693 0.064,2.54867 -0.1202,3.29551 -0.67574,2.73998 z m -6.08178,-0.26096 c -0.102044,-0.10204 -0.185536,-0.50997 -0.185536,-0.9065 0,-0.5655 -0.156586,-0.76027 -0.726125,-0.90322 -1.376535,-0.34548 -1.393521,-0.41112 -1.362597,-5.26571 0.01588,-2.4922 -0.05969,-4.74878 -0.167936,-5.01462 -0.108241,-0.26584 -0.120192,-1.30764 -0.02656,-2.3151 0.167272,-1.7998 0.159271,-1.83177 -0.458443,-1.83177 -0.513803,0 -0.65622,0.16967 -0.77936,0.9285 -0.09799,0.60381 -0.493122,1.25146 -1.129961,1.85208 -1.118428,1.05481 -1.169853,1.07682 -1.169853,0.50058 0,-0.23266 0.348835,-0.74888 0.775187,-1.14715 0.548947,-0.51279 0.79991,-1.02499 0.859896,-1.75498 0.07006,-0.85252 0.211296,-1.0751 0.816472,-1.28664 1.209146,-0.42267 1.475661,0.11933 1.617197,3.28886 0.06823,1.52797 0.133178,4.71289 0.14432,7.07761 l 0.02026,4.29947 h 0.740833 c 0.977876,0 1.375833,0.44075 1.375833,1.52375 0,0.4888 0.107731,0.82215 0.239401,0.74078 0.13167,-0.0814 0.173093,-0.64231 0.09205,-1.24651 -0.109771,-0.81841 -0.04153,-1.17593 0.267586,-1.40197 0.327493,-0.23946 0.461283,-1.16492 0.634865,-4.39149 l 0.219932,-4.0881 0.152086,3.57188 c 0.125473,2.94694 0.0793,3.71075 -0.263898,4.36562 -0.228791,0.43657 -0.475512,1.38803 -0.548273,2.11438 -0.09111,0.90949 -0.259863,1.34477 -0.542067,1.3982 -0.225378,0.0427 -0.493268,-0.006 -0.595313,-0.10795 z m 26.92508,-1.43509 c -0.32379,-0.52391 -0.45654,-11.36224 -0.13916,-11.36224 0.2333,0 0.41408,5.67651 0.33704,10.58333 -0.01,0.61404 0.0822,0.66283 1.28052,0.68059 l 1.2909,0.0191 0.26384,-1.34205 c 0.14511,-0.73813 0.34268,-1.79743 0.43903,-2.354 0.0964,-0.55658 0.26848,-0.91376 0.38251,-0.79375 0.25576,0.26918 -0.1819,3.12873 -0.61905,4.04466 -0.27266,0.57132 -0.52376,0.68326 -1.68366,0.75061 -0.82623,0.048 -1.43755,-0.0412 -1.55197,-0.22628 z m -56.214783,-1.0435 v -0.79375 h 5.291667 5.291666 v 0.79375 0.79375 h -5.291666 -5.291667 z m 10.054167,0 c 0,-0.16658 -1.76389,-0.26458 -4.7625,-0.26458 -2.998611,0 -4.7625,0.098 -4.7625,0.26458 0,0.16659 1.763889,0.26459 4.7625,0.26459 2.99861,0 4.7625,-0.098 4.7625,-0.26459 z m -24.659167,-0.58208 c 0.218341,-0.21834 0.3175,-1.54046 0.3175,-4.23333 0,-2.1652 0.107237,-3.91583 0.23987,-3.91583 0.131928,0 0.250128,1.16085 0.262667,2.57968 0.01254,1.41883 0.09467,3.07209 0.182509,3.67391 0.180017,1.23333 -0.20937,2.21307 -0.879563,2.21307 -0.342598,0 -0.369927,-0.0706 -0.122983,-0.3175 z m 2.594766,-0.10101 c -0.08833,-0.23019 -0.160599,-2.41896 -0.160599,-4.86394 0,-4.3864 -0.0079,-4.44753 -0.595313,-4.60495 -0.875514,-0.23463 -0.992187,-0.20757 -0.992187,0.23011 0,0.21828 -0.127344,0.39688 -0.282986,0.39688 -0.155642,0 -0.244939,-0.2679 -0.198437,-0.59532 0.06558,-0.46178 0.284968,-0.61447 0.978087,-0.68073 0.491447,-0.047 1.018746,0.0398 1.171776,0.19282 0.23502,0.23502 0.396836,3.01448 0.51747,8.88843 0.01195,0.58209 0.150093,1.14581 0.306975,1.25272 0.175966,0.11992 0.118703,0.19594 -0.149474,0.19844 -0.239092,0.002 -0.506983,-0.18428 -0.595312,-0.41446 z m 29.913707,-0.0225 c -0.09701,-0.097 -0.17639,-1.39867 -0.17639,-2.89258 0,-3.18451 0.07592,-3.11047 -3.055408,-2.97979 -2.625304,0.10957 -2.767539,-0.0474 -3.06932,-3.3878 -0.55775,-6.17363 -2.297216,-14.58008 -3.819186,-18.45726 -0.373246,-0.95082 -0.370708,-1.05932 0.03002,-1.28358 0.332764,-0.18622 0.397275,-0.46059 0.269031,-1.14419 -0.126124,-0.67229 -0.07586,-0.89923 0.19916,-0.89923 0.202322,0 0.574781,-0.22865 0.827691,-0.50811 0.439338,-0.48547 0.433157,-0.52239 -0.138676,-0.82843 -0.329179,-0.17617 -1.184016,-0.394 -1.899637,-0.48407 l -1.301131,-0.16377 -0.869913,-2.15822 c -1.57616,-3.9104 -4.105074,-8.613394 -5.104958,-9.493634 -0.787509,-0.69328 -1.629228,-0.82763 -2.118678,-0.33818 -0.172201,0.1722 -0.384937,0.24124 -0.472749,0.15343 -0.08781,-0.0878 0.13226,-0.35093 0.489045,-0.5847 0.795586,-0.52129 1.601314,-0.26849 2.610763,0.81915 0.749996,0.80809 4.12206,7.309544 5.092578,9.818664 l 0.58751,1.51891 1.627947,0.1572 c 0.895368,0.0865 1.811332,0.3094 2.035471,0.49542 0.609349,0.50571 0.497057,1.31081 -0.220895,1.58378 -0.488828,0.18585 -0.600393,0.38555 -0.502238,0.89902 0.08506,0.44498 -0.04531,0.80694 -0.400055,1.11068 -0.523827,0.44851 -0.523322,0.45697 0.110112,1.84057 1.049366,2.29212 2.764544,11.13759 3.360166,17.32895 l 0.318167,3.30729 2.112279,-0.071 c 1.161754,-0.0391 2.469468,0.0302 2.90603,0.15379 0.872427,0.24709 0.825693,0.0431 0.8904,3.88596 l 0.03564,2.11667 h 0.79375 0.79375 v -4.68437 -4.68436 l 0.908873,-0.17051 c 1.260152,-0.2364 1.472377,-0.0192 1.472377,1.50711 0,1.48167 0.533778,1.69901 0.828593,0.33739 l 0.167132,-0.77193 0.03131,0.81743 c 0.02418,0.63151 -0.119139,0.88597 -0.630155,1.11881 -0.655717,0.29876 -0.661458,0.29031 -0.661458,-0.973 0,-1.25478 -0.01323,-1.27487 -0.859896,-1.30648 l -0.859896,-0.0321 -0.05674,4.2491 c -0.0312,2.337 -0.128524,4.47528 -0.216268,4.75173 -0.113824,0.35863 -0.407106,0.50264 -1.023644,0.50264 -0.475263,0 -0.943491,-0.0794 -1.040503,-0.17639 z m -17.854901,-1.34496 c 0.08223,-0.7147 0.116554,-0.72788 1.935803,-0.74359 1.018646,-0.009 3.37013,0.0388 5.225521,0.10572 3.330189,0.12014 3.373437,0.12967 3.373437,0.74359 v 0.62189 h -5.30924 -5.30924 z m 7.330543,0.16375 c 2.645397,-0.0327 2.715766,-0.0472 1.219843,-0.2515 -1.885952,-0.25756 -8.069791,-0.20953 -8.069791,0.0627 0,0.27331 1.527497,0.44637 2.881198,0.32642 0.638776,-0.0566 2.424714,-0.11853 3.96875,-0.13761 z m -7.116717,-1.55416 c -0.169783,-0.10493 -0.268513,-0.47498 -0.219401,-0.82232 l 0.08929,-0.63154 4.7625,-0.0753 c 5.563232,-0.0879 5.953125,-0.0307 5.953125,0.87407 0,0.60995 -0.09834,0.65951 -1.389063,0.69999 -4.512098,0.14153 -8.929685,0.11995 -9.196456,-0.0449 z m 9.946777,-0.59396 c 0.108773,-0.10914 0.148159,-0.24252 0.08753,-0.29639 -0.2243,-0.19929 -8.07793,-0.44041 -8.90764,-0.27349 -0.491323,0.0988 -0.859895,0.3361 -0.859895,0.55351 0,0.31987 0.755438,0.3673 4.741121,0.29765 2.607615,-0.0456 4.830115,-0.17214 4.938887,-0.28128 z m 56.961878,0.52917 c -0.0182,-0.0364 -0.0623,-2.42205 -0.098,-5.30148 -0.0357,-2.87944 -0.11009,-5.27984 -0.16533,-5.33422 -0.0552,-0.0544 -0.51714,-0.1767 -1.02647,-0.27181 l -0.92604,-0.17292 -0.019,1.67068 c -0.0105,0.91888 -0.0766,3.2185 -0.14703,5.11027 l -0.12806,3.43958 -0.68705,0.0812 c -0.6159,0.0728 -0.70576,-0.0295 -0.86763,-0.98758 -0.12492,-0.73936 -0.43844,-1.28579 -1.01713,-1.77273 l -0.83656,-0.70391 -0.30713,1.16233 c -0.16892,0.63928 -0.38347,1.5038 -0.47676,1.92115 -0.0933,0.41736 -0.23098,0.69748 -0.30597,0.62249 -0.075,-0.075 -0.002,-0.77365 0.16115,-1.55258 0.16362,-0.77893 0.32006,-1.71227 0.34765,-2.0741 0.0763,-0.99977 0.86027,-0.9662 1.90817,0.0817 0.75718,0.75718 0.92013,1.11614 0.92013,2.02696 0,0.76776 0.10132,1.07314 0.33072,0.99683 0.24497,-0.0815 0.34948,-1.36854 0.40303,-4.96328 0.0452,-3.03306 0.18137,-4.9847 0.36312,-5.2037 0.36777,-0.44313 1.83581,-0.45507 2.42324,-0.0197 0.38673,0.28661 0.44715,0.91313 0.4529,4.69636 0.009,5.84887 -0.008,6.61458 -0.14888,6.61458 -0.066,0 -0.13487,-0.0298 -0.15308,-0.0661 z m -66.994663,-1.96233 c -0.09701,-0.097 -0.17639,-0.52069 -0.17639,-0.94149 v -0.76511 l 4.614698,0.0492 c 5.595009,0.0596 5.968635,0.11586 5.968635,0.8984 0,0.56309 -0.130447,0.59839 -2.819283,0.76291 -3.640678,0.22276 -7.362923,0.22085 -7.58766,-0.004 z m 9.944386,-0.74965 c -0.03991,-0.16077 -1.934584,-0.29288 -4.828646,-0.3367 -4.150284,-0.0628 -4.762963,-0.0195 -4.762963,0.3367 0,0.35639 0.619125,0.39956 4.828645,0.33669 3.05098,-0.0456 4.804466,-0.16952 4.762964,-0.33669 z M 66.075127,134.851 v -0.83515 l 5.068107,0.1618 c 2.787459,0.089 5.184518,0.27821 5.326801,0.42049 0.142279,0.14228 0.187087,0.44529 0.09957,0.67335 -0.136959,0.35691 -0.878877,0.41466 -5.3268,0.41466 h -5.167678 z m 10.054167,0.3406 c 0,-0.38629 -1.800413,-0.55782 -5.886979,-0.56087 -4.957678,-0.004 -5.280412,0.47859 -0.396876,0.59309 1.928152,0.0452 4.130808,0.10819 4.894792,0.13997 0.763985,0.0318 1.389063,-0.0457 1.389063,-0.17219 z m 40.216666,-0.0285 c -0.28288,-0.18718 0.1161,-0.26378 1.38906,-0.26667 l 1.78594,-0.004 v -1.05833 c 0,-0.76737 0.10981,-1.05833 0.39944,-1.05833 0.30977,0 0.38401,0.2821 0.33073,1.25677 l -0.0687,1.25677 -1.71979,0.0682 c -0.94589,0.0375 -1.89839,-0.0499 -2.11667,-0.19439 z m -45.70677,-1.52706 c -4.746864,-0.0822 -4.836671,-0.10664 -4.417026,-1.20022 0.121137,-0.31568 0.785246,-0.36543 3.770312,-0.28247 1.992802,0.0554 4.248354,0.16711 5.012338,0.24828 1.253779,0.13321 1.389063,0.21014 1.389063,0.79 0,0.50744 -0.125076,0.62992 -0.595313,0.58295 -0.327421,-0.0327 -2.64914,-0.0951 -5.159374,-0.13854 z m 5.292238,-0.61438 c -0.109456,-0.0982 -2.252837,-0.25465 -4.763072,-0.3477 -3.587374,-0.13297 -4.564039,-0.0977 -4.563951,0.16473 8.4e-5,0.25593 1.112316,0.33712 4.763071,0.3477 2.619629,0.008 4.673407,-0.0665 4.563952,-0.16473 z m 44.264432,-0.21744 c -0.0444,-0.19487 0.6494,-0.1468 1.06318,-0.15216 0.41377,-0.005 0.74011,0.0177 0.80006,0.17493 0.0599,0.15718 -0.61364,0.18835 -0.95064,0.17148 -0.337,-0.0169 -0.86818,6.2e-4 -0.9126,-0.19425 z m -54.025052,-1.7483 c -0.358433,-0.93406 0.06274,-1.10398 3.145864,-1.26921 3.264535,-0.17495 6.743333,0.017 6.970536,0.38463 0.07745,0.12532 0.06559,0.46492 -0.02638,0.75466 -0.158991,0.50095 -0.406887,0.5268 -5.05246,0.5268 -4.098383,0 -4.909796,-0.0639 -5.03756,-0.39688 z m 9.693902,-0.36279 c 0,-0.41536 -2.702631,-0.6006 -6.012092,-0.41206 -1.786578,0.10178 -3.248324,0.288 -3.248324,0.41381 0,0.12581 2.083593,0.22875 4.630208,0.22875 2.546615,0 4.630208,-0.10372 4.630208,-0.2305 z m -7.077604,-1.55435 c -2.166456,-0.0685 -2.711979,-0.16371 -2.711979,-0.47336 0,-0.21319 0.119062,-0.38762 0.264583,-0.38762 0.145521,0 0.264584,0.0977 0.264584,0.21702 0,0.11936 2.024062,0.2447 4.497916,0.27854 3.916119,0.0536 4.497917,0.008 4.497917,-0.34931 0,-0.35482 -0.640329,-0.41498 -4.696354,-0.44126 -3.211126,-0.0208 -4.361656,-0.0993 -3.638021,-0.24828 1.167053,-0.24022 8.554024,-0.008 8.728551,0.27434 0.06021,0.0974 0.04179,0.4359 -0.04092,0.7522 -0.164867,0.63045 0.206888,0.61086 -7.166274,0.37773 z m 0.864193,-1.85285 c -1.743885,-0.0464 -3.272962,-0.18659 -3.397949,-0.31157 -0.126605,-0.12661 -0.104989,-0.45569 0.04881,-0.74306 0.257709,-0.48153 0.563062,-0.51329 4.594783,-0.47794 2.375302,0.0208 4.464765,0.12813 4.64325,0.23844 0.178485,0.11031 0.324519,0.41777 0.324519,0.68326 0,0.55526 -0.766154,0.82619 -2.116666,0.74848 -0.509323,-0.0293 -2.352858,-0.0912 -4.096745,-0.13761 z m 5.621726,-0.65173 c -0.163901,-0.49291 -8.669525,-0.63903 -8.66698,-0.14889 0.0013,0.25661 1.051494,0.3555 4.391023,0.41348 3.488502,0.0606 4.366016,0.006 4.275957,-0.26459 z m -5.71763,-1.46481 c -3.303201,-0.0709 -3.7753,-0.13478 -3.638021,-0.49253 0.08676,-0.2261 0.157753,-0.52041 0.157753,-0.65403 0,-0.13799 1.939131,-0.24295 4.488609,-0.24295 4.093704,0 4.511614,0.043 4.750114,0.48863 0.35822,0.66934 -0.135897,1.11424 -1.155702,1.04059 -0.443839,-0.032 -2.515076,-0.0949 -4.602753,-0.13971 z m 5.515565,-0.53558 c 0,-0.28726 -2.983031,-0.65854 -3.836458,-0.4775 -0.291042,0.0617 -1.511432,0.12136 -2.711979,0.1325 -3.908687,0.0362 -2.297163,0.41458 2.183492,0.51262 2.781351,0.0609 4.364945,4e-5 4.364945,-0.16762 z m -9.045257,-1.81191 c -0.286978,-1.10586 -0.09032,-1.15868 4.31311,-1.15868 3.587105,0 4.243438,0.0622 4.378709,0.41466 0.313542,0.81707 -0.393335,0.99295 -4.491389,1.11751 -3.81866,0.11606 -4.079407,0.0929 -4.20043,-0.37349 z m 7.852206,-0.3432 c 0.33818,-0.13203 -0.324818,-0.25287 -1.852083,-0.33755 -2.812524,-0.15594 -5.686116,0.0197 -5.686116,0.34762 0,0.28544 6.804589,0.27635 7.538199,-0.0101 z m -5.28924,-1.3285 c -2.364973,-0.14743 -2.381827,-0.15346 -2.465629,-0.88286 l -0.08437,-0.73441 4.185417,0.0729 4.18542,0.073 v 0.65886 c 0,1.00327 -0.85222,1.12222 -5.820833,0.8125 z m 5.357368,-0.74376 c 0.08092,-0.24177 -0.347052,-0.33072 -1.591234,-0.33072 -0.936056,0 -2.612853,-0.077 -3.726214,-0.17112 -1.878703,-0.15881 -2.024295,-0.13461 -2.024295,0.33649 0,0.47593 0.225583,0.50724 3.615526,0.50184 2.652773,-0.004 3.645,-0.0938 3.726217,-0.33649 z m -6.415702,-1.36448 c -1.218403,-0.14448 -1.329809,-0.21724 -1.410165,-0.92104 l -0.08725,-0.76416 1.674747,0.21355 c 0.921112,0.11745 2.68678,0.2232 3.923707,0.235 2.075262,0.0198 2.255089,0.0644 2.328331,0.57727 0.07205,0.50452 -0.08666,0.57149 -1.719792,0.72572 -1.950305,0.18418 -2.684103,0.17384 -4.709581,-0.0663 z m 4.960938,-0.45898 c 1.875126,-0.30994 0.986509,-0.49165 -2.447412,-0.50047 -1.891763,-0.005 -3.439567,0.0772 -3.439567,0.18247 0,0.36675 4.214661,0.59441 5.886979,0.318 z m -3.502451,-1.61572 c -1.526164,-0.0475 -2.877955,-0.18955 -3.003979,-0.31558 -0.129124,-0.12912 -0.105195,-0.44236 0.05482,-0.71765 0.263422,-0.4532 0.284535,-0.44568 0.291999,0.1039 0.0079,0.5836 0.05529,0.5915 3.183046,0.53112 1.74625,-0.0337 3.175,-0.14161 3.175,-0.23977 0,-0.3756 -2.675749,-0.72878 -4.34236,-0.57315 -1.308378,0.12218 -1.743056,0.0799 -1.743056,-0.16934 0,-0.54281 5.677765,-0.26545 6.248455,0.30524 0.574064,0.57406 0.28896,1.28906 -0.485465,1.21747 -0.331989,-0.0307 -1.852295,-0.0947 -3.378462,-0.14224 z m -3.040587,-2.13371 c -0.3009,-0.30091 -0.112649,-1.06083 0.302231,-1.22003 0.241959,-0.0928 1.795717,-0.0878 3.452794,0.0113 2.862297,0.17113 3.008906,0.2079 2.933515,0.73582 -0.07542,0.52817 -0.239659,0.55706 -3.315102,0.58315 -1.779659,0.0151 -3.297706,-0.0345 -3.373438,-0.11025 z m 6.212309,-0.54797 c 0,-0.12863 -1.309688,-0.25333 -2.910417,-0.2771 -1.879081,-0.0279 -2.910417,0.055 -2.910417,0.23388 0,0.17629 1.05885,0.27711 2.910417,0.27711 1.600729,0 2.910417,-0.10525 2.910417,-0.23389 z m -5.490104,-3.39943 -1.12448,-0.10128 v -4.05752 c 0,-3.3187 0.07055,-4.08459 0.38744,-4.20619 0.90967,-0.34908 3.23713,3.94577 3.706154,6.83893 0.100507,0.61998 -0.213238,-0.0131 -0.757492,-1.52855 -0.902636,-2.51329 -1.555593,-3.71543 -2.397709,-4.41432 -0.365961,-0.30372 -0.409226,0.0554 -0.409226,3.39693 v 3.73657 l 1.256771,0.0534 c 0.691224,0.0294 1.584193,0.058 1.984375,0.0636 0.400182,0.006 0.727604,0.10059 0.727604,0.21114 0,0.19939 -1.211334,0.202 -3.373437,0.007 z"
       id="path314"
       sodipodi:nodetypes="cssssssssccsssssssscsscsssscscssccsccsscccsscsssscssssccccccscscscccccscscssscccccssccccccsscccsssscsssssscssscscssscsssccsssssscccssssssscccccsscccssssscsscsssccscccsccccccsssccscccscscsssccscssccsssszzcssscsccscssscsscssscscsssssscscsssscscsscscsccscssssssscccssssccsccsssssssssssscsscssscssscsscccccscssccccscccccccscssscssssscssssssccsscsssssssssssscsssscssccsssssscccscccccssscsssscssssssscscccsssssssssccscsssscscsssccsccscssscsssccsssssscssscsccssccscscscscsssccssscssccssscssscccssscccsccczzzzzscscssssssscscsscssssscscssssscsscsscsscsscccscccscccccccccccsccccsscccssssssccsscsscsccsssscsscscssccsccssccscscsscccscccs" /></g></svg>
