<?xml version="1.0" encoding="utf-8" standalone="no"?>
<!DOCTYPE svg PUBLIC "-//W3C//DTD SVG 1.1//EN"
  "http://www.w3.org/Graphics/SVG/1.1/DTD/svg11.dtd">
<svg xmlns:xlink="http://www.w3.org/1999/xlink" width="864pt" height="432pt" viewBox="0 0 864 432" xmlns="http://www.w3.org/2000/svg" version="1.1">
 <metadata>
  <rdf:RDF xmlns:dc="http://purl.org/dc/elements/1.1/" xmlns:cc="http://creativecommons.org/ns#" xmlns:rdf="http://www.w3.org/1999/02/22-rdf-syntax-ns#">
   <cc:Work>
    <dc:type rdf:resource="http://purl.org/dc/dcmitype/StillImage"/>
    <dc:date>2025-02-18T02:09:48.948966</dc:date>
    <dc:format>image/svg+xml</dc:format>
    <dc:creator>
     <cc:Agent>
      <dc:title>Matplotlib v3.9.2, https://matplotlib.org/</dc:title>
     </cc:Agent>
    </dc:creator>
   </cc:Work>
  </rdf:RDF>
 </metadata>
 <defs>
  <style type="text/css">*{stroke-linejoin: round; stroke-linecap: butt}</style>
 </defs>
 <g id="figure_1">
  <g id="patch_1">
   <path d="M 0 432 
L 864 432 
L 864 0 
L 0 0 
z
" style="fill: #ffffff"/>
  </g>
  <g id="axes_1">
   <g id="patch_2">
    <path d="M 46.46 390.04 
L 853.2 390.04 
L 853.2 27.6 
L 46.46 27.6 
z
" style="fill: #ffffff"/>
   </g>
   <g id="patch_3">
    <path d="M 54.828672 390.04 
L 74.913485 390.04 
L 74.913485 363.096909 
L 54.828672 363.096909 
z
" clip-path="url(#p0bb8a15970)" style="fill: #1f77b4"/>
   </g>
   <g id="patch_4">
    <path d="M 88.303361 390.04 
L 108.388174 390.04 
L 108.388174 389.678648 
L 88.303361 389.678648 
z
" clip-path="url(#p0bb8a15970)" style="fill: #1f77b4"/>
   </g>
   <g id="patch_5">
    <path d="M 121.77805 390.04 
L 141.862863 390.04 
L 141.862863 390.04 
L 121.77805 390.04 
z
" clip-path="url(#p0bb8a15970)" style="fill: #1f77b4"/>
   </g>
   <g id="patch_6">
    <path d="M 155.252739 390.04 
L 175.337552 390.04 
L 175.337552 390.04 
L 155.252739 390.04 
z
" clip-path="url(#p0bb8a15970)" style="fill: #1f77b4"/>
   </g>
   <g id="patch_7">
    <path d="M 188.727427 390.04 
L 208.812241 390.04 
L 208.812241 390.04 
L 188.727427 390.04 
z
" clip-path="url(#p0bb8a15970)" style="fill: #1f77b4"/>
   </g>
   <g id="patch_8">
    <path d="M 222.202116 390.04 
L 242.286929 390.04 
L 242.286929 390.04 
L 222.202116 390.04 
z
" clip-path="url(#p0bb8a15970)" style="fill: #1f77b4"/>
   </g>
   <g id="patch_9">
    <path d="M 255.676805 390.04 
L 275.761618 390.04 
L 275.761618 390.04 
L 255.676805 390.04 
z
" clip-path="url(#p0bb8a15970)" style="fill: #1f77b4"/>
   </g>
   <g id="patch_10">
    <path d="M 289.151494 390.04 
L 309.236307 390.04 
L 309.236307 390.04 
L 289.151494 390.04 
z
" clip-path="url(#p0bb8a15970)" style="fill: #1f77b4"/>
   </g>
   <g id="patch_11">
    <path d="M 322.626183 390.04 
L 342.710996 390.04 
L 342.710996 390.04 
L 322.626183 390.04 
z
" clip-path="url(#p0bb8a15970)" style="fill: #1f77b4"/>
   </g>
   <g id="patch_12">
    <path d="M 356.100871 390.04 
L 376.185685 390.04 
L 376.185685 381.751223 
L 356.100871 381.751223 
z
" clip-path="url(#p0bb8a15970)" style="fill: #1f77b4"/>
   </g>
   <g id="patch_13">
    <path d="M 389.57556 390.04 
L 409.660373 390.04 
L 409.660373 364.530138 
L 389.57556 364.530138 
z
" clip-path="url(#p0bb8a15970)" style="fill: #1f77b4"/>
   </g>
   <g id="patch_14">
    <path d="M 423.050249 390.04 
L 443.135062 390.04 
L 443.135062 352.370018 
L 423.050249 352.370018 
z
" clip-path="url(#p0bb8a15970)" style="fill: #1f77b4"/>
   </g>
   <g id="patch_15">
    <path d="M 456.524938 390.04 
L 476.609751 390.04 
L 476.609751 352.453251 
L 456.524938 352.453251 
z
" clip-path="url(#p0bb8a15970)" style="fill: #1f77b4"/>
   </g>
   <g id="patch_16">
    <path d="M 489.999627 390.04 
L 510.08444 390.04 
L 510.08444 350.027317 
L 489.999627 350.027317 
z
" clip-path="url(#p0bb8a15970)" style="fill: #1f77b4"/>
   </g>
   <g id="patch_17">
    <path d="M 523.474315 390.04 
L 543.559129 390.04 
L 543.559129 341.362977 
L 523.474315 341.362977 
z
" clip-path="url(#p0bb8a15970)" style="fill: #1f77b4"/>
   </g>
   <g id="patch_18">
    <path d="M 556.949004 390.04 
L 577.033817 390.04 
L 577.033817 337.319078 
L 556.949004 337.319078 
z
" clip-path="url(#p0bb8a15970)" style="fill: #1f77b4"/>
   </g>
   <g id="patch_19">
    <path d="M 590.423693 390.04 
L 610.508506 390.04 
L 610.508506 355.991663 
L 590.423693 355.991663 
z
" clip-path="url(#p0bb8a15970)" style="fill: #1f77b4"/>
   </g>
   <g id="patch_20">
    <path d="M 623.898382 390.04 
L 643.983195 390.04 
L 643.983195 360.851651 
L 623.898382 360.851651 
z
" clip-path="url(#p0bb8a15970)" style="fill: #1f77b4"/>
   </g>
   <g id="patch_21">
    <path d="M 657.373071 390.04 
L 677.457884 390.04 
L 677.457884 367.307274 
L 657.373071 367.307274 
z
" clip-path="url(#p0bb8a15970)" style="fill: #1f77b4"/>
   </g>
   <g id="patch_22">
    <path d="M 690.847759 390.04 
L 710.932573 390.04 
L 710.932573 369.438848 
L 690.847759 369.438848 
z
" clip-path="url(#p0bb8a15970)" style="fill: #1f77b4"/>
   </g>
   <g id="patch_23">
    <path d="M 724.322448 390.04 
L 744.407261 390.04 
L 744.407261 366.588629 
L 724.322448 366.588629 
z
" clip-path="url(#p0bb8a15970)" style="fill: #1f77b4"/>
   </g>
   <g id="patch_24">
    <path d="M 757.797137 390.04 
L 777.88195 390.04 
L 777.88195 364.842769 
L 757.797137 364.842769 
z
" clip-path="url(#p0bb8a15970)" style="fill: #1f77b4"/>
   </g>
   <g id="patch_25">
    <path d="M 791.271826 390.04 
L 811.356639 390.04 
L 811.356639 346.330559 
L 791.271826 346.330559 
z
" clip-path="url(#p0bb8a15970)" style="fill: #1f77b4"/>
   </g>
   <g id="patch_26">
    <path d="M 824.746515 390.04 
L 844.831328 390.04 
L 844.831328 356.131738 
L 824.746515 356.131738 
z
" clip-path="url(#p0bb8a15970)" style="fill: #1f77b4"/>
   </g>
   <g id="patch_27">
    <path d="M 54.828672 363.096909 
L 74.913485 363.096909 
L 74.913485 340.58343 
L 54.828672 340.58343 
z
" clip-path="url(#p0bb8a15970)" style="fill: #2ca02c"/>
   </g>
   <g id="patch_28">
    <path d="M 88.303361 389.678648 
L 108.388174 389.678648 
L 108.388174 375.013421 
L 88.303361 375.013421 
z
" clip-path="url(#p0bb8a15970)" style="fill: #2ca02c"/>
   </g>
   <g id="patch_29">
    <path d="M 121.77805 390.04 
L 141.862863 390.04 
L 141.862863 380.632655 
L 121.77805 380.632655 
z
" clip-path="url(#p0bb8a15970)" style="fill: #2ca02c"/>
   </g>
   <g id="patch_30">
    <path d="M 155.252739 390.04 
L 175.337552 390.04 
L 175.337552 389.816692 
L 155.252739 389.816692 
z
" clip-path="url(#p0bb8a15970)" style="fill: #2ca02c"/>
   </g>
   <g id="patch_31">
    <path d="M 188.727427 390.04 
L 208.812241 390.04 
L 208.812241 390.04 
L 188.727427 390.04 
z
" clip-path="url(#p0bb8a15970)" style="fill: #2ca02c"/>
   </g>
   <g id="patch_32">
    <path d="M 222.202116 390.04 
L 242.286929 390.04 
L 242.286929 390.04 
L 222.202116 390.04 
z
" clip-path="url(#p0bb8a15970)" style="fill: #2ca02c"/>
   </g>
   <g id="patch_33">
    <path d="M 255.676805 390.04 
L 275.761618 390.04 
L 275.761618 390.04 
L 255.676805 390.04 
z
" clip-path="url(#p0bb8a15970)" style="fill: #2ca02c"/>
   </g>
   <g id="patch_34">
    <path d="M 289.151494 390.04 
L 309.236307 390.04 
L 309.236307 375.634622 
L 289.151494 375.634622 
z
" clip-path="url(#p0bb8a15970)" style="fill: #2ca02c"/>
   </g>
   <g id="patch_35">
    <path d="M 322.626183 390.04 
L 342.710996 390.04 
L 342.710996 358.752558 
L 322.626183 358.752558 
z
" clip-path="url(#p0bb8a15970)" style="fill: #2ca02c"/>
   </g>
   <g id="patch_36">
    <path d="M 356.100871 381.751223 
L 376.185685 381.751223 
L 376.185685 270.546009 
L 356.100871 270.546009 
z
" clip-path="url(#p0bb8a15970)" style="fill: #2ca02c"/>
   </g>
   <g id="patch_37">
    <path d="M 389.57556 364.530138 
L 409.660373 364.530138 
L 409.660373 273.727129 
L 389.57556 273.727129 
z
" clip-path="url(#p0bb8a15970)" style="fill: #2ca02c"/>
   </g>
   <g id="patch_38">
    <path d="M 423.050249 352.370018 
L 443.135062 352.370018 
L 443.135062 296.624291 
L 423.050249 296.624291 
z
" clip-path="url(#p0bb8a15970)" style="fill: #2ca02c"/>
   </g>
   <g id="patch_39">
    <path d="M 456.524938 352.453251 
L 476.609751 352.453251 
L 476.609751 284.17387 
L 456.524938 284.17387 
z
" clip-path="url(#p0bb8a15970)" style="fill: #2ca02c"/>
   </g>
   <g id="patch_40">
    <path d="M 489.999627 350.027317 
L 510.08444 350.027317 
L 510.08444 277.738548 
L 489.999627 277.738548 
z
" clip-path="url(#p0bb8a15970)" style="fill: #2ca02c"/>
   </g>
   <g id="patch_41">
    <path d="M 523.474315 341.362977 
L 543.559129 341.362977 
L 543.559129 257.789048 
L 523.474315 257.789048 
z
" clip-path="url(#p0bb8a15970)" style="fill: #2ca02c"/>
   </g>
   <g id="patch_42">
    <path d="M 556.949004 337.319078 
L 577.033817 337.319078 
L 577.033817 258.806113 
L 556.949004 258.806113 
z
" clip-path="url(#p0bb8a15970)" style="fill: #2ca02c"/>
   </g>
   <g id="patch_43">
    <path d="M 590.423693 355.991663 
L 610.508506 355.991663 
L 610.508506 297.647446 
L 590.423693 297.647446 
z
" clip-path="url(#p0bb8a15970)" style="fill: #2ca02c"/>
   </g>
   <g id="patch_44">
    <path d="M 623.898382 360.851651 
L 643.983195 360.851651 
L 643.983195 291.508514 
L 623.898382 291.508514 
z
" clip-path="url(#p0bb8a15970)" style="fill: #2ca02c"/>
   </g>
   <g id="patch_45">
    <path d="M 657.373071 367.307274 
L 677.457884 367.307274 
L 677.457884 316.106874 
L 657.373071 316.106874 
z
" clip-path="url(#p0bb8a15970)" style="fill: #2ca02c"/>
   </g>
   <g id="patch_46">
    <path d="M 690.847759 369.438848 
L 710.932573 369.438848 
L 710.932573 324.223095 
L 690.847759 324.223095 
z
" clip-path="url(#p0bb8a15970)" style="fill: #2ca02c"/>
   </g>
   <g id="patch_47">
    <path d="M 724.322448 366.588629 
L 744.407261 366.588629 
L 744.407261 316.007401 
L 724.322448 316.007401 
z
" clip-path="url(#p0bb8a15970)" style="fill: #2ca02c"/>
   </g>
   <g id="patch_48">
    <path d="M 757.797137 364.842769 
L 777.88195 364.842769 
L 777.88195 314.517329 
L 757.797137 314.517329 
z
" clip-path="url(#p0bb8a15970)" style="fill: #2ca02c"/>
   </g>
   <g id="patch_49">
    <path d="M 791.271826 346.330559 
L 811.356639 346.330559 
L 811.356639 313.924549 
L 791.271826 313.924549 
z
" clip-path="url(#p0bb8a15970)" style="fill: #2ca02c"/>
   </g>
   <g id="patch_50">
    <path d="M 824.746515 356.131738 
L 844.831328 356.131738 
L 844.831328 325.569031 
L 824.746515 325.569031 
z
" clip-path="url(#p0bb8a15970)" style="fill: #2ca02c"/>
   </g>
   <g id="patch_51">
    <path d="M 54.828672 390.04 
L 74.913485 390.04 
L 74.913485 390.04 
L 54.828672 390.04 
z
" clip-path="url(#p0bb8a15970)" style="fill: #9467bd"/>
   </g>
   <g id="patch_52">
    <path d="M 88.303361 390.04 
L 108.388174 390.04 
L 108.388174 390.04 
L 88.303361 390.04 
z
" clip-path="url(#p0bb8a15970)" style="fill: #9467bd"/>
   </g>
   <g id="patch_53">
    <path d="M 121.77805 390.04 
L 141.862863 390.04 
L 141.862863 390.04 
L 121.77805 390.04 
z
" clip-path="url(#p0bb8a15970)" style="fill: #9467bd"/>
   </g>
   <g id="patch_54">
    <path d="M 155.252739 390.04 
L 175.337552 390.04 
L 175.337552 390.04 
L 155.252739 390.04 
z
" clip-path="url(#p0bb8a15970)" style="fill: #9467bd"/>
   </g>
   <g id="patch_55">
    <path d="M 188.727427 390.04 
L 208.812241 390.04 
L 208.812241 390.04 
L 188.727427 390.04 
z
" clip-path="url(#p0bb8a15970)" style="fill: #9467bd"/>
   </g>
   <g id="patch_56">
    <path d="M 222.202116 390.04 
L 242.286929 390.04 
L 242.286929 390.04 
L 222.202116 390.04 
z
" clip-path="url(#p0bb8a15970)" style="fill: #9467bd"/>
   </g>
   <g id="patch_57">
    <path d="M 255.676805 390.04 
L 275.761618 390.04 
L 275.761618 383.964 
L 255.676805 383.964 
z
" clip-path="url(#p0bb8a15970)" style="fill: #9467bd"/>
   </g>
   <g id="patch_58">
    <path d="M 289.151494 375.634622 
L 309.236307 375.634622 
L 309.236307 368.326369 
L 289.151494 368.326369 
z
" clip-path="url(#p0bb8a15970)" style="fill: #9467bd"/>
   </g>
   <g id="patch_59">
    <path d="M 322.626183 358.752558 
L 342.710996 358.752558 
L 342.710996 351.444306 
L 322.626183 351.444306 
z
" clip-path="url(#p0bb8a15970)" style="fill: #9467bd"/>
   </g>
   <g id="patch_60">
    <path d="M 356.100871 270.546009 
L 376.185685 270.546009 
L 376.185685 266.268651 
L 356.100871 266.268651 
z
" clip-path="url(#p0bb8a15970)" style="fill: #9467bd"/>
   </g>
   <g id="patch_61">
    <path d="M 389.57556 273.727129 
L 409.660373 273.727129 
L 409.660373 266.435117 
L 389.57556 266.435117 
z
" clip-path="url(#p0bb8a15970)" style="fill: #9467bd"/>
   </g>
   <g id="patch_62">
    <path d="M 423.050249 296.624291 
L 443.135062 296.624291 
L 443.135062 275.499381 
L 423.050249 275.499381 
z
" clip-path="url(#p0bb8a15970)" style="fill: #9467bd"/>
   </g>
   <g id="patch_63">
    <path d="M 456.524938 284.17387 
L 476.609751 284.17387 
L 476.609751 268.363684 
L 456.524938 268.363684 
z
" clip-path="url(#p0bb8a15970)" style="fill: #9467bd"/>
   </g>
   <g id="patch_64">
    <path d="M 489.999627 277.738548 
L 510.08444 277.738548 
L 510.08444 252.380941 
L 489.999627 252.380941 
z
" clip-path="url(#p0bb8a15970)" style="fill: #9467bd"/>
   </g>
   <g id="patch_65">
    <path d="M 523.474315 257.789048 
L 543.559129 257.789048 
L 543.559129 233.83625 
L 523.474315 233.83625 
z
" clip-path="url(#p0bb8a15970)" style="fill: #9467bd"/>
   </g>
   <g id="patch_66">
    <path d="M 556.949004 258.806113 
L 577.033817 258.806113 
L 577.033817 219.989142 
L 556.949004 219.989142 
z
" clip-path="url(#p0bb8a15970)" style="fill: #9467bd"/>
   </g>
   <g id="patch_67">
    <path d="M 590.423693 297.647446 
L 610.508506 297.647446 
L 610.508506 274.602089 
L 590.423693 274.602089 
z
" clip-path="url(#p0bb8a15970)" style="fill: #9467bd"/>
   </g>
   <g id="patch_68">
    <path d="M 623.898382 291.508514 
L 643.983195 291.508514 
L 643.983195 261.213777 
L 623.898382 261.213777 
z
" clip-path="url(#p0bb8a15970)" style="fill: #9467bd"/>
   </g>
   <g id="patch_69">
    <path d="M 657.373071 316.106874 
L 677.457884 316.106874 
L 677.457884 299.732328 
L 657.373071 299.732328 
z
" clip-path="url(#p0bb8a15970)" style="fill: #9467bd"/>
   </g>
   <g id="patch_70">
    <path d="M 690.847759 324.223095 
L 710.932573 324.223095 
L 710.932573 301.070144 
L 690.847759 301.070144 
z
" clip-path="url(#p0bb8a15970)" style="fill: #9467bd"/>
   </g>
   <g id="patch_71">
    <path d="M 724.322448 316.007401 
L 744.407261 316.007401 
L 744.407261 267.941429 
L 724.322448 267.941429 
z
" clip-path="url(#p0bb8a15970)" style="fill: #9467bd"/>
   </g>
   <g id="patch_72">
    <path d="M 757.797137 314.517329 
L 777.88195 314.517329 
L 777.88195 271.859465 
L 757.797137 271.859465 
z
" clip-path="url(#p0bb8a15970)" style="fill: #9467bd"/>
   </g>
   <g id="patch_73">
    <path d="M 791.271826 313.924549 
L 811.356639 313.924549 
L 811.356639 297.627145 
L 791.271826 297.627145 
z
" clip-path="url(#p0bb8a15970)" style="fill: #9467bd"/>
   </g>
   <g id="patch_74">
    <path d="M 824.746515 325.569031 
L 844.831328 325.569031 
L 844.831328 321.275433 
L 824.746515 321.275433 
z
" clip-path="url(#p0bb8a15970)" style="fill: #9467bd"/>
   </g>
   <g id="patch_75">
    <path d="M 54.828672 340.58343 
L 74.913485 340.58343 
L 74.913485 326.220684 
L 54.828672 326.220684 
z
" clip-path="url(#p0bb8a15970)" style="fill: #e377c2"/>
   </g>
   <g id="patch_76">
    <path d="M 88.303361 375.013421 
L 108.388174 375.013421 
L 108.388174 368.738474 
L 88.303361 368.738474 
z
" clip-path="url(#p0bb8a15970)" style="fill: #e377c2"/>
   </g>
   <g id="patch_77">
    <path d="M 121.77805 390.04 
L 141.862863 390.04 
L 141.862863 390.04 
L 121.77805 390.04 
z
" clip-path="url(#p0bb8a15970)" style="fill: #e377c2"/>
   </g>
   <g id="patch_78">
    <path d="M 155.252739 390.04 
L 175.337552 390.04 
L 175.337552 390.04 
L 155.252739 390.04 
z
" clip-path="url(#p0bb8a15970)" style="fill: #e377c2"/>
   </g>
   <g id="patch_79">
    <path d="M 188.727427 390.04 
L 208.812241 390.04 
L 208.812241 390.04 
L 188.727427 390.04 
z
" clip-path="url(#p0bb8a15970)" style="fill: #e377c2"/>
   </g>
   <g id="patch_80">
    <path d="M 222.202116 390.04 
L 242.286929 390.04 
L 242.286929 390.04 
L 222.202116 390.04 
z
" clip-path="url(#p0bb8a15970)" style="fill: #e377c2"/>
   </g>
   <g id="patch_81">
    <path d="M 255.676805 383.964 
L 275.761618 383.964 
L 275.761618 366.02427 
L 255.676805 366.02427 
z
" clip-path="url(#p0bb8a15970)" style="fill: #e377c2"/>
   </g>
   <g id="patch_82">
    <path d="M 289.151494 368.326369 
L 309.236307 368.326369 
L 309.236307 341.362977 
L 289.151494 341.362977 
z
" clip-path="url(#p0bb8a15970)" style="fill: #e377c2"/>
   </g>
   <g id="patch_83">
    <path d="M 322.626183 351.444306 
L 342.710996 351.444306 
L 342.710996 339.470952 
L 322.626183 339.470952 
z
" clip-path="url(#p0bb8a15970)" style="fill: #e377c2"/>
   </g>
   <g id="patch_84">
    <path d="M 356.100871 266.268651 
L 376.185685 266.268651 
L 376.185685 266.22399 
L 356.100871 266.22399 
z
" clip-path="url(#p0bb8a15970)" style="fill: #e377c2"/>
   </g>
   <g id="patch_85">
    <path d="M 389.57556 266.435117 
L 409.660373 266.435117 
L 409.660373 263.209336 
L 389.57556 263.209336 
z
" clip-path="url(#p0bb8a15970)" style="fill: #e377c2"/>
   </g>
   <g id="patch_86">
    <path d="M 423.050249 275.499381 
L 443.135062 275.499381 
L 443.135062 263.233696 
L 423.050249 263.233696 
z
" clip-path="url(#p0bb8a15970)" style="fill: #e377c2"/>
   </g>
   <g id="patch_87">
    <path d="M 456.524938 268.363684 
L 476.609751 268.363684 
L 476.609751 263.698583 
L 456.524938 263.698583 
z
" clip-path="url(#p0bb8a15970)" style="fill: #e377c2"/>
   </g>
   <g id="patch_88">
    <path d="M 489.999627 390.04 
L 510.08444 390.04 
L 510.08444 390.04 
L 489.999627 390.04 
z
" clip-path="url(#p0bb8a15970)" style="fill: #e377c2"/>
   </g>
   <g id="patch_89">
    <path d="M 523.474315 390.04 
L 543.559129 390.04 
L 543.559129 390.04 
L 523.474315 390.04 
z
" clip-path="url(#p0bb8a15970)" style="fill: #e377c2"/>
   </g>
   <g id="patch_90">
    <path d="M 556.949004 219.989142 
L 577.033817 219.989142 
L 577.033817 209.211499 
L 556.949004 209.211499 
z
" clip-path="url(#p0bb8a15970)" style="fill: #e377c2"/>
   </g>
   <g id="patch_91">
    <path d="M 590.423693 274.602089 
L 610.508506 274.602089 
L 610.508506 267.293837 
L 590.423693 267.293837 
z
" clip-path="url(#p0bb8a15970)" style="fill: #e377c2"/>
   </g>
   <g id="patch_92">
    <path d="M 623.898382 261.213777 
L 643.983195 261.213777 
L 643.983195 258.089499 
L 623.898382 258.089499 
z
" clip-path="url(#p0bb8a15970)" style="fill: #e377c2"/>
   </g>
   <g id="patch_93">
    <path d="M 657.373071 299.732328 
L 677.457884 299.732328 
L 677.457884 292.424076 
L 657.373071 292.424076 
z
" clip-path="url(#p0bb8a15970)" style="fill: #e377c2"/>
   </g>
   <g id="patch_94">
    <path d="M 690.847759 301.070144 
L 710.932573 301.070144 
L 710.932573 293.761892 
L 690.847759 293.761892 
z
" clip-path="url(#p0bb8a15970)" style="fill: #e377c2"/>
   </g>
   <g id="patch_95">
    <path d="M 724.322448 267.941429 
L 744.407261 267.941429 
L 744.407261 267.868347 
L 724.322448 267.868347 
z
" clip-path="url(#p0bb8a15970)" style="fill: #e377c2"/>
   </g>
   <g id="patch_96">
    <path d="M 757.797137 390.04 
L 777.88195 390.04 
L 777.88195 390.04 
L 757.797137 390.04 
z
" clip-path="url(#p0bb8a15970)" style="fill: #e377c2"/>
   </g>
   <g id="patch_97">
    <path d="M 791.271826 390.04 
L 811.356639 390.04 
L 811.356639 390.04 
L 791.271826 390.04 
z
" clip-path="url(#p0bb8a15970)" style="fill: #e377c2"/>
   </g>
   <g id="patch_98">
    <path d="M 824.746515 321.275433 
L 844.831328 321.275433 
L 844.831328 316.058153 
L 824.746515 316.058153 
z
" clip-path="url(#p0bb8a15970)" style="fill: #e377c2"/>
   </g>
   <g id="patch_99">
    <path d="M 54.828672 326.220684 
L 74.913485 326.220684 
L 74.913485 294.2755 
L 54.828672 294.2755 
z
" clip-path="url(#p0bb8a15970)" style="fill: #bcbd22"/>
   </g>
   <g id="patch_100">
    <path d="M 88.303361 368.738474 
L 108.388174 368.738474 
L 108.388174 357.495945 
L 88.303361 357.495945 
z
" clip-path="url(#p0bb8a15970)" style="fill: #bcbd22"/>
   </g>
   <g id="patch_101">
    <path d="M 121.77805 380.632655 
L 141.862863 380.632655 
L 141.862863 378.564013 
L 121.77805 378.564013 
z
" clip-path="url(#p0bb8a15970)" style="fill: #bcbd22"/>
   </g>
   <g id="patch_102">
    <path d="M 155.252739 390.04 
L 175.337552 390.04 
L 175.337552 390.04 
L 155.252739 390.04 
z
" clip-path="url(#p0bb8a15970)" style="fill: #bcbd22"/>
   </g>
   <g id="patch_103">
    <path d="M 188.727427 390.04 
L 208.812241 390.04 
L 208.812241 390.04 
L 188.727427 390.04 
z
" clip-path="url(#p0bb8a15970)" style="fill: #bcbd22"/>
   </g>
   <g id="patch_104">
    <path d="M 222.202116 390.04 
L 242.286929 390.04 
L 242.286929 390.04 
L 222.202116 390.04 
z
" clip-path="url(#p0bb8a15970)" style="fill: #bcbd22"/>
   </g>
   <g id="patch_105">
    <path d="M 255.676805 390.04 
L 275.761618 390.04 
L 275.761618 390.04 
L 255.676805 390.04 
z
" clip-path="url(#p0bb8a15970)" style="fill: #bcbd22"/>
   </g>
   <g id="patch_106">
    <path d="M 289.151494 390.04 
L 309.236307 390.04 
L 309.236307 390.04 
L 289.151494 390.04 
z
" clip-path="url(#p0bb8a15970)" style="fill: #bcbd22"/>
   </g>
   <g id="patch_107">
    <path d="M 322.626183 339.470952 
L 342.710996 339.470952 
L 342.710996 332.881344 
L 322.626183 332.881344 
z
" clip-path="url(#p0bb8a15970)" style="fill: #bcbd22"/>
   </g>
   <g id="patch_108">
    <path d="M 356.100871 266.22399 
L 376.185685 266.22399 
L 376.185685 238.182631 
L 356.100871 238.182631 
z
" clip-path="url(#p0bb8a15970)" style="fill: #bcbd22"/>
   </g>
   <g id="patch_109">
    <path d="M 389.57556 263.209336 
L 409.660373 263.209336 
L 409.660373 224.970934 
L 389.57556 224.970934 
z
" clip-path="url(#p0bb8a15970)" style="fill: #bcbd22"/>
   </g>
   <g id="patch_110">
    <path d="M 423.050249 263.233696 
L 443.135062 263.233696 
L 443.135062 219.999292 
L 423.050249 219.999292 
z
" clip-path="url(#p0bb8a15970)" style="fill: #bcbd22"/>
   </g>
   <g id="patch_111">
    <path d="M 456.524938 263.698583 
L 476.609751 263.698583 
L 476.609751 215.701633 
L 456.524938 215.701633 
z
" clip-path="url(#p0bb8a15970)" style="fill: #bcbd22"/>
   </g>
   <g id="patch_112">
    <path d="M 489.999627 252.380941 
L 510.08444 252.380941 
L 510.08444 203.295875 
L 489.999627 203.295875 
z
" clip-path="url(#p0bb8a15970)" style="fill: #bcbd22"/>
   </g>
   <g id="patch_113">
    <path d="M 523.474315 233.83625 
L 543.559129 233.83625 
L 543.559129 161.50282 
L 523.474315 161.50282 
z
" clip-path="url(#p0bb8a15970)" style="fill: #bcbd22"/>
   </g>
   <g id="patch_114">
    <path d="M 556.949004 209.211499 
L 577.033817 209.211499 
L 577.033817 104.102586 
L 556.949004 104.102586 
z
" clip-path="url(#p0bb8a15970)" style="fill: #bcbd22"/>
   </g>
   <g id="patch_115">
    <path d="M 590.423693 267.293837 
L 610.508506 267.293837 
L 610.508506 197.213784 
L 590.423693 197.213784 
z
" clip-path="url(#p0bb8a15970)" style="fill: #bcbd22"/>
   </g>
   <g id="patch_116">
    <path d="M 623.898382 258.089499 
L 643.983195 258.089499 
L 643.983195 204.063241 
L 623.898382 204.063241 
z
" clip-path="url(#p0bb8a15970)" style="fill: #bcbd22"/>
   </g>
   <g id="patch_117">
    <path d="M 657.373071 292.424076 
L 677.457884 292.424076 
L 677.457884 250.89899 
L 657.373071 250.89899 
z
" clip-path="url(#p0bb8a15970)" style="fill: #bcbd22"/>
   </g>
   <g id="patch_118">
    <path d="M 690.847759 293.761892 
L 710.932573 293.761892 
L 710.932573 245.829905 
L 690.847759 245.829905 
z
" clip-path="url(#p0bb8a15970)" style="fill: #bcbd22"/>
   </g>
   <g id="patch_119">
    <path d="M 724.322448 267.868347 
L 744.407261 267.868347 
L 744.407261 209.349544 
L 724.322448 209.349544 
z
" clip-path="url(#p0bb8a15970)" style="fill: #bcbd22"/>
   </g>
   <g id="patch_120">
    <path d="M 757.797137 271.859465 
L 777.88195 271.859465 
L 777.88195 217.260727 
L 757.797137 217.260727 
z
" clip-path="url(#p0bb8a15970)" style="fill: #bcbd22"/>
   </g>
   <g id="patch_121">
    <path d="M 791.271826 297.627145 
L 811.356639 297.627145 
L 811.356639 263.05911 
L 791.271826 263.05911 
z
" clip-path="url(#p0bb8a15970)" style="fill: #bcbd22"/>
   </g>
   <g id="patch_122">
    <path d="M 824.746515 316.058153 
L 844.831328 316.058153 
L 844.831328 273.861114 
L 824.746515 273.861114 
z
" clip-path="url(#p0bb8a15970)" style="fill: #bcbd22"/>
   </g>
   <g id="patch_123">
    <path d="M 54.828672 294.2755 
L 74.913485 294.2755 
L 74.913485 268.231729 
L 54.828672 268.231729 
z
" clip-path="url(#p0bb8a15970)" style="fill: #17becf"/>
   </g>
   <g id="patch_124">
    <path d="M 88.303361 357.495945 
L 108.388174 357.495945 
L 108.388174 347.851082 
L 88.303361 347.851082 
z
" clip-path="url(#p0bb8a15970)" style="fill: #17becf"/>
   </g>
   <g id="patch_125">
    <path d="M 121.77805 378.564013 
L 141.862863 378.564013 
L 141.862863 377.857549 
L 121.77805 377.857549 
z
" clip-path="url(#p0bb8a15970)" style="fill: #17becf"/>
   </g>
   <g id="patch_126">
    <path d="M 155.252739 390.04 
L 175.337552 390.04 
L 175.337552 390.04 
L 155.252739 390.04 
z
" clip-path="url(#p0bb8a15970)" style="fill: #17becf"/>
   </g>
   <g id="patch_127">
    <path d="M 188.727427 390.04 
L 208.812241 390.04 
L 208.812241 390.04 
L 188.727427 390.04 
z
" clip-path="url(#p0bb8a15970)" style="fill: #17becf"/>
   </g>
   <g id="patch_128">
    <path d="M 222.202116 390.04 
L 242.286929 390.04 
L 242.286929 386.505648 
L 222.202116 386.505648 
z
" clip-path="url(#p0bb8a15970)" style="fill: #17becf"/>
   </g>
   <g id="patch_129">
    <path d="M 255.676805 366.02427 
L 275.761618 366.02427 
L 275.761618 351.807688 
L 255.676805 351.807688 
z
" clip-path="url(#p0bb8a15970)" style="fill: #17becf"/>
   </g>
   <g id="patch_130">
    <path d="M 289.151494 341.362977 
L 309.236307 341.362977 
L 309.236307 301.51473 
L 289.151494 301.51473 
z
" clip-path="url(#p0bb8a15970)" style="fill: #17becf"/>
   </g>
   <g id="patch_131">
    <path d="M 322.626183 332.881344 
L 342.710996 332.881344 
L 342.710996 291.041598 
L 322.626183 291.041598 
z
" clip-path="url(#p0bb8a15970)" style="fill: #17becf"/>
   </g>
   <g id="patch_132">
    <path d="M 356.100871 238.182631 
L 376.185685 238.182631 
L 376.185685 202.230088 
L 356.100871 202.230088 
z
" clip-path="url(#p0bb8a15970)" style="fill: #17becf"/>
   </g>
   <g id="patch_133">
    <path d="M 389.57556 224.970934 
L 409.660373 224.970934 
L 409.660373 167.237768 
L 389.57556 167.237768 
z
" clip-path="url(#p0bb8a15970)" style="fill: #17becf"/>
   </g>
   <g id="patch_134">
    <path d="M 423.050249 219.999292 
L 443.135062 219.999292 
L 443.135062 157.349296 
L 423.050249 157.349296 
z
" clip-path="url(#p0bb8a15970)" style="fill: #17becf"/>
   </g>
   <g id="patch_135">
    <path d="M 456.524938 215.701633 
L 476.609751 215.701633 
L 476.609751 169.168365 
L 456.524938 169.168365 
z
" clip-path="url(#p0bb8a15970)" style="fill: #17becf"/>
   </g>
   <g id="patch_136">
    <path d="M 489.999627 203.295875 
L 510.08444 203.295875 
L 510.08444 165.236119 
L 489.999627 165.236119 
z
" clip-path="url(#p0bb8a15970)" style="fill: #17becf"/>
   </g>
   <g id="patch_137">
    <path d="M 523.474315 161.50282 
L 543.559129 161.50282 
L 543.559129 107.935358 
L 523.474315 107.935358 
z
" clip-path="url(#p0bb8a15970)" style="fill: #17becf"/>
   </g>
   <g id="patch_138">
    <path d="M 556.949004 104.102586 
L 577.033817 104.102586 
L 577.033817 44.859048 
L 556.949004 44.859048 
z
" clip-path="url(#p0bb8a15970)" style="fill: #17becf"/>
   </g>
   <g id="patch_139">
    <path d="M 590.423693 197.213784 
L 610.508506 197.213784 
L 610.508506 168.358367 
L 590.423693 168.358367 
z
" clip-path="url(#p0bb8a15970)" style="fill: #17becf"/>
   </g>
   <g id="patch_140">
    <path d="M 623.898382 204.063241 
L 643.983195 204.063241 
L 643.983195 176.695865 
L 623.898382 176.695865 
z
" clip-path="url(#p0bb8a15970)" style="fill: #17becf"/>
   </g>
   <g id="patch_141">
    <path d="M 657.373071 250.89899 
L 677.457884 250.89899 
L 677.457884 205.971507 
L 657.373071 205.971507 
z
" clip-path="url(#p0bb8a15970)" style="fill: #17becf"/>
   </g>
   <g id="patch_142">
    <path d="M 690.847759 245.829905 
L 710.932573 245.829905 
L 710.932573 194.78582 
L 690.847759 194.78582 
z
" clip-path="url(#p0bb8a15970)" style="fill: #17becf"/>
   </g>
   <g id="patch_143">
    <path d="M 724.322448 209.349544 
L 744.407261 209.349544 
L 744.407261 143.693014 
L 724.322448 143.693014 
z
" clip-path="url(#p0bb8a15970)" style="fill: #17becf"/>
   </g>
   <g id="patch_144">
    <path d="M 757.797137 217.260727 
L 777.88195 217.260727 
L 777.88195 140.416481 
L 757.797137 140.416481 
z
" clip-path="url(#p0bb8a15970)" style="fill: #17becf"/>
   </g>
   <g id="patch_145">
    <path d="M 791.271826 263.05911 
L 811.356639 263.05911 
L 811.356639 180.057661 
L 791.271826 180.057661 
z
" clip-path="url(#p0bb8a15970)" style="fill: #17becf"/>
   </g>
   <g id="patch_146">
    <path d="M 824.746515 273.861114 
L 844.831328 273.861114 
L 844.831328 214.73126 
L 824.746515 214.73126 
z
" clip-path="url(#p0bb8a15970)" style="fill: #17becf"/>
   </g>
   <g id="matplotlib.axis_1">
    <g id="xtick_1">
     <g id="line2d_1">
      <defs>
       <path id="m26cdadca17" d="M 0 0 
L 0 3.5 
" style="stroke: #000000; stroke-width: 0.8"/>
      </defs>
      <g>
       <use xlink:href="#m26cdadca17" x="64.871079" y="390.04" style="stroke: #000000; stroke-width: 0.8"/>
      </g>
     </g>
     <g id="text_1">
      <!-- 0 -->
      <g transform="translate(61.689829 404.638438) scale(0.1 -0.1)">
       <defs>
        <path id="DejaVuSans-30" d="M 2034 4250 
Q 1547 4250 1301 3770 
Q 1056 3291 1056 2328 
Q 1056 1369 1301 889 
Q 1547 409 2034 409 
Q 2525 409 2770 889 
Q 3016 1369 3016 2328 
Q 3016 3291 2770 3770 
Q 2525 4250 2034 4250 
z
M 2034 4750 
Q 2819 4750 3233 4129 
Q 3647 3509 3647 2328 
Q 3647 1150 3233 529 
Q 2819 -91 2034 -91 
Q 1250 -91 836 529 
Q 422 1150 422 2328 
Q 422 3509 836 4129 
Q 1250 4750 2034 4750 
z
" transform="scale(0.015625)"/>
       </defs>
       <use xlink:href="#DejaVuSans-30"/>
      </g>
     </g>
    </g>
    <g id="xtick_2">
     <g id="line2d_2">
      <g>
       <use xlink:href="#m26cdadca17" x="98.345768" y="390.04" style="stroke: #000000; stroke-width: 0.8"/>
      </g>
     </g>
     <g id="text_2">
      <!-- 1 -->
      <g transform="translate(95.164518 404.638438) scale(0.1 -0.1)">
       <defs>
        <path id="DejaVuSans-31" d="M 794 531 
L 1825 531 
L 1825 4091 
L 703 3866 
L 703 4441 
L 1819 4666 
L 2450 4666 
L 2450 531 
L 3481 531 
L 3481 0 
L 794 0 
L 794 531 
z
" transform="scale(0.015625)"/>
       </defs>
       <use xlink:href="#DejaVuSans-31"/>
      </g>
     </g>
    </g>
    <g id="xtick_3">
     <g id="line2d_3">
      <g>
       <use xlink:href="#m26cdadca17" x="131.820456" y="390.04" style="stroke: #000000; stroke-width: 0.8"/>
      </g>
     </g>
     <g id="text_3">
      <!-- 2 -->
      <g transform="translate(128.639206 404.638438) scale(0.1 -0.1)">
       <defs>
        <path id="DejaVuSans-32" d="M 1228 531 
L 3431 531 
L 3431 0 
L 469 0 
L 469 531 
Q 828 903 1448 1529 
Q 2069 2156 2228 2338 
Q 2531 2678 2651 2914 
Q 2772 3150 2772 3378 
Q 2772 3750 2511 3984 
Q 2250 4219 1831 4219 
Q 1534 4219 1204 4116 
Q 875 4013 500 3803 
L 500 4441 
Q 881 4594 1212 4672 
Q 1544 4750 1819 4750 
Q 2544 4750 2975 4387 
Q 3406 4025 3406 3419 
Q 3406 3131 3298 2873 
Q 3191 2616 2906 2266 
Q 2828 2175 2409 1742 
Q 1991 1309 1228 531 
z
" transform="scale(0.015625)"/>
       </defs>
       <use xlink:href="#DejaVuSans-32"/>
      </g>
     </g>
    </g>
    <g id="xtick_4">
     <g id="line2d_4">
      <g>
       <use xlink:href="#m26cdadca17" x="165.295145" y="390.04" style="stroke: #000000; stroke-width: 0.8"/>
      </g>
     </g>
     <g id="text_4">
      <!-- 3 -->
      <g transform="translate(162.113895 404.638438) scale(0.1 -0.1)">
       <defs>
        <path id="DejaVuSans-33" d="M 2597 2516 
Q 3050 2419 3304 2112 
Q 3559 1806 3559 1356 
Q 3559 666 3084 287 
Q 2609 -91 1734 -91 
Q 1441 -91 1130 -33 
Q 819 25 488 141 
L 488 750 
Q 750 597 1062 519 
Q 1375 441 1716 441 
Q 2309 441 2620 675 
Q 2931 909 2931 1356 
Q 2931 1769 2642 2001 
Q 2353 2234 1838 2234 
L 1294 2234 
L 1294 2753 
L 1863 2753 
Q 2328 2753 2575 2939 
Q 2822 3125 2822 3475 
Q 2822 3834 2567 4026 
Q 2313 4219 1838 4219 
Q 1578 4219 1281 4162 
Q 984 4106 628 3988 
L 628 4550 
Q 988 4650 1302 4700 
Q 1616 4750 1894 4750 
Q 2613 4750 3031 4423 
Q 3450 4097 3450 3541 
Q 3450 3153 3228 2886 
Q 3006 2619 2597 2516 
z
" transform="scale(0.015625)"/>
       </defs>
       <use xlink:href="#DejaVuSans-33"/>
      </g>
     </g>
    </g>
    <g id="xtick_5">
     <g id="line2d_5">
      <g>
       <use xlink:href="#m26cdadca17" x="198.769834" y="390.04" style="stroke: #000000; stroke-width: 0.8"/>
      </g>
     </g>
     <g id="text_5">
      <!-- 4 -->
      <g transform="translate(195.588584 404.638438) scale(0.1 -0.1)">
       <defs>
        <path id="DejaVuSans-34" d="M 2419 4116 
L 825 1625 
L 2419 1625 
L 2419 4116 
z
M 2253 4666 
L 3047 4666 
L 3047 1625 
L 3713 1625 
L 3713 1100 
L 3047 1100 
L 3047 0 
L 2419 0 
L 2419 1100 
L 313 1100 
L 313 1709 
L 2253 4666 
z
" transform="scale(0.015625)"/>
       </defs>
       <use xlink:href="#DejaVuSans-34"/>
      </g>
     </g>
    </g>
    <g id="xtick_6">
     <g id="line2d_6">
      <g>
       <use xlink:href="#m26cdadca17" x="232.244523" y="390.04" style="stroke: #000000; stroke-width: 0.8"/>
      </g>
     </g>
     <g id="text_6">
      <!-- 5 -->
      <g transform="translate(229.063273 404.638438) scale(0.1 -0.1)">
       <defs>
        <path id="DejaVuSans-35" d="M 691 4666 
L 3169 4666 
L 3169 4134 
L 1269 4134 
L 1269 2991 
Q 1406 3038 1543 3061 
Q 1681 3084 1819 3084 
Q 2600 3084 3056 2656 
Q 3513 2228 3513 1497 
Q 3513 744 3044 326 
Q 2575 -91 1722 -91 
Q 1428 -91 1123 -41 
Q 819 9 494 109 
L 494 744 
Q 775 591 1075 516 
Q 1375 441 1709 441 
Q 2250 441 2565 725 
Q 2881 1009 2881 1497 
Q 2881 1984 2565 2268 
Q 2250 2553 1709 2553 
Q 1456 2553 1204 2497 
Q 953 2441 691 2322 
L 691 4666 
z
" transform="scale(0.015625)"/>
       </defs>
       <use xlink:href="#DejaVuSans-35"/>
      </g>
     </g>
    </g>
    <g id="xtick_7">
     <g id="line2d_7">
      <g>
       <use xlink:href="#m26cdadca17" x="265.719212" y="390.04" style="stroke: #000000; stroke-width: 0.8"/>
      </g>
     </g>
     <g id="text_7">
      <!-- 6 -->
      <g transform="translate(262.537962 404.638438) scale(0.1 -0.1)">
       <defs>
        <path id="DejaVuSans-36" d="M 2113 2584 
Q 1688 2584 1439 2293 
Q 1191 2003 1191 1497 
Q 1191 994 1439 701 
Q 1688 409 2113 409 
Q 2538 409 2786 701 
Q 3034 994 3034 1497 
Q 3034 2003 2786 2293 
Q 2538 2584 2113 2584 
z
M 3366 4563 
L 3366 3988 
Q 3128 4100 2886 4159 
Q 2644 4219 2406 4219 
Q 1781 4219 1451 3797 
Q 1122 3375 1075 2522 
Q 1259 2794 1537 2939 
Q 1816 3084 2150 3084 
Q 2853 3084 3261 2657 
Q 3669 2231 3669 1497 
Q 3669 778 3244 343 
Q 2819 -91 2113 -91 
Q 1303 -91 875 529 
Q 447 1150 447 2328 
Q 447 3434 972 4092 
Q 1497 4750 2381 4750 
Q 2619 4750 2861 4703 
Q 3103 4656 3366 4563 
z
" transform="scale(0.015625)"/>
       </defs>
       <use xlink:href="#DejaVuSans-36"/>
      </g>
     </g>
    </g>
    <g id="xtick_8">
     <g id="line2d_8">
      <g>
       <use xlink:href="#m26cdadca17" x="299.1939" y="390.04" style="stroke: #000000; stroke-width: 0.8"/>
      </g>
     </g>
     <g id="text_8">
      <!-- 7 -->
      <g transform="translate(296.01265 404.638438) scale(0.1 -0.1)">
       <defs>
        <path id="DejaVuSans-37" d="M 525 4666 
L 3525 4666 
L 3525 4397 
L 1831 0 
L 1172 0 
L 2766 4134 
L 525 4134 
L 525 4666 
z
" transform="scale(0.015625)"/>
       </defs>
       <use xlink:href="#DejaVuSans-37"/>
      </g>
     </g>
    </g>
    <g id="xtick_9">
     <g id="line2d_9">
      <g>
       <use xlink:href="#m26cdadca17" x="332.668589" y="390.04" style="stroke: #000000; stroke-width: 0.8"/>
      </g>
     </g>
     <g id="text_9">
      <!-- 8 -->
      <g transform="translate(329.487339 404.638438) scale(0.1 -0.1)">
       <defs>
        <path id="DejaVuSans-38" d="M 2034 2216 
Q 1584 2216 1326 1975 
Q 1069 1734 1069 1313 
Q 1069 891 1326 650 
Q 1584 409 2034 409 
Q 2484 409 2743 651 
Q 3003 894 3003 1313 
Q 3003 1734 2745 1975 
Q 2488 2216 2034 2216 
z
M 1403 2484 
Q 997 2584 770 2862 
Q 544 3141 544 3541 
Q 544 4100 942 4425 
Q 1341 4750 2034 4750 
Q 2731 4750 3128 4425 
Q 3525 4100 3525 3541 
Q 3525 3141 3298 2862 
Q 3072 2584 2669 2484 
Q 3125 2378 3379 2068 
Q 3634 1759 3634 1313 
Q 3634 634 3220 271 
Q 2806 -91 2034 -91 
Q 1263 -91 848 271 
Q 434 634 434 1313 
Q 434 1759 690 2068 
Q 947 2378 1403 2484 
z
M 1172 3481 
Q 1172 3119 1398 2916 
Q 1625 2713 2034 2713 
Q 2441 2713 2670 2916 
Q 2900 3119 2900 3481 
Q 2900 3844 2670 4047 
Q 2441 4250 2034 4250 
Q 1625 4250 1398 4047 
Q 1172 3844 1172 3481 
z
" transform="scale(0.015625)"/>
       </defs>
       <use xlink:href="#DejaVuSans-38"/>
      </g>
     </g>
    </g>
    <g id="xtick_10">
     <g id="line2d_10">
      <g>
       <use xlink:href="#m26cdadca17" x="366.143278" y="390.04" style="stroke: #000000; stroke-width: 0.8"/>
      </g>
     </g>
     <g id="text_10">
      <!-- 9 -->
      <g transform="translate(362.962028 404.638438) scale(0.1 -0.1)">
       <defs>
        <path id="DejaVuSans-39" d="M 703 97 
L 703 672 
Q 941 559 1184 500 
Q 1428 441 1663 441 
Q 2288 441 2617 861 
Q 2947 1281 2994 2138 
Q 2813 1869 2534 1725 
Q 2256 1581 1919 1581 
Q 1219 1581 811 2004 
Q 403 2428 403 3163 
Q 403 3881 828 4315 
Q 1253 4750 1959 4750 
Q 2769 4750 3195 4129 
Q 3622 3509 3622 2328 
Q 3622 1225 3098 567 
Q 2575 -91 1691 -91 
Q 1453 -91 1209 -44 
Q 966 3 703 97 
z
M 1959 2075 
Q 2384 2075 2632 2365 
Q 2881 2656 2881 3163 
Q 2881 3666 2632 3958 
Q 2384 4250 1959 4250 
Q 1534 4250 1286 3958 
Q 1038 3666 1038 3163 
Q 1038 2656 1286 2365 
Q 1534 2075 1959 2075 
z
" transform="scale(0.015625)"/>
       </defs>
       <use xlink:href="#DejaVuSans-39"/>
      </g>
     </g>
    </g>
    <g id="xtick_11">
     <g id="line2d_11">
      <g>
       <use xlink:href="#m26cdadca17" x="399.617967" y="390.04" style="stroke: #000000; stroke-width: 0.8"/>
      </g>
     </g>
     <g id="text_11">
      <!-- 10 -->
      <g transform="translate(393.255467 404.638438) scale(0.1 -0.1)">
       <use xlink:href="#DejaVuSans-31"/>
       <use xlink:href="#DejaVuSans-30" x="63.623047"/>
      </g>
     </g>
    </g>
    <g id="xtick_12">
     <g id="line2d_12">
      <g>
       <use xlink:href="#m26cdadca17" x="433.092656" y="390.04" style="stroke: #000000; stroke-width: 0.8"/>
      </g>
     </g>
     <g id="text_12">
      <!-- 11 -->
      <g transform="translate(426.730156 404.638438) scale(0.1 -0.1)">
       <use xlink:href="#DejaVuSans-31"/>
       <use xlink:href="#DejaVuSans-31" x="63.623047"/>
      </g>
     </g>
    </g>
    <g id="xtick_13">
     <g id="line2d_13">
      <g>
       <use xlink:href="#m26cdadca17" x="466.567344" y="390.04" style="stroke: #000000; stroke-width: 0.8"/>
      </g>
     </g>
     <g id="text_13">
      <!-- 12 -->
      <g transform="translate(460.204844 404.638438) scale(0.1 -0.1)">
       <use xlink:href="#DejaVuSans-31"/>
       <use xlink:href="#DejaVuSans-32" x="63.623047"/>
      </g>
     </g>
    </g>
    <g id="xtick_14">
     <g id="line2d_14">
      <g>
       <use xlink:href="#m26cdadca17" x="500.042033" y="390.04" style="stroke: #000000; stroke-width: 0.8"/>
      </g>
     </g>
     <g id="text_14">
      <!-- 13 -->
      <g transform="translate(493.679533 404.638438) scale(0.1 -0.1)">
       <use xlink:href="#DejaVuSans-31"/>
       <use xlink:href="#DejaVuSans-33" x="63.623047"/>
      </g>
     </g>
    </g>
    <g id="xtick_15">
     <g id="line2d_15">
      <g>
       <use xlink:href="#m26cdadca17" x="533.516722" y="390.04" style="stroke: #000000; stroke-width: 0.8"/>
      </g>
     </g>
     <g id="text_15">
      <!-- 14 -->
      <g transform="translate(527.154222 404.638438) scale(0.1 -0.1)">
       <use xlink:href="#DejaVuSans-31"/>
       <use xlink:href="#DejaVuSans-34" x="63.623047"/>
      </g>
     </g>
    </g>
    <g id="xtick_16">
     <g id="line2d_16">
      <g>
       <use xlink:href="#m26cdadca17" x="566.991411" y="390.04" style="stroke: #000000; stroke-width: 0.8"/>
      </g>
     </g>
     <g id="text_16">
      <!-- 15 -->
      <g transform="translate(560.628911 404.638438) scale(0.1 -0.1)">
       <use xlink:href="#DejaVuSans-31"/>
       <use xlink:href="#DejaVuSans-35" x="63.623047"/>
      </g>
     </g>
    </g>
    <g id="xtick_17">
     <g id="line2d_17">
      <g>
       <use xlink:href="#m26cdadca17" x="600.4661" y="390.04" style="stroke: #000000; stroke-width: 0.8"/>
      </g>
     </g>
     <g id="text_17">
      <!-- 16 -->
      <g transform="translate(594.1036 404.638438) scale(0.1 -0.1)">
       <use xlink:href="#DejaVuSans-31"/>
       <use xlink:href="#DejaVuSans-36" x="63.623047"/>
      </g>
     </g>
    </g>
    <g id="xtick_18">
     <g id="line2d_18">
      <g>
       <use xlink:href="#m26cdadca17" x="633.940788" y="390.04" style="stroke: #000000; stroke-width: 0.8"/>
      </g>
     </g>
     <g id="text_18">
      <!-- 17 -->
      <g transform="translate(627.578288 404.638438) scale(0.1 -0.1)">
       <use xlink:href="#DejaVuSans-31"/>
       <use xlink:href="#DejaVuSans-37" x="63.623047"/>
      </g>
     </g>
    </g>
    <g id="xtick_19">
     <g id="line2d_19">
      <g>
       <use xlink:href="#m26cdadca17" x="667.415477" y="390.04" style="stroke: #000000; stroke-width: 0.8"/>
      </g>
     </g>
     <g id="text_19">
      <!-- 18 -->
      <g transform="translate(661.052977 404.638438) scale(0.1 -0.1)">
       <use xlink:href="#DejaVuSans-31"/>
       <use xlink:href="#DejaVuSans-38" x="63.623047"/>
      </g>
     </g>
    </g>
    <g id="xtick_20">
     <g id="line2d_20">
      <g>
       <use xlink:href="#m26cdadca17" x="700.890166" y="390.04" style="stroke: #000000; stroke-width: 0.8"/>
      </g>
     </g>
     <g id="text_20">
      <!-- 19 -->
      <g transform="translate(694.527666 404.638438) scale(0.1 -0.1)">
       <use xlink:href="#DejaVuSans-31"/>
       <use xlink:href="#DejaVuSans-39" x="63.623047"/>
      </g>
     </g>
    </g>
    <g id="xtick_21">
     <g id="line2d_21">
      <g>
       <use xlink:href="#m26cdadca17" x="734.364855" y="390.04" style="stroke: #000000; stroke-width: 0.8"/>
      </g>
     </g>
     <g id="text_21">
      <!-- 20 -->
      <g transform="translate(728.002355 404.638438) scale(0.1 -0.1)">
       <use xlink:href="#DejaVuSans-32"/>
       <use xlink:href="#DejaVuSans-30" x="63.623047"/>
      </g>
     </g>
    </g>
    <g id="xtick_22">
     <g id="line2d_22">
      <g>
       <use xlink:href="#m26cdadca17" x="767.839544" y="390.04" style="stroke: #000000; stroke-width: 0.8"/>
      </g>
     </g>
     <g id="text_22">
      <!-- 21 -->
      <g transform="translate(761.477044 404.638438) scale(0.1 -0.1)">
       <use xlink:href="#DejaVuSans-32"/>
       <use xlink:href="#DejaVuSans-31" x="63.623047"/>
      </g>
     </g>
    </g>
    <g id="xtick_23">
     <g id="line2d_23">
      <g>
       <use xlink:href="#m26cdadca17" x="801.314232" y="390.04" style="stroke: #000000; stroke-width: 0.8"/>
      </g>
     </g>
     <g id="text_23">
      <!-- 22 -->
      <g transform="translate(794.951732 404.638438) scale(0.1 -0.1)">
       <use xlink:href="#DejaVuSans-32"/>
       <use xlink:href="#DejaVuSans-32" x="63.623047"/>
      </g>
     </g>
    </g>
    <g id="xtick_24">
     <g id="line2d_24">
      <g>
       <use xlink:href="#m26cdadca17" x="834.788921" y="390.04" style="stroke: #000000; stroke-width: 0.8"/>
      </g>
     </g>
     <g id="text_24">
      <!-- 23 -->
      <g transform="translate(828.426421 404.638438) scale(0.1 -0.1)">
       <use xlink:href="#DejaVuSans-32"/>
       <use xlink:href="#DejaVuSans-33" x="63.623047"/>
      </g>
     </g>
    </g>
    <g id="text_25">
     <!-- Hodina dne -->
     <g transform="translate(421.205781 418.316562) scale(0.1 -0.1)">
      <defs>
       <path id="DejaVuSans-48" d="M 628 4666 
L 1259 4666 
L 1259 2753 
L 3553 2753 
L 3553 4666 
L 4184 4666 
L 4184 0 
L 3553 0 
L 3553 2222 
L 1259 2222 
L 1259 0 
L 628 0 
L 628 4666 
z
" transform="scale(0.015625)"/>
       <path id="DejaVuSans-6f" d="M 1959 3097 
Q 1497 3097 1228 2736 
Q 959 2375 959 1747 
Q 959 1119 1226 758 
Q 1494 397 1959 397 
Q 2419 397 2687 759 
Q 2956 1122 2956 1747 
Q 2956 2369 2687 2733 
Q 2419 3097 1959 3097 
z
M 1959 3584 
Q 2709 3584 3137 3096 
Q 3566 2609 3566 1747 
Q 3566 888 3137 398 
Q 2709 -91 1959 -91 
Q 1206 -91 779 398 
Q 353 888 353 1747 
Q 353 2609 779 3096 
Q 1206 3584 1959 3584 
z
" transform="scale(0.015625)"/>
       <path id="DejaVuSans-64" d="M 2906 2969 
L 2906 4863 
L 3481 4863 
L 3481 0 
L 2906 0 
L 2906 525 
Q 2725 213 2448 61 
Q 2172 -91 1784 -91 
Q 1150 -91 751 415 
Q 353 922 353 1747 
Q 353 2572 751 3078 
Q 1150 3584 1784 3584 
Q 2172 3584 2448 3432 
Q 2725 3281 2906 2969 
z
M 947 1747 
Q 947 1113 1208 752 
Q 1469 391 1925 391 
Q 2381 391 2643 752 
Q 2906 1113 2906 1747 
Q 2906 2381 2643 2742 
Q 2381 3103 1925 3103 
Q 1469 3103 1208 2742 
Q 947 2381 947 1747 
z
" transform="scale(0.015625)"/>
       <path id="DejaVuSans-69" d="M 603 3500 
L 1178 3500 
L 1178 0 
L 603 0 
L 603 3500 
z
M 603 4863 
L 1178 4863 
L 1178 4134 
L 603 4134 
L 603 4863 
z
" transform="scale(0.015625)"/>
       <path id="DejaVuSans-6e" d="M 3513 2113 
L 3513 0 
L 2938 0 
L 2938 2094 
Q 2938 2591 2744 2837 
Q 2550 3084 2163 3084 
Q 1697 3084 1428 2787 
Q 1159 2491 1159 1978 
L 1159 0 
L 581 0 
L 581 3500 
L 1159 3500 
L 1159 2956 
Q 1366 3272 1645 3428 
Q 1925 3584 2291 3584 
Q 2894 3584 3203 3211 
Q 3513 2838 3513 2113 
z
" transform="scale(0.015625)"/>
       <path id="DejaVuSans-61" d="M 2194 1759 
Q 1497 1759 1228 1600 
Q 959 1441 959 1056 
Q 959 750 1161 570 
Q 1363 391 1709 391 
Q 2188 391 2477 730 
Q 2766 1069 2766 1631 
L 2766 1759 
L 2194 1759 
z
M 3341 1997 
L 3341 0 
L 2766 0 
L 2766 531 
Q 2569 213 2275 61 
Q 1981 -91 1556 -91 
Q 1019 -91 701 211 
Q 384 513 384 1019 
Q 384 1609 779 1909 
Q 1175 2209 1959 2209 
L 2766 2209 
L 2766 2266 
Q 2766 2663 2505 2880 
Q 2244 3097 1772 3097 
Q 1472 3097 1187 3025 
Q 903 2953 641 2809 
L 641 3341 
Q 956 3463 1253 3523 
Q 1550 3584 1831 3584 
Q 2591 3584 2966 3190 
Q 3341 2797 3341 1997 
z
" transform="scale(0.015625)"/>
       <path id="DejaVuSans-20" transform="scale(0.015625)"/>
       <path id="DejaVuSans-65" d="M 3597 1894 
L 3597 1613 
L 953 1613 
Q 991 1019 1311 708 
Q 1631 397 2203 397 
Q 2534 397 2845 478 
Q 3156 559 3463 722 
L 3463 178 
Q 3153 47 2828 -22 
Q 2503 -91 2169 -91 
Q 1331 -91 842 396 
Q 353 884 353 1716 
Q 353 2575 817 3079 
Q 1281 3584 2069 3584 
Q 2775 3584 3186 3129 
Q 3597 2675 3597 1894 
z
M 3022 2063 
Q 3016 2534 2758 2815 
Q 2500 3097 2075 3097 
Q 1594 3097 1305 2825 
Q 1016 2553 972 2059 
L 3022 2063 
z
" transform="scale(0.015625)"/>
      </defs>
      <use xlink:href="#DejaVuSans-48"/>
      <use xlink:href="#DejaVuSans-6f" x="75.195312"/>
      <use xlink:href="#DejaVuSans-64" x="136.376953"/>
      <use xlink:href="#DejaVuSans-69" x="199.853516"/>
      <use xlink:href="#DejaVuSans-6e" x="227.636719"/>
      <use xlink:href="#DejaVuSans-61" x="291.015625"/>
      <use xlink:href="#DejaVuSans-20" x="352.294922"/>
      <use xlink:href="#DejaVuSans-64" x="384.082031"/>
      <use xlink:href="#DejaVuSans-6e" x="447.558594"/>
      <use xlink:href="#DejaVuSans-65" x="510.9375"/>
     </g>
    </g>
   </g>
   <g id="matplotlib.axis_2">
    <g id="ytick_1">
     <g id="line2d_25">
      <path d="M 46.46 390.04 
L 853.2 390.04 
" clip-path="url(#p0bb8a15970)" style="fill: none; stroke-dasharray: 2.96,1.28; stroke-dashoffset: 0; stroke: #b0b0b0; stroke-opacity: 0.7; stroke-width: 0.8"/>
     </g>
     <g id="line2d_26">
      <defs>
       <path id="m5b8714b764" d="M 0 0 
L -3.5 0 
" style="stroke: #000000; stroke-width: 0.8"/>
      </defs>
      <g>
       <use xlink:href="#m5b8714b764" x="46.46" y="390.04" style="stroke: #000000; stroke-width: 0.8"/>
      </g>
     </g>
     <g id="text_26">
      <!-- 0 -->
      <g transform="translate(33.0975 393.839219) scale(0.1 -0.1)">
       <use xlink:href="#DejaVuSans-30"/>
      </g>
     </g>
    </g>
    <g id="ytick_2">
     <g id="line2d_27">
      <path d="M 46.46 316.957474 
L 853.2 316.957474 
" clip-path="url(#p0bb8a15970)" style="fill: none; stroke-dasharray: 2.96,1.28; stroke-dashoffset: 0; stroke: #b0b0b0; stroke-opacity: 0.7; stroke-width: 0.8"/>
     </g>
     <g id="line2d_28">
      <g>
       <use xlink:href="#m5b8714b764" x="46.46" y="316.957474" style="stroke: #000000; stroke-width: 0.8"/>
      </g>
     </g>
     <g id="text_27">
      <!-- 10 -->
      <g transform="translate(26.735 320.756692) scale(0.1 -0.1)">
       <use xlink:href="#DejaVuSans-31"/>
       <use xlink:href="#DejaVuSans-30" x="63.623047"/>
      </g>
     </g>
    </g>
    <g id="ytick_3">
     <g id="line2d_29">
      <path d="M 46.46 243.874947 
L 853.2 243.874947 
" clip-path="url(#p0bb8a15970)" style="fill: none; stroke-dasharray: 2.96,1.28; stroke-dashoffset: 0; stroke: #b0b0b0; stroke-opacity: 0.7; stroke-width: 0.8"/>
     </g>
     <g id="line2d_30">
      <g>
       <use xlink:href="#m5b8714b764" x="46.46" y="243.874947" style="stroke: #000000; stroke-width: 0.8"/>
      </g>
     </g>
     <g id="text_28">
      <!-- 20 -->
      <g transform="translate(26.735 247.674166) scale(0.1 -0.1)">
       <use xlink:href="#DejaVuSans-32"/>
       <use xlink:href="#DejaVuSans-30" x="63.623047"/>
      </g>
     </g>
    </g>
    <g id="ytick_4">
     <g id="line2d_31">
      <path d="M 46.46 170.792421 
L 853.2 170.792421 
" clip-path="url(#p0bb8a15970)" style="fill: none; stroke-dasharray: 2.96,1.28; stroke-dashoffset: 0; stroke: #b0b0b0; stroke-opacity: 0.7; stroke-width: 0.8"/>
     </g>
     <g id="line2d_32">
      <g>
       <use xlink:href="#m5b8714b764" x="46.46" y="170.792421" style="stroke: #000000; stroke-width: 0.8"/>
      </g>
     </g>
     <g id="text_29">
      <!-- 30 -->
      <g transform="translate(26.735 174.59164) scale(0.1 -0.1)">
       <use xlink:href="#DejaVuSans-33"/>
       <use xlink:href="#DejaVuSans-30" x="63.623047"/>
      </g>
     </g>
    </g>
    <g id="ytick_5">
     <g id="line2d_33">
      <path d="M 46.46 97.709895 
L 853.2 97.709895 
" clip-path="url(#p0bb8a15970)" style="fill: none; stroke-dasharray: 2.96,1.28; stroke-dashoffset: 0; stroke: #b0b0b0; stroke-opacity: 0.7; stroke-width: 0.8"/>
     </g>
     <g id="line2d_34">
      <g>
       <use xlink:href="#m5b8714b764" x="46.46" y="97.709895" style="stroke: #000000; stroke-width: 0.8"/>
      </g>
     </g>
     <g id="text_30">
      <!-- 40 -->
      <g transform="translate(26.735 101.509113) scale(0.1 -0.1)">
       <use xlink:href="#DejaVuSans-34"/>
       <use xlink:href="#DejaVuSans-30" x="63.623047"/>
      </g>
     </g>
    </g>
    <g id="text_31">
     <!-- as strven (hodiny) -->
     <g transform="translate(20.655313 263.827812) rotate(-90) scale(0.1 -0.1)">
      <defs>
       <path id="DejaVuSans-10c" d="M 4122 4306 
L 4122 3641 
Q 3803 3938 3442 4084 
Q 3081 4231 2675 4231 
Q 1875 4231 1450 3742 
Q 1025 3253 1025 2328 
Q 1025 1406 1450 917 
Q 1875 428 2675 428 
Q 3081 428 3442 575 
Q 3803 722 4122 1019 
L 4122 359 
Q 3791 134 3420 21 
Q 3050 -91 2638 -91 
Q 1578 -91 968 557 
Q 359 1206 359 2328 
Q 359 3453 968 4101 
Q 1578 4750 2638 4750 
Q 3056 4750 3426 4639 
Q 3797 4528 4122 4306 
z
M 2247 5110 
L 1588 5941 
L 2022 5941 
L 2541 5385 
L 3059 5941 
L 3494 5941 
L 2834 5110 
L 2247 5110 
z
" transform="scale(0.015625)"/>
       <path id="DejaVuSans-73" d="M 2834 3397 
L 2834 2853 
Q 2591 2978 2328 3040 
Q 2066 3103 1784 3103 
Q 1356 3103 1142 2972 
Q 928 2841 928 2578 
Q 928 2378 1081 2264 
Q 1234 2150 1697 2047 
L 1894 2003 
Q 2506 1872 2764 1633 
Q 3022 1394 3022 966 
Q 3022 478 2636 193 
Q 2250 -91 1575 -91 
Q 1294 -91 989 -36 
Q 684 19 347 128 
L 347 722 
Q 666 556 975 473 
Q 1284 391 1588 391 
Q 1994 391 2212 530 
Q 2431 669 2431 922 
Q 2431 1156 2273 1281 
Q 2116 1406 1581 1522 
L 1381 1569 
Q 847 1681 609 1914 
Q 372 2147 372 2553 
Q 372 3047 722 3315 
Q 1072 3584 1716 3584 
Q 2034 3584 2315 3537 
Q 2597 3491 2834 3397 
z
" transform="scale(0.015625)"/>
       <path id="DejaVuSans-74" d="M 1172 4494 
L 1172 3500 
L 2356 3500 
L 2356 3053 
L 1172 3053 
L 1172 1153 
Q 1172 725 1289 603 
Q 1406 481 1766 481 
L 2356 481 
L 2356 0 
L 1766 0 
Q 1100 0 847 248 
Q 594 497 594 1153 
L 594 3053 
L 172 3053 
L 172 3500 
L 594 3500 
L 594 4494 
L 1172 4494 
z
" transform="scale(0.015625)"/>
       <path id="DejaVuSans-72" d="M 2631 2963 
Q 2534 3019 2420 3045 
Q 2306 3072 2169 3072 
Q 1681 3072 1420 2755 
Q 1159 2438 1159 1844 
L 1159 0 
L 581 0 
L 581 3500 
L 1159 3500 
L 1159 2956 
Q 1341 3275 1631 3429 
Q 1922 3584 2338 3584 
Q 2397 3584 2469 3576 
Q 2541 3569 2628 3553 
L 2631 2963 
z
" transform="scale(0.015625)"/>
       <path id="DejaVuSans-e1" d="M 2194 1759 
Q 1497 1759 1228 1600 
Q 959 1441 959 1056 
Q 959 750 1161 570 
Q 1363 391 1709 391 
Q 2188 391 2477 730 
Q 2766 1069 2766 1631 
L 2766 1759 
L 2194 1759 
z
M 3341 1997 
L 3341 0 
L 2766 0 
L 2766 531 
Q 2569 213 2275 61 
Q 1981 -91 1556 -91 
Q 1019 -91 701 211 
Q 384 513 384 1019 
Q 384 1609 779 1909 
Q 1175 2209 1959 2209 
L 2766 2209 
L 2766 2266 
Q 2766 2663 2505 2880 
Q 2244 3097 1772 3097 
Q 1472 3097 1187 3025 
Q 903 2953 641 2809 
L 641 3341 
Q 956 3463 1253 3523 
Q 1550 3584 1831 3584 
Q 2591 3584 2966 3190 
Q 3341 2797 3341 1997 
z
M 2291 5119 
L 2913 5119 
L 1894 3944 
L 1416 3944 
L 2291 5119 
z
" transform="scale(0.015625)"/>
       <path id="DejaVuSans-76" d="M 191 3500 
L 800 3500 
L 1894 563 
L 2988 3500 
L 3597 3500 
L 2284 0 
L 1503 0 
L 191 3500 
z
" transform="scale(0.015625)"/>
       <path id="DejaVuSans-fd" d="M 2059 -325 
Q 1816 -950 1584 -1140 
Q 1353 -1331 966 -1331 
L 506 -1331 
L 506 -850 
L 844 -850 
Q 1081 -850 1212 -737 
Q 1344 -625 1503 -206 
L 1606 56 
L 191 3500 
L 800 3500 
L 1894 763 
L 2988 3500 
L 3597 3500 
L 2059 -325 
z
M 2328 5119 
L 2950 5119 
L 1931 3944 
L 1453 3944 
L 2328 5119 
z
" transform="scale(0.015625)"/>
       <path id="DejaVuSans-28" d="M 1984 4856 
Q 1566 4138 1362 3434 
Q 1159 2731 1159 2009 
Q 1159 1288 1364 580 
Q 1569 -128 1984 -844 
L 1484 -844 
Q 1016 -109 783 600 
Q 550 1309 550 2009 
Q 550 2706 781 3412 
Q 1013 4119 1484 4856 
L 1984 4856 
z
" transform="scale(0.015625)"/>
       <path id="DejaVuSans-68" d="M 3513 2113 
L 3513 0 
L 2938 0 
L 2938 2094 
Q 2938 2591 2744 2837 
Q 2550 3084 2163 3084 
Q 1697 3084 1428 2787 
Q 1159 2491 1159 1978 
L 1159 0 
L 581 0 
L 581 4863 
L 1159 4863 
L 1159 2956 
Q 1366 3272 1645 3428 
Q 1925 3584 2291 3584 
Q 2894 3584 3203 3211 
Q 3513 2838 3513 2113 
z
" transform="scale(0.015625)"/>
       <path id="DejaVuSans-79" d="M 2059 -325 
Q 1816 -950 1584 -1140 
Q 1353 -1331 966 -1331 
L 506 -1331 
L 506 -850 
L 844 -850 
Q 1081 -850 1212 -737 
Q 1344 -625 1503 -206 
L 1606 56 
L 191 3500 
L 800 3500 
L 1894 763 
L 2988 3500 
L 3597 3500 
L 2059 -325 
z
" transform="scale(0.015625)"/>
       <path id="DejaVuSans-29" d="M 513 4856 
L 1013 4856 
Q 1481 4119 1714 3412 
Q 1947 2706 1947 2009 
Q 1947 1309 1714 600 
Q 1481 -109 1013 -844 
L 513 -844 
Q 928 -128 1133 580 
Q 1338 1288 1338 2009 
Q 1338 2731 1133 3434 
Q 928 4138 513 4856 
z
" transform="scale(0.015625)"/>
      </defs>
      <use xlink:href="#DejaVuSans-10c"/>
      <use xlink:href="#DejaVuSans-61" x="69.824219"/>
      <use xlink:href="#DejaVuSans-73" x="131.103516"/>
      <use xlink:href="#DejaVuSans-20" x="183.203125"/>
      <use xlink:href="#DejaVuSans-73" x="214.990234"/>
      <use xlink:href="#DejaVuSans-74" x="267.089844"/>
      <use xlink:href="#DejaVuSans-72" x="306.298828"/>
      <use xlink:href="#DejaVuSans-e1" x="347.412109"/>
      <use xlink:href="#DejaVuSans-76" x="408.691406"/>
      <use xlink:href="#DejaVuSans-65" x="467.871094"/>
      <use xlink:href="#DejaVuSans-6e" x="529.394531"/>
      <use xlink:href="#DejaVuSans-fd" x="592.773438"/>
      <use xlink:href="#DejaVuSans-20" x="651.953125"/>
      <use xlink:href="#DejaVuSans-28" x="683.740234"/>
      <use xlink:href="#DejaVuSans-68" x="722.753906"/>
      <use xlink:href="#DejaVuSans-6f" x="786.132812"/>
      <use xlink:href="#DejaVuSans-64" x="847.314453"/>
      <use xlink:href="#DejaVuSans-69" x="910.791016"/>
      <use xlink:href="#DejaVuSans-6e" x="938.574219"/>
      <use xlink:href="#DejaVuSans-79" x="1001.953125"/>
      <use xlink:href="#DejaVuSans-29" x="1061.132812"/>
     </g>
    </g>
   </g>
   <g id="line2d_35">
    <path d="M 46.46 363.529116 
L 853.2 363.529116 
" clip-path="url(#p0bb8a15970)" style="fill: none; stroke-dasharray: 5.55,2.4; stroke-dashoffset: 0; stroke: #ff0000; stroke-width: 1.5"/>
   </g>
   <g id="patch_147">
    <path d="M 46.46 390.04 
L 46.46 27.6 
" style="fill: none; stroke: #000000; stroke-width: 0.8; stroke-linejoin: miter; stroke-linecap: square"/>
   </g>
   <g id="patch_148">
    <path d="M 853.2 390.04 
L 853.2 27.6 
" style="fill: none; stroke: #000000; stroke-width: 0.8; stroke-linejoin: miter; stroke-linecap: square"/>
   </g>
   <g id="patch_149">
    <path d="M 46.46 390.04 
L 853.2 390.04 
" style="fill: none; stroke: #000000; stroke-width: 0.8; stroke-linejoin: miter; stroke-linecap: square"/>
   </g>
   <g id="patch_150">
    <path d="M 46.46 27.6 
L 853.2 27.6 
" style="fill: none; stroke: #000000; stroke-width: 0.8; stroke-linejoin: miter; stroke-linecap: square"/>
   </g>
   <g id="text_32">
    <!-- asov distribuce aktivit podle hodin -->
    <g transform="translate(338.480313 21.6) scale(0.12 -0.12)">
     <defs>
      <path id="DejaVuSans-62" d="M 3116 1747 
Q 3116 2381 2855 2742 
Q 2594 3103 2138 3103 
Q 1681 3103 1420 2742 
Q 1159 2381 1159 1747 
Q 1159 1113 1420 752 
Q 1681 391 2138 391 
Q 2594 391 2855 752 
Q 3116 1113 3116 1747 
z
M 1159 2969 
Q 1341 3281 1617 3432 
Q 1894 3584 2278 3584 
Q 2916 3584 3314 3078 
Q 3713 2572 3713 1747 
Q 3713 922 3314 415 
Q 2916 -91 2278 -91 
Q 1894 -91 1617 61 
Q 1341 213 1159 525 
L 1159 0 
L 581 0 
L 581 4863 
L 1159 4863 
L 1159 2969 
z
" transform="scale(0.015625)"/>
      <path id="DejaVuSans-75" d="M 544 1381 
L 544 3500 
L 1119 3500 
L 1119 1403 
Q 1119 906 1312 657 
Q 1506 409 1894 409 
Q 2359 409 2629 706 
Q 2900 1003 2900 1516 
L 2900 3500 
L 3475 3500 
L 3475 0 
L 2900 0 
L 2900 538 
Q 2691 219 2414 64 
Q 2138 -91 1772 -91 
Q 1169 -91 856 284 
Q 544 659 544 1381 
z
M 1991 3584 
L 1991 3584 
z
" transform="scale(0.015625)"/>
      <path id="DejaVuSans-63" d="M 3122 3366 
L 3122 2828 
Q 2878 2963 2633 3030 
Q 2388 3097 2138 3097 
Q 1578 3097 1268 2742 
Q 959 2388 959 1747 
Q 959 1106 1268 751 
Q 1578 397 2138 397 
Q 2388 397 2633 464 
Q 2878 531 3122 666 
L 3122 134 
Q 2881 22 2623 -34 
Q 2366 -91 2075 -91 
Q 1284 -91 818 406 
Q 353 903 353 1747 
Q 353 2603 823 3093 
Q 1294 3584 2113 3584 
Q 2378 3584 2631 3529 
Q 2884 3475 3122 3366 
z
" transform="scale(0.015625)"/>
      <path id="DejaVuSans-6b" d="M 581 4863 
L 1159 4863 
L 1159 1991 
L 2875 3500 
L 3609 3500 
L 1753 1863 
L 3688 0 
L 2938 0 
L 1159 1709 
L 1159 0 
L 581 0 
L 581 4863 
z
" transform="scale(0.015625)"/>
      <path id="DejaVuSans-70" d="M 1159 525 
L 1159 -1331 
L 581 -1331 
L 581 3500 
L 1159 3500 
L 1159 2969 
Q 1341 3281 1617 3432 
Q 1894 3584 2278 3584 
Q 2916 3584 3314 3078 
Q 3713 2572 3713 1747 
Q 3713 922 3314 415 
Q 2916 -91 2278 -91 
Q 1894 -91 1617 61 
Q 1341 213 1159 525 
z
M 3116 1747 
Q 3116 2381 2855 2742 
Q 2594 3103 2138 3103 
Q 1681 3103 1420 2742 
Q 1159 2381 1159 1747 
Q 1159 1113 1420 752 
Q 1681 391 2138 391 
Q 2594 391 2855 752 
Q 3116 1113 3116 1747 
z
" transform="scale(0.015625)"/>
      <path id="DejaVuSans-6c" d="M 603 4863 
L 1178 4863 
L 1178 0 
L 603 0 
L 603 4863 
z
" transform="scale(0.015625)"/>
     </defs>
     <use xlink:href="#DejaVuSans-10c"/>
     <use xlink:href="#DejaVuSans-61" x="69.824219"/>
     <use xlink:href="#DejaVuSans-73" x="131.103516"/>
     <use xlink:href="#DejaVuSans-6f" x="183.203125"/>
     <use xlink:href="#DejaVuSans-76" x="244.384766"/>
     <use xlink:href="#DejaVuSans-e1" x="303.564453"/>
     <use xlink:href="#DejaVuSans-20" x="364.84375"/>
     <use xlink:href="#DejaVuSans-64" x="396.630859"/>
     <use xlink:href="#DejaVuSans-69" x="460.107422"/>
     <use xlink:href="#DejaVuSans-73" x="487.890625"/>
     <use xlink:href="#DejaVuSans-74" x="539.990234"/>
     <use xlink:href="#DejaVuSans-72" x="579.199219"/>
     <use xlink:href="#DejaVuSans-69" x="620.3125"/>
     <use xlink:href="#DejaVuSans-62" x="648.095703"/>
     <use xlink:href="#DejaVuSans-75" x="711.572266"/>
     <use xlink:href="#DejaVuSans-63" x="774.951172"/>
     <use xlink:href="#DejaVuSans-65" x="829.931641"/>
     <use xlink:href="#DejaVuSans-20" x="891.455078"/>
     <use xlink:href="#DejaVuSans-61" x="923.242188"/>
     <use xlink:href="#DejaVuSans-6b" x="984.521484"/>
     <use xlink:href="#DejaVuSans-74" x="1042.431641"/>
     <use xlink:href="#DejaVuSans-69" x="1081.640625"/>
     <use xlink:href="#DejaVuSans-76" x="1109.423828"/>
     <use xlink:href="#DejaVuSans-69" x="1168.603516"/>
     <use xlink:href="#DejaVuSans-74" x="1196.386719"/>
     <use xlink:href="#DejaVuSans-20" x="1235.595703"/>
     <use xlink:href="#DejaVuSans-70" x="1267.382812"/>
     <use xlink:href="#DejaVuSans-6f" x="1330.859375"/>
     <use xlink:href="#DejaVuSans-64" x="1392.041016"/>
     <use xlink:href="#DejaVuSans-6c" x="1455.517578"/>
     <use xlink:href="#DejaVuSans-65" x="1483.300781"/>
     <use xlink:href="#DejaVuSans-20" x="1544.824219"/>
     <use xlink:href="#DejaVuSans-68" x="1576.611328"/>
     <use xlink:href="#DejaVuSans-6f" x="1639.990234"/>
     <use xlink:href="#DejaVuSans-64" x="1701.171875"/>
     <use xlink:href="#DejaVuSans-69" x="1764.648438"/>
     <use xlink:href="#DejaVuSans-6e" x="1792.431641"/>
    </g>
   </g>
   <g id="legend_1">
    <g id="patch_151">
     <path d="M 53.46 153.025 
L 121.767813 153.025 
Q 123.767813 153.025 123.767813 151.025 
L 123.767813 34.6 
Q 123.767813 32.6 121.767813 32.6 
L 53.46 32.6 
Q 51.46 32.6 51.46 34.6 
L 51.46 151.025 
Q 51.46 153.025 53.46 153.025 
z
" style="fill: #ffffff; opacity: 0.8; stroke: #cccccc; stroke-linejoin: miter"/>
    </g>
    <g id="text_33">
     <!-- Aktivity -->
     <g transform="translate(68.681094 44.198438) scale(0.1 -0.1)">
      <defs>
       <path id="DejaVuSans-41" d="M 2188 4044 
L 1331 1722 
L 3047 1722 
L 2188 4044 
z
M 1831 4666 
L 2547 4666 
L 4325 0 
L 3669 0 
L 3244 1197 
L 1141 1197 
L 716 0 
L 50 0 
L 1831 4666 
z
" transform="scale(0.015625)"/>
      </defs>
      <use xlink:href="#DejaVuSans-41"/>
      <use xlink:href="#DejaVuSans-6b" x="68.408203"/>
      <use xlink:href="#DejaVuSans-74" x="126.318359"/>
      <use xlink:href="#DejaVuSans-69" x="165.527344"/>
      <use xlink:href="#DejaVuSans-76" x="193.310547"/>
      <use xlink:href="#DejaVuSans-69" x="252.490234"/>
      <use xlink:href="#DejaVuSans-74" x="280.273438"/>
      <use xlink:href="#DejaVuSans-79" x="319.482422"/>
     </g>
    </g>
    <g id="line2d_36">
     <path d="M 55.46 55.376563 
L 65.46 55.376563 
L 75.46 55.376563 
" style="fill: none; stroke-dasharray: 5.55,2.4; stroke-dashoffset: 0; stroke: #ff0000; stroke-width: 1.5"/>
    </g>
    <g id="text_34">
     <!-- Prmr -->
     <g transform="translate(83.46 58.876563) scale(0.1 -0.1)">
      <defs>
       <path id="DejaVuSans-50" d="M 1259 4147 
L 1259 2394 
L 2053 2394 
Q 2494 2394 2734 2622 
Q 2975 2850 2975 3272 
Q 2975 3691 2734 3919 
Q 2494 4147 2053 4147 
L 1259 4147 
z
M 628 4666 
L 2053 4666 
Q 2838 4666 3239 4311 
Q 3641 3956 3641 3272 
Q 3641 2581 3239 2228 
Q 2838 1875 2053 1875 
L 1259 1875 
L 1259 0 
L 628 0 
L 628 4666 
z
" transform="scale(0.015625)"/>
       <path id="DejaVuSans-16f" d="M 544 1381 
L 544 3500 
L 1119 3500 
L 1119 1403 
Q 1119 906 1312 657 
Q 1506 409 1894 409 
Q 2359 409 2629 706 
Q 2900 1003 2900 1516 
L 2900 3500 
L 3475 3500 
L 3475 0 
L 2900 0 
L 2900 538 
Q 2691 219 2414 64 
Q 2138 -91 1772 -91 
Q 1169 -91 856 284 
Q 544 659 544 1381 
z
M 1991 3584 
L 1991 3584 
z
M 2463 4575 
Q 2463 4771 2325 4908 
Q 2188 5046 1988 5046 
Q 1784 5046 1648 4910 
Q 1513 4775 1513 4575 
Q 1513 4371 1648 4235 
Q 1784 4100 1988 4100 
Q 2188 4100 2325 4237 
Q 2463 4375 2463 4575 
z
M 2844 4575 
Q 2844 4215 2595 3965 
Q 2347 3715 1988 3715 
Q 1628 3715 1379 3965 
Q 1131 4215 1131 4575 
Q 1131 4934 1379 5182 
Q 1628 5431 1988 5431 
Q 2347 5431 2595 5182 
Q 2844 4934 2844 4575 
z
" transform="scale(0.015625)"/>
       <path id="DejaVuSans-6d" d="M 3328 2828 
Q 3544 3216 3844 3400 
Q 4144 3584 4550 3584 
Q 5097 3584 5394 3201 
Q 5691 2819 5691 2113 
L 5691 0 
L 5113 0 
L 5113 2094 
Q 5113 2597 4934 2840 
Q 4756 3084 4391 3084 
Q 3944 3084 3684 2787 
Q 3425 2491 3425 1978 
L 3425 0 
L 2847 0 
L 2847 2094 
Q 2847 2600 2669 2842 
Q 2491 3084 2119 3084 
Q 1678 3084 1418 2786 
Q 1159 2488 1159 1978 
L 1159 0 
L 581 0 
L 581 3500 
L 1159 3500 
L 1159 2956 
Q 1356 3278 1631 3431 
Q 1906 3584 2284 3584 
Q 2666 3584 2933 3390 
Q 3200 3197 3328 2828 
z
" transform="scale(0.015625)"/>
       <path id="DejaVuSans-11b" d="M 3597 1894 
L 3597 1613 
L 953 1613 
Q 991 1019 1311 708 
Q 1631 397 2203 397 
Q 2534 397 2845 478 
Q 3156 559 3463 722 
L 3463 178 
Q 3153 47 2828 -22 
Q 2503 -91 2169 -91 
Q 1331 -91 842 396 
Q 353 884 353 1716 
Q 353 2575 817 3079 
Q 1281 3584 2069 3584 
Q 2775 3584 3186 3129 
Q 3597 2675 3597 1894 
z
M 3022 2063 
Q 3016 2534 2758 2815 
Q 2500 3097 2075 3097 
Q 1594 3097 1305 2825 
Q 1016 2553 972 2059 
L 3022 2063 
z
M 1831 3928 
L 1066 5103 
L 1500 5103 
L 2063 4337 
L 2625 5103 
L 3059 5103 
L 2294 3928 
L 1831 3928 
z
" transform="scale(0.015625)"/>
      </defs>
      <use xlink:href="#DejaVuSans-50"/>
      <use xlink:href="#DejaVuSans-72" x="58.552734"/>
      <use xlink:href="#DejaVuSans-16f" x="99.666016"/>
      <use xlink:href="#DejaVuSans-6d" x="163.044922"/>
      <use xlink:href="#DejaVuSans-11b" x="260.457031"/>
      <use xlink:href="#DejaVuSans-72" x="321.980469"/>
     </g>
    </g>
    <g id="patch_152">
     <path d="M 55.46 73.554688 
L 75.46 73.554688 
L 75.46 66.554688 
L 55.46 66.554688 
z
" style="fill: #1f77b4"/>
    </g>
    <g id="text_35">
     <!-- sui -->
     <g transform="translate(83.46 73.554688) scale(0.1 -0.1)">
      <use xlink:href="#DejaVuSans-73"/>
      <use xlink:href="#DejaVuSans-75" x="52.099609"/>
      <use xlink:href="#DejaVuSans-69" x="115.478516"/>
     </g>
    </g>
    <g id="patch_153">
     <path d="M 55.46 88.232813 
L 75.46 88.232813 
L 75.46 81.232813 
L 55.46 81.232813 
z
" style="fill: #2ca02c"/>
    </g>
    <g id="text_36">
     <!-- msp -->
     <g transform="translate(83.46 88.232813) scale(0.1 -0.1)">
      <use xlink:href="#DejaVuSans-6d"/>
      <use xlink:href="#DejaVuSans-73" x="97.412109"/>
      <use xlink:href="#DejaVuSans-70" x="149.511719"/>
     </g>
    </g>
    <g id="patch_154">
     <path d="M 55.46 102.910938 
L 75.46 102.910938 
L 75.46 95.910938 
L 55.46 95.910938 
z
" style="fill: #9467bd"/>
    </g>
    <g id="text_37">
     <!-- upa -->
     <g transform="translate(83.46 102.910938) scale(0.1 -0.1)">
      <use xlink:href="#DejaVuSans-75"/>
      <use xlink:href="#DejaVuSans-70" x="63.378906"/>
      <use xlink:href="#DejaVuSans-61" x="126.855469"/>
     </g>
    </g>
    <g id="patch_155">
     <path d="M 55.46 117.589063 
L 75.46 117.589063 
L 75.46 110.589063 
L 55.46 110.589063 
z
" style="fill: #e377c2"/>
    </g>
    <g id="text_38">
     <!-- mg -->
     <g transform="translate(83.46 117.589063) scale(0.1 -0.1)">
      <defs>
       <path id="DejaVuSans-67" d="M 2906 1791 
Q 2906 2416 2648 2759 
Q 2391 3103 1925 3103 
Q 1463 3103 1205 2759 
Q 947 2416 947 1791 
Q 947 1169 1205 825 
Q 1463 481 1925 481 
Q 2391 481 2648 825 
Q 2906 1169 2906 1791 
z
M 3481 434 
Q 3481 -459 3084 -895 
Q 2688 -1331 1869 -1331 
Q 1566 -1331 1297 -1286 
Q 1028 -1241 775 -1147 
L 775 -588 
Q 1028 -725 1275 -790 
Q 1522 -856 1778 -856 
Q 2344 -856 2625 -561 
Q 2906 -266 2906 331 
L 2906 616 
Q 2728 306 2450 153 
Q 2172 0 1784 0 
Q 1141 0 747 490 
Q 353 981 353 1791 
Q 353 2603 747 3093 
Q 1141 3584 1784 3584 
Q 2172 3584 2450 3431 
Q 2728 3278 2906 2969 
L 2906 3500 
L 3481 3500 
L 3481 434 
z
" transform="scale(0.015625)"/>
      </defs>
      <use xlink:href="#DejaVuSans-6d"/>
      <use xlink:href="#DejaVuSans-67" x="97.412109"/>
     </g>
    </g>
    <g id="patch_156">
     <path d="M 55.46 132.267188 
L 75.46 132.267188 
L 75.46 125.267188 
L 55.46 125.267188 
z
" style="fill: #bcbd22"/>
    </g>
    <g id="text_39">
     <!-- TIN -->
     <g transform="translate(83.46 132.267188) scale(0.1 -0.1)">
      <defs>
       <path id="DejaVuSans-54" d="M -19 4666 
L 3928 4666 
L 3928 4134 
L 2272 4134 
L 2272 0 
L 1638 0 
L 1638 4134 
L -19 4134 
L -19 4666 
z
" transform="scale(0.015625)"/>
       <path id="DejaVuSans-49" d="M 628 4666 
L 1259 4666 
L 1259 0 
L 628 0 
L 628 4666 
z
" transform="scale(0.015625)"/>
       <path id="DejaVuSans-4e" d="M 628 4666 
L 1478 4666 
L 3547 763 
L 3547 4666 
L 4159 4666 
L 4159 0 
L 3309 0 
L 1241 3903 
L 1241 0 
L 628 0 
L 628 4666 
z
" transform="scale(0.015625)"/>
      </defs>
      <use xlink:href="#DejaVuSans-54"/>
      <use xlink:href="#DejaVuSans-49" x="61.083984"/>
      <use xlink:href="#DejaVuSans-4e" x="90.576172"/>
     </g>
    </g>
    <g id="patch_157">
     <path d="M 55.46 146.945313 
L 75.46 146.945313 
L 75.46 139.945313 
L 55.46 139.945313 
z
" style="fill: #17becf"/>
    </g>
    <g id="text_40">
     <!-- AVS -->
     <g transform="translate(83.46 146.945313) scale(0.1 -0.1)">
      <defs>
       <path id="DejaVuSans-56" d="M 1831 0 
L 50 4666 
L 709 4666 
L 2188 738 
L 3669 4666 
L 4325 4666 
L 2547 0 
L 1831 0 
z
" transform="scale(0.015625)"/>
       <path id="DejaVuSans-53" d="M 3425 4513 
L 3425 3897 
Q 3066 4069 2747 4153 
Q 2428 4238 2131 4238 
Q 1616 4238 1336 4038 
Q 1056 3838 1056 3469 
Q 1056 3159 1242 3001 
Q 1428 2844 1947 2747 
L 2328 2669 
Q 3034 2534 3370 2195 
Q 3706 1856 3706 1288 
Q 3706 609 3251 259 
Q 2797 -91 1919 -91 
Q 1588 -91 1214 -16 
Q 841 59 441 206 
L 441 856 
Q 825 641 1194 531 
Q 1563 422 1919 422 
Q 2459 422 2753 634 
Q 3047 847 3047 1241 
Q 3047 1584 2836 1778 
Q 2625 1972 2144 2069 
L 1759 2144 
Q 1053 2284 737 2584 
Q 422 2884 422 3419 
Q 422 4038 858 4394 
Q 1294 4750 2059 4750 
Q 2388 4750 2728 4690 
Q 3069 4631 3425 4513 
z
" transform="scale(0.015625)"/>
      </defs>
      <use xlink:href="#DejaVuSans-41"/>
      <use xlink:href="#DejaVuSans-56" x="62.033203"/>
      <use xlink:href="#DejaVuSans-53" x="130.441406"/>
     </g>
    </g>
   </g>
  </g>
 </g>
 <defs>
  <clipPath id="p0bb8a15970">
   <rect x="46.46" y="27.6" width="806.74" height="362.44"/>
  </clipPath>
 </defs>
</svg>
