<?xml version="1.0" encoding="utf-8" standalone="no"?>
<!DOCTYPE svg PUBLIC "-//W3C//DTD SVG 1.1//EN"
  "http://www.w3.org/Graphics/SVG/1.1/DTD/svg11.dtd">
<svg xmlns:xlink="http://www.w3.org/1999/xlink" width="864pt" height="432pt" viewBox="0 0 864 432" xmlns="http://www.w3.org/2000/svg" version="1.1">
 <metadata>
  <rdf:RDF xmlns:dc="http://purl.org/dc/elements/1.1/" xmlns:cc="http://creativecommons.org/ns#" xmlns:rdf="http://www.w3.org/1999/02/22-rdf-syntax-ns#">
   <cc:Work>
    <dc:type rdf:resource="http://purl.org/dc/dcmitype/StillImage"/>
    <dc:date>2025-02-18T02:09:49.359139</dc:date>
    <dc:format>image/svg+xml</dc:format>
    <dc:creator>
     <cc:Agent>
      <dc:title>Matplotlib v3.9.2, https://matplotlib.org/</dc:title>
     </cc:Agent>
    </dc:creator>
   </cc:Work>
  </rdf:RDF>
 </metadata>
 <defs>
  <style type="text/css">*{stroke-linejoin: round; stroke-linecap: butt}</style>
 </defs>
 <g id="figure_1">
  <g id="patch_1">
   <path d="M 0 432 
L 864 432 
L 864 0 
L 0 0 
z
" style="fill: #ffffff"/>
  </g>
  <g id="axes_1">
   <g id="patch_2">
    <path d="M 45.02 390.04 
L 853.2 390.04 
L 853.2 26.16 
L 45.02 26.16 
z
" style="fill: #ffffff"/>
   </g>
   <g id="matplotlib.axis_1">
    <g id="xtick_1">
     <g id="line2d_1">
      <defs>
       <path id="m14826d8679" d="M 0 0 
L 0 3.5 
" style="stroke: #000000; stroke-width: 0.8"/>
      </defs>
      <g>
       <use xlink:href="#m14826d8679" x="54.744091" y="390.04" style="stroke: #000000; stroke-width: 0.8"/>
      </g>
     </g>
     <g id="text_1">
      <!-- 2024-09-15 -->
      <g transform="translate(25.686278 404.638438) scale(0.1 -0.1)">
       <defs>
        <path id="DejaVuSans-32" d="M 1228 531 
L 3431 531 
L 3431 0 
L 469 0 
L 469 531 
Q 828 903 1448 1529 
Q 2069 2156 2228 2338 
Q 2531 2678 2651 2914 
Q 2772 3150 2772 3378 
Q 2772 3750 2511 3984 
Q 2250 4219 1831 4219 
Q 1534 4219 1204 4116 
Q 875 4013 500 3803 
L 500 4441 
Q 881 4594 1212 4672 
Q 1544 4750 1819 4750 
Q 2544 4750 2975 4387 
Q 3406 4025 3406 3419 
Q 3406 3131 3298 2873 
Q 3191 2616 2906 2266 
Q 2828 2175 2409 1742 
Q 1991 1309 1228 531 
z
" transform="scale(0.015625)"/>
        <path id="DejaVuSans-30" d="M 2034 4250 
Q 1547 4250 1301 3770 
Q 1056 3291 1056 2328 
Q 1056 1369 1301 889 
Q 1547 409 2034 409 
Q 2525 409 2770 889 
Q 3016 1369 3016 2328 
Q 3016 3291 2770 3770 
Q 2525 4250 2034 4250 
z
M 2034 4750 
Q 2819 4750 3233 4129 
Q 3647 3509 3647 2328 
Q 3647 1150 3233 529 
Q 2819 -91 2034 -91 
Q 1250 -91 836 529 
Q 422 1150 422 2328 
Q 422 3509 836 4129 
Q 1250 4750 2034 4750 
z
" transform="scale(0.015625)"/>
        <path id="DejaVuSans-34" d="M 2419 4116 
L 825 1625 
L 2419 1625 
L 2419 4116 
z
M 2253 4666 
L 3047 4666 
L 3047 1625 
L 3713 1625 
L 3713 1100 
L 3047 1100 
L 3047 0 
L 2419 0 
L 2419 1100 
L 313 1100 
L 313 1709 
L 2253 4666 
z
" transform="scale(0.015625)"/>
        <path id="DejaVuSans-2d" d="M 313 2009 
L 1997 2009 
L 1997 1497 
L 313 1497 
L 313 2009 
z
" transform="scale(0.015625)"/>
        <path id="DejaVuSans-39" d="M 703 97 
L 703 672 
Q 941 559 1184 500 
Q 1428 441 1663 441 
Q 2288 441 2617 861 
Q 2947 1281 2994 2138 
Q 2813 1869 2534 1725 
Q 2256 1581 1919 1581 
Q 1219 1581 811 2004 
Q 403 2428 403 3163 
Q 403 3881 828 4315 
Q 1253 4750 1959 4750 
Q 2769 4750 3195 4129 
Q 3622 3509 3622 2328 
Q 3622 1225 3098 567 
Q 2575 -91 1691 -91 
Q 1453 -91 1209 -44 
Q 966 3 703 97 
z
M 1959 2075 
Q 2384 2075 2632 2365 
Q 2881 2656 2881 3163 
Q 2881 3666 2632 3958 
Q 2384 4250 1959 4250 
Q 1534 4250 1286 3958 
Q 1038 3666 1038 3163 
Q 1038 2656 1286 2365 
Q 1534 2075 1959 2075 
z
" transform="scale(0.015625)"/>
        <path id="DejaVuSans-31" d="M 794 531 
L 1825 531 
L 1825 4091 
L 703 3866 
L 703 4441 
L 1819 4666 
L 2450 4666 
L 2450 531 
L 3481 531 
L 3481 0 
L 794 0 
L 794 531 
z
" transform="scale(0.015625)"/>
        <path id="DejaVuSans-35" d="M 691 4666 
L 3169 4666 
L 3169 4134 
L 1269 4134 
L 1269 2991 
Q 1406 3038 1543 3061 
Q 1681 3084 1819 3084 
Q 2600 3084 3056 2656 
Q 3513 2228 3513 1497 
Q 3513 744 3044 326 
Q 2575 -91 1722 -91 
Q 1428 -91 1123 -41 
Q 819 9 494 109 
L 494 744 
Q 775 591 1075 516 
Q 1375 441 1709 441 
Q 2250 441 2565 725 
Q 2881 1009 2881 1497 
Q 2881 1984 2565 2268 
Q 2250 2553 1709 2553 
Q 1456 2553 1204 2497 
Q 953 2441 691 2322 
L 691 4666 
z
" transform="scale(0.015625)"/>
       </defs>
       <use xlink:href="#DejaVuSans-32"/>
       <use xlink:href="#DejaVuSans-30" x="63.623047"/>
       <use xlink:href="#DejaVuSans-32" x="127.246094"/>
       <use xlink:href="#DejaVuSans-34" x="190.869141"/>
       <use xlink:href="#DejaVuSans-2d" x="254.492188"/>
       <use xlink:href="#DejaVuSans-30" x="290.576172"/>
       <use xlink:href="#DejaVuSans-39" x="354.199219"/>
       <use xlink:href="#DejaVuSans-2d" x="417.822266"/>
       <use xlink:href="#DejaVuSans-31" x="453.90625"/>
       <use xlink:href="#DejaVuSans-35" x="517.529297"/>
      </g>
     </g>
    </g>
    <g id="xtick_2">
     <g id="line2d_2">
      <g>
       <use xlink:href="#m14826d8679" x="141.180455" y="390.04" style="stroke: #000000; stroke-width: 0.8"/>
      </g>
     </g>
     <g id="text_2">
      <!-- 2024-10-01 -->
      <g transform="translate(112.122642 404.638438) scale(0.1 -0.1)">
       <use xlink:href="#DejaVuSans-32"/>
       <use xlink:href="#DejaVuSans-30" x="63.623047"/>
       <use xlink:href="#DejaVuSans-32" x="127.246094"/>
       <use xlink:href="#DejaVuSans-34" x="190.869141"/>
       <use xlink:href="#DejaVuSans-2d" x="254.492188"/>
       <use xlink:href="#DejaVuSans-31" x="290.576172"/>
       <use xlink:href="#DejaVuSans-30" x="354.199219"/>
       <use xlink:href="#DejaVuSans-2d" x="417.822266"/>
       <use xlink:href="#DejaVuSans-30" x="453.90625"/>
       <use xlink:href="#DejaVuSans-31" x="517.529297"/>
      </g>
     </g>
    </g>
    <g id="xtick_3">
     <g id="line2d_3">
      <g>
       <use xlink:href="#m14826d8679" x="216.812273" y="390.04" style="stroke: #000000; stroke-width: 0.8"/>
      </g>
     </g>
     <g id="text_3">
      <!-- 2024-10-15 -->
      <g transform="translate(187.75446 404.638438) scale(0.1 -0.1)">
       <use xlink:href="#DejaVuSans-32"/>
       <use xlink:href="#DejaVuSans-30" x="63.623047"/>
       <use xlink:href="#DejaVuSans-32" x="127.246094"/>
       <use xlink:href="#DejaVuSans-34" x="190.869141"/>
       <use xlink:href="#DejaVuSans-2d" x="254.492188"/>
       <use xlink:href="#DejaVuSans-31" x="290.576172"/>
       <use xlink:href="#DejaVuSans-30" x="354.199219"/>
       <use xlink:href="#DejaVuSans-2d" x="417.822266"/>
       <use xlink:href="#DejaVuSans-31" x="453.90625"/>
       <use xlink:href="#DejaVuSans-35" x="517.529297"/>
      </g>
     </g>
    </g>
    <g id="xtick_4">
     <g id="line2d_4">
      <g>
       <use xlink:href="#m14826d8679" x="308.650909" y="390.04" style="stroke: #000000; stroke-width: 0.8"/>
      </g>
     </g>
     <g id="text_4">
      <!-- 2024-11-01 -->
      <g transform="translate(279.593097 404.638438) scale(0.1 -0.1)">
       <use xlink:href="#DejaVuSans-32"/>
       <use xlink:href="#DejaVuSans-30" x="63.623047"/>
       <use xlink:href="#DejaVuSans-32" x="127.246094"/>
       <use xlink:href="#DejaVuSans-34" x="190.869141"/>
       <use xlink:href="#DejaVuSans-2d" x="254.492188"/>
       <use xlink:href="#DejaVuSans-31" x="290.576172"/>
       <use xlink:href="#DejaVuSans-31" x="354.199219"/>
       <use xlink:href="#DejaVuSans-2d" x="417.822266"/>
       <use xlink:href="#DejaVuSans-30" x="453.90625"/>
       <use xlink:href="#DejaVuSans-31" x="517.529297"/>
      </g>
     </g>
    </g>
    <g id="xtick_5">
     <g id="line2d_5">
      <g>
       <use xlink:href="#m14826d8679" x="384.282727" y="390.04" style="stroke: #000000; stroke-width: 0.8"/>
      </g>
     </g>
     <g id="text_5">
      <!-- 2024-11-15 -->
      <g transform="translate(355.224915 404.638438) scale(0.1 -0.1)">
       <use xlink:href="#DejaVuSans-32"/>
       <use xlink:href="#DejaVuSans-30" x="63.623047"/>
       <use xlink:href="#DejaVuSans-32" x="127.246094"/>
       <use xlink:href="#DejaVuSans-34" x="190.869141"/>
       <use xlink:href="#DejaVuSans-2d" x="254.492188"/>
       <use xlink:href="#DejaVuSans-31" x="290.576172"/>
       <use xlink:href="#DejaVuSans-31" x="354.199219"/>
       <use xlink:href="#DejaVuSans-2d" x="417.822266"/>
       <use xlink:href="#DejaVuSans-31" x="453.90625"/>
       <use xlink:href="#DejaVuSans-35" x="517.529297"/>
      </g>
     </g>
    </g>
    <g id="xtick_6">
     <g id="line2d_6">
      <g>
       <use xlink:href="#m14826d8679" x="470.719091" y="390.04" style="stroke: #000000; stroke-width: 0.8"/>
      </g>
     </g>
     <g id="text_6">
      <!-- 2024-12-01 -->
      <g transform="translate(441.661278 404.638438) scale(0.1 -0.1)">
       <use xlink:href="#DejaVuSans-32"/>
       <use xlink:href="#DejaVuSans-30" x="63.623047"/>
       <use xlink:href="#DejaVuSans-32" x="127.246094"/>
       <use xlink:href="#DejaVuSans-34" x="190.869141"/>
       <use xlink:href="#DejaVuSans-2d" x="254.492188"/>
       <use xlink:href="#DejaVuSans-31" x="290.576172"/>
       <use xlink:href="#DejaVuSans-32" x="354.199219"/>
       <use xlink:href="#DejaVuSans-2d" x="417.822266"/>
       <use xlink:href="#DejaVuSans-30" x="453.90625"/>
       <use xlink:href="#DejaVuSans-31" x="517.529297"/>
      </g>
     </g>
    </g>
    <g id="xtick_7">
     <g id="line2d_7">
      <g>
       <use xlink:href="#m14826d8679" x="546.350909" y="390.04" style="stroke: #000000; stroke-width: 0.8"/>
      </g>
     </g>
     <g id="text_7">
      <!-- 2024-12-15 -->
      <g transform="translate(517.293097 404.638438) scale(0.1 -0.1)">
       <use xlink:href="#DejaVuSans-32"/>
       <use xlink:href="#DejaVuSans-30" x="63.623047"/>
       <use xlink:href="#DejaVuSans-32" x="127.246094"/>
       <use xlink:href="#DejaVuSans-34" x="190.869141"/>
       <use xlink:href="#DejaVuSans-2d" x="254.492188"/>
       <use xlink:href="#DejaVuSans-31" x="290.576172"/>
       <use xlink:href="#DejaVuSans-32" x="354.199219"/>
       <use xlink:href="#DejaVuSans-2d" x="417.822266"/>
       <use xlink:href="#DejaVuSans-31" x="453.90625"/>
       <use xlink:href="#DejaVuSans-35" x="517.529297"/>
      </g>
     </g>
    </g>
    <g id="xtick_8">
     <g id="line2d_8">
      <g>
       <use xlink:href="#m14826d8679" x="638.189545" y="390.04" style="stroke: #000000; stroke-width: 0.8"/>
      </g>
     </g>
     <g id="text_8">
      <!-- 2025-01-01 -->
      <g transform="translate(609.131733 404.638438) scale(0.1 -0.1)">
       <use xlink:href="#DejaVuSans-32"/>
       <use xlink:href="#DejaVuSans-30" x="63.623047"/>
       <use xlink:href="#DejaVuSans-32" x="127.246094"/>
       <use xlink:href="#DejaVuSans-35" x="190.869141"/>
       <use xlink:href="#DejaVuSans-2d" x="254.492188"/>
       <use xlink:href="#DejaVuSans-30" x="290.576172"/>
       <use xlink:href="#DejaVuSans-31" x="354.199219"/>
       <use xlink:href="#DejaVuSans-2d" x="417.822266"/>
       <use xlink:href="#DejaVuSans-30" x="453.90625"/>
       <use xlink:href="#DejaVuSans-31" x="517.529297"/>
      </g>
     </g>
    </g>
    <g id="xtick_9">
     <g id="line2d_9">
      <g>
       <use xlink:href="#m14826d8679" x="713.821364" y="390.04" style="stroke: #000000; stroke-width: 0.8"/>
      </g>
     </g>
     <g id="text_9">
      <!-- 2025-01-15 -->
      <g transform="translate(684.763551 404.638438) scale(0.1 -0.1)">
       <use xlink:href="#DejaVuSans-32"/>
       <use xlink:href="#DejaVuSans-30" x="63.623047"/>
       <use xlink:href="#DejaVuSans-32" x="127.246094"/>
       <use xlink:href="#DejaVuSans-35" x="190.869141"/>
       <use xlink:href="#DejaVuSans-2d" x="254.492188"/>
       <use xlink:href="#DejaVuSans-30" x="290.576172"/>
       <use xlink:href="#DejaVuSans-31" x="354.199219"/>
       <use xlink:href="#DejaVuSans-2d" x="417.822266"/>
       <use xlink:href="#DejaVuSans-31" x="453.90625"/>
       <use xlink:href="#DejaVuSans-35" x="517.529297"/>
      </g>
     </g>
    </g>
    <g id="xtick_10">
     <g id="line2d_10">
      <g>
       <use xlink:href="#m14826d8679" x="805.66" y="390.04" style="stroke: #000000; stroke-width: 0.8"/>
      </g>
     </g>
     <g id="text_10">
      <!-- 2025-02-01 -->
      <g transform="translate(776.602188 404.638438) scale(0.1 -0.1)">
       <use xlink:href="#DejaVuSans-32"/>
       <use xlink:href="#DejaVuSans-30" x="63.623047"/>
       <use xlink:href="#DejaVuSans-32" x="127.246094"/>
       <use xlink:href="#DejaVuSans-35" x="190.869141"/>
       <use xlink:href="#DejaVuSans-2d" x="254.492188"/>
       <use xlink:href="#DejaVuSans-30" x="290.576172"/>
       <use xlink:href="#DejaVuSans-32" x="354.199219"/>
       <use xlink:href="#DejaVuSans-2d" x="417.822266"/>
       <use xlink:href="#DejaVuSans-30" x="453.90625"/>
       <use xlink:href="#DejaVuSans-31" x="517.529297"/>
      </g>
     </g>
    </g>
    <g id="text_11">
     <!-- Datum -->
     <g transform="translate(432.196719 418.316562) scale(0.1 -0.1)">
      <defs>
       <path id="DejaVuSans-44" d="M 1259 4147 
L 1259 519 
L 2022 519 
Q 2988 519 3436 956 
Q 3884 1394 3884 2338 
Q 3884 3275 3436 3711 
Q 2988 4147 2022 4147 
L 1259 4147 
z
M 628 4666 
L 1925 4666 
Q 3281 4666 3915 4102 
Q 4550 3538 4550 2338 
Q 4550 1131 3912 565 
Q 3275 0 1925 0 
L 628 0 
L 628 4666 
z
" transform="scale(0.015625)"/>
       <path id="DejaVuSans-61" d="M 2194 1759 
Q 1497 1759 1228 1600 
Q 959 1441 959 1056 
Q 959 750 1161 570 
Q 1363 391 1709 391 
Q 2188 391 2477 730 
Q 2766 1069 2766 1631 
L 2766 1759 
L 2194 1759 
z
M 3341 1997 
L 3341 0 
L 2766 0 
L 2766 531 
Q 2569 213 2275 61 
Q 1981 -91 1556 -91 
Q 1019 -91 701 211 
Q 384 513 384 1019 
Q 384 1609 779 1909 
Q 1175 2209 1959 2209 
L 2766 2209 
L 2766 2266 
Q 2766 2663 2505 2880 
Q 2244 3097 1772 3097 
Q 1472 3097 1187 3025 
Q 903 2953 641 2809 
L 641 3341 
Q 956 3463 1253 3523 
Q 1550 3584 1831 3584 
Q 2591 3584 2966 3190 
Q 3341 2797 3341 1997 
z
" transform="scale(0.015625)"/>
       <path id="DejaVuSans-74" d="M 1172 4494 
L 1172 3500 
L 2356 3500 
L 2356 3053 
L 1172 3053 
L 1172 1153 
Q 1172 725 1289 603 
Q 1406 481 1766 481 
L 2356 481 
L 2356 0 
L 1766 0 
Q 1100 0 847 248 
Q 594 497 594 1153 
L 594 3053 
L 172 3053 
L 172 3500 
L 594 3500 
L 594 4494 
L 1172 4494 
z
" transform="scale(0.015625)"/>
       <path id="DejaVuSans-75" d="M 544 1381 
L 544 3500 
L 1119 3500 
L 1119 1403 
Q 1119 906 1312 657 
Q 1506 409 1894 409 
Q 2359 409 2629 706 
Q 2900 1003 2900 1516 
L 2900 3500 
L 3475 3500 
L 3475 0 
L 2900 0 
L 2900 538 
Q 2691 219 2414 64 
Q 2138 -91 1772 -91 
Q 1169 -91 856 284 
Q 544 659 544 1381 
z
M 1991 3584 
L 1991 3584 
z
" transform="scale(0.015625)"/>
       <path id="DejaVuSans-6d" d="M 3328 2828 
Q 3544 3216 3844 3400 
Q 4144 3584 4550 3584 
Q 5097 3584 5394 3201 
Q 5691 2819 5691 2113 
L 5691 0 
L 5113 0 
L 5113 2094 
Q 5113 2597 4934 2840 
Q 4756 3084 4391 3084 
Q 3944 3084 3684 2787 
Q 3425 2491 3425 1978 
L 3425 0 
L 2847 0 
L 2847 2094 
Q 2847 2600 2669 2842 
Q 2491 3084 2119 3084 
Q 1678 3084 1418 2786 
Q 1159 2488 1159 1978 
L 1159 0 
L 581 0 
L 581 3500 
L 1159 3500 
L 1159 2956 
Q 1356 3278 1631 3431 
Q 1906 3584 2284 3584 
Q 2666 3584 2933 3390 
Q 3200 3197 3328 2828 
z
" transform="scale(0.015625)"/>
      </defs>
      <use xlink:href="#DejaVuSans-44"/>
      <use xlink:href="#DejaVuSans-61" x="77.001953"/>
      <use xlink:href="#DejaVuSans-74" x="138.28125"/>
      <use xlink:href="#DejaVuSans-75" x="177.490234"/>
      <use xlink:href="#DejaVuSans-6d" x="240.869141"/>
     </g>
    </g>
   </g>
   <g id="matplotlib.axis_2">
    <g id="ytick_1">
     <g id="line2d_11">
      <defs>
       <path id="m7df1facd2f" d="M 0 0 
L -3.5 0 
" style="stroke: #000000; stroke-width: 0.8"/>
      </defs>
      <g>
       <use xlink:href="#m7df1facd2f" x="45.02" y="380.160403" style="stroke: #000000; stroke-width: 0.8"/>
      </g>
     </g>
     <g id="text_12">
      <!-- 0 -->
      <g transform="translate(31.6575 383.959621) scale(0.1 -0.1)">
       <use xlink:href="#DejaVuSans-30"/>
      </g>
     </g>
    </g>
    <g id="ytick_2">
     <g id="line2d_12">
      <g>
       <use xlink:href="#m7df1facd2f" x="45.02" y="335.757718" style="stroke: #000000; stroke-width: 0.8"/>
      </g>
     </g>
     <g id="text_13">
      <!-- 2 -->
      <g transform="translate(31.6575 339.556937) scale(0.1 -0.1)">
       <use xlink:href="#DejaVuSans-32"/>
      </g>
     </g>
    </g>
    <g id="ytick_3">
     <g id="line2d_13">
      <g>
       <use xlink:href="#m7df1facd2f" x="45.02" y="291.355034" style="stroke: #000000; stroke-width: 0.8"/>
      </g>
     </g>
     <g id="text_14">
      <!-- 4 -->
      <g transform="translate(31.6575 295.154252) scale(0.1 -0.1)">
       <use xlink:href="#DejaVuSans-34"/>
      </g>
     </g>
    </g>
    <g id="ytick_4">
     <g id="line2d_14">
      <g>
       <use xlink:href="#m7df1facd2f" x="45.02" y="246.952349" style="stroke: #000000; stroke-width: 0.8"/>
      </g>
     </g>
     <g id="text_15">
      <!-- 6 -->
      <g transform="translate(31.6575 250.751568) scale(0.1 -0.1)">
       <defs>
        <path id="DejaVuSans-36" d="M 2113 2584 
Q 1688 2584 1439 2293 
Q 1191 2003 1191 1497 
Q 1191 994 1439 701 
Q 1688 409 2113 409 
Q 2538 409 2786 701 
Q 3034 994 3034 1497 
Q 3034 2003 2786 2293 
Q 2538 2584 2113 2584 
z
M 3366 4563 
L 3366 3988 
Q 3128 4100 2886 4159 
Q 2644 4219 2406 4219 
Q 1781 4219 1451 3797 
Q 1122 3375 1075 2522 
Q 1259 2794 1537 2939 
Q 1816 3084 2150 3084 
Q 2853 3084 3261 2657 
Q 3669 2231 3669 1497 
Q 3669 778 3244 343 
Q 2819 -91 2113 -91 
Q 1303 -91 875 529 
Q 447 1150 447 2328 
Q 447 3434 972 4092 
Q 1497 4750 2381 4750 
Q 2619 4750 2861 4703 
Q 3103 4656 3366 4563 
z
" transform="scale(0.015625)"/>
       </defs>
       <use xlink:href="#DejaVuSans-36"/>
      </g>
     </g>
    </g>
    <g id="ytick_5">
     <g id="line2d_15">
      <g>
       <use xlink:href="#m7df1facd2f" x="45.02" y="202.549664" style="stroke: #000000; stroke-width: 0.8"/>
      </g>
     </g>
     <g id="text_16">
      <!-- 8 -->
      <g transform="translate(31.6575 206.348883) scale(0.1 -0.1)">
       <defs>
        <path id="DejaVuSans-38" d="M 2034 2216 
Q 1584 2216 1326 1975 
Q 1069 1734 1069 1313 
Q 1069 891 1326 650 
Q 1584 409 2034 409 
Q 2484 409 2743 651 
Q 3003 894 3003 1313 
Q 3003 1734 2745 1975 
Q 2488 2216 2034 2216 
z
M 1403 2484 
Q 997 2584 770 2862 
Q 544 3141 544 3541 
Q 544 4100 942 4425 
Q 1341 4750 2034 4750 
Q 2731 4750 3128 4425 
Q 3525 4100 3525 3541 
Q 3525 3141 3298 2862 
Q 3072 2584 2669 2484 
Q 3125 2378 3379 2068 
Q 3634 1759 3634 1313 
Q 3634 634 3220 271 
Q 2806 -91 2034 -91 
Q 1263 -91 848 271 
Q 434 634 434 1313 
Q 434 1759 690 2068 
Q 947 2378 1403 2484 
z
M 1172 3481 
Q 1172 3119 1398 2916 
Q 1625 2713 2034 2713 
Q 2441 2713 2670 2916 
Q 2900 3119 2900 3481 
Q 2900 3844 2670 4047 
Q 2441 4250 2034 4250 
Q 1625 4250 1398 4047 
Q 1172 3844 1172 3481 
z
" transform="scale(0.015625)"/>
       </defs>
       <use xlink:href="#DejaVuSans-38"/>
      </g>
     </g>
    </g>
    <g id="ytick_6">
     <g id="line2d_16">
      <g>
       <use xlink:href="#m7df1facd2f" x="45.02" y="158.14698" style="stroke: #000000; stroke-width: 0.8"/>
      </g>
     </g>
     <g id="text_17">
      <!-- 10 -->
      <g transform="translate(25.295 161.946199) scale(0.1 -0.1)">
       <use xlink:href="#DejaVuSans-31"/>
       <use xlink:href="#DejaVuSans-30" x="63.623047"/>
      </g>
     </g>
    </g>
    <g id="ytick_7">
     <g id="line2d_17">
      <g>
       <use xlink:href="#m7df1facd2f" x="45.02" y="113.744295" style="stroke: #000000; stroke-width: 0.8"/>
      </g>
     </g>
     <g id="text_18">
      <!-- 12 -->
      <g transform="translate(25.295 117.543514) scale(0.1 -0.1)">
       <use xlink:href="#DejaVuSans-31"/>
       <use xlink:href="#DejaVuSans-32" x="63.623047"/>
      </g>
     </g>
    </g>
    <g id="ytick_8">
     <g id="line2d_18">
      <g>
       <use xlink:href="#m7df1facd2f" x="45.02" y="69.341611" style="stroke: #000000; stroke-width: 0.8"/>
      </g>
     </g>
     <g id="text_19">
      <!-- 14 -->
      <g transform="translate(25.295 73.140829) scale(0.1 -0.1)">
       <use xlink:href="#DejaVuSans-31"/>
       <use xlink:href="#DejaVuSans-34" x="63.623047"/>
      </g>
     </g>
    </g>
    <g id="text_20">
     <!-- Celkový čas (hodiny) -->
     <g transform="translate(19.215312 260.166406) rotate(-90) scale(0.1 -0.1)">
      <defs>
       <path id="DejaVuSans-43" d="M 4122 4306 
L 4122 3641 
Q 3803 3938 3442 4084 
Q 3081 4231 2675 4231 
Q 1875 4231 1450 3742 
Q 1025 3253 1025 2328 
Q 1025 1406 1450 917 
Q 1875 428 2675 428 
Q 3081 428 3442 575 
Q 3803 722 4122 1019 
L 4122 359 
Q 3791 134 3420 21 
Q 3050 -91 2638 -91 
Q 1578 -91 968 557 
Q 359 1206 359 2328 
Q 359 3453 968 4101 
Q 1578 4750 2638 4750 
Q 3056 4750 3426 4639 
Q 3797 4528 4122 4306 
z
" transform="scale(0.015625)"/>
       <path id="DejaVuSans-65" d="M 3597 1894 
L 3597 1613 
L 953 1613 
Q 991 1019 1311 708 
Q 1631 397 2203 397 
Q 2534 397 2845 478 
Q 3156 559 3463 722 
L 3463 178 
Q 3153 47 2828 -22 
Q 2503 -91 2169 -91 
Q 1331 -91 842 396 
Q 353 884 353 1716 
Q 353 2575 817 3079 
Q 1281 3584 2069 3584 
Q 2775 3584 3186 3129 
Q 3597 2675 3597 1894 
z
M 3022 2063 
Q 3016 2534 2758 2815 
Q 2500 3097 2075 3097 
Q 1594 3097 1305 2825 
Q 1016 2553 972 2059 
L 3022 2063 
z
" transform="scale(0.015625)"/>
       <path id="DejaVuSans-6c" d="M 603 4863 
L 1178 4863 
L 1178 0 
L 603 0 
L 603 4863 
z
" transform="scale(0.015625)"/>
       <path id="DejaVuSans-6b" d="M 581 4863 
L 1159 4863 
L 1159 1991 
L 2875 3500 
L 3609 3500 
L 1753 1863 
L 3688 0 
L 2938 0 
L 1159 1709 
L 1159 0 
L 581 0 
L 581 4863 
z
" transform="scale(0.015625)"/>
       <path id="DejaVuSans-6f" d="M 1959 3097 
Q 1497 3097 1228 2736 
Q 959 2375 959 1747 
Q 959 1119 1226 758 
Q 1494 397 1959 397 
Q 2419 397 2687 759 
Q 2956 1122 2956 1747 
Q 2956 2369 2687 2733 
Q 2419 3097 1959 3097 
z
M 1959 3584 
Q 2709 3584 3137 3096 
Q 3566 2609 3566 1747 
Q 3566 888 3137 398 
Q 2709 -91 1959 -91 
Q 1206 -91 779 398 
Q 353 888 353 1747 
Q 353 2609 779 3096 
Q 1206 3584 1959 3584 
z
" transform="scale(0.015625)"/>
       <path id="DejaVuSans-76" d="M 191 3500 
L 800 3500 
L 1894 563 
L 2988 3500 
L 3597 3500 
L 2284 0 
L 1503 0 
L 191 3500 
z
" transform="scale(0.015625)"/>
       <path id="DejaVuSans-fd" d="M 2059 -325 
Q 1816 -950 1584 -1140 
Q 1353 -1331 966 -1331 
L 506 -1331 
L 506 -850 
L 844 -850 
Q 1081 -850 1212 -737 
Q 1344 -625 1503 -206 
L 1606 56 
L 191 3500 
L 800 3500 
L 1894 763 
L 2988 3500 
L 3597 3500 
L 2059 -325 
z
M 2328 5119 
L 2950 5119 
L 1931 3944 
L 1453 3944 
L 2328 5119 
z
" transform="scale(0.015625)"/>
       <path id="DejaVuSans-20" transform="scale(0.015625)"/>
       <path id="DejaVuSans-10d" d="M 3122 3366 
L 3122 2828 
Q 2878 2963 2633 3030 
Q 2388 3097 2138 3097 
Q 1578 3097 1268 2742 
Q 959 2388 959 1747 
Q 959 1106 1268 751 
Q 1578 397 2138 397 
Q 2388 397 2633 464 
Q 2878 531 3122 666 
L 3122 134 
Q 2881 22 2623 -34 
Q 2366 -91 2075 -91 
Q 1284 -91 818 406 
Q 353 903 353 1747 
Q 353 2603 823 3093 
Q 1294 3584 2113 3584 
Q 2378 3584 2631 3529 
Q 2884 3475 3122 3366 
z
M 1797 3944 
L 1031 5119 
L 1466 5119 
L 2028 4353 
L 2591 5119 
L 3025 5119 
L 2259 3944 
L 1797 3944 
z
" transform="scale(0.015625)"/>
       <path id="DejaVuSans-73" d="M 2834 3397 
L 2834 2853 
Q 2591 2978 2328 3040 
Q 2066 3103 1784 3103 
Q 1356 3103 1142 2972 
Q 928 2841 928 2578 
Q 928 2378 1081 2264 
Q 1234 2150 1697 2047 
L 1894 2003 
Q 2506 1872 2764 1633 
Q 3022 1394 3022 966 
Q 3022 478 2636 193 
Q 2250 -91 1575 -91 
Q 1294 -91 989 -36 
Q 684 19 347 128 
L 347 722 
Q 666 556 975 473 
Q 1284 391 1588 391 
Q 1994 391 2212 530 
Q 2431 669 2431 922 
Q 2431 1156 2273 1281 
Q 2116 1406 1581 1522 
L 1381 1569 
Q 847 1681 609 1914 
Q 372 2147 372 2553 
Q 372 3047 722 3315 
Q 1072 3584 1716 3584 
Q 2034 3584 2315 3537 
Q 2597 3491 2834 3397 
z
" transform="scale(0.015625)"/>
       <path id="DejaVuSans-28" d="M 1984 4856 
Q 1566 4138 1362 3434 
Q 1159 2731 1159 2009 
Q 1159 1288 1364 580 
Q 1569 -128 1984 -844 
L 1484 -844 
Q 1016 -109 783 600 
Q 550 1309 550 2009 
Q 550 2706 781 3412 
Q 1013 4119 1484 4856 
L 1984 4856 
z
" transform="scale(0.015625)"/>
       <path id="DejaVuSans-68" d="M 3513 2113 
L 3513 0 
L 2938 0 
L 2938 2094 
Q 2938 2591 2744 2837 
Q 2550 3084 2163 3084 
Q 1697 3084 1428 2787 
Q 1159 2491 1159 1978 
L 1159 0 
L 581 0 
L 581 4863 
L 1159 4863 
L 1159 2956 
Q 1366 3272 1645 3428 
Q 1925 3584 2291 3584 
Q 2894 3584 3203 3211 
Q 3513 2838 3513 2113 
z
" transform="scale(0.015625)"/>
       <path id="DejaVuSans-64" d="M 2906 2969 
L 2906 4863 
L 3481 4863 
L 3481 0 
L 2906 0 
L 2906 525 
Q 2725 213 2448 61 
Q 2172 -91 1784 -91 
Q 1150 -91 751 415 
Q 353 922 353 1747 
Q 353 2572 751 3078 
Q 1150 3584 1784 3584 
Q 2172 3584 2448 3432 
Q 2725 3281 2906 2969 
z
M 947 1747 
Q 947 1113 1208 752 
Q 1469 391 1925 391 
Q 2381 391 2643 752 
Q 2906 1113 2906 1747 
Q 2906 2381 2643 2742 
Q 2381 3103 1925 3103 
Q 1469 3103 1208 2742 
Q 947 2381 947 1747 
z
" transform="scale(0.015625)"/>
       <path id="DejaVuSans-69" d="M 603 3500 
L 1178 3500 
L 1178 0 
L 603 0 
L 603 3500 
z
M 603 4863 
L 1178 4863 
L 1178 4134 
L 603 4134 
L 603 4863 
z
" transform="scale(0.015625)"/>
       <path id="DejaVuSans-6e" d="M 3513 2113 
L 3513 0 
L 2938 0 
L 2938 2094 
Q 2938 2591 2744 2837 
Q 2550 3084 2163 3084 
Q 1697 3084 1428 2787 
Q 1159 2491 1159 1978 
L 1159 0 
L 581 0 
L 581 3500 
L 1159 3500 
L 1159 2956 
Q 1366 3272 1645 3428 
Q 1925 3584 2291 3584 
Q 2894 3584 3203 3211 
Q 3513 2838 3513 2113 
z
" transform="scale(0.015625)"/>
       <path id="DejaVuSans-79" d="M 2059 -325 
Q 1816 -950 1584 -1140 
Q 1353 -1331 966 -1331 
L 506 -1331 
L 506 -850 
L 844 -850 
Q 1081 -850 1212 -737 
Q 1344 -625 1503 -206 
L 1606 56 
L 191 3500 
L 800 3500 
L 1894 763 
L 2988 3500 
L 3597 3500 
L 2059 -325 
z
" transform="scale(0.015625)"/>
       <path id="DejaVuSans-29" d="M 513 4856 
L 1013 4856 
Q 1481 4119 1714 3412 
Q 1947 2706 1947 2009 
Q 1947 1309 1714 600 
Q 1481 -109 1013 -844 
L 513 -844 
Q 928 -128 1133 580 
Q 1338 1288 1338 2009 
Q 1338 2731 1133 3434 
Q 928 4138 513 4856 
z
" transform="scale(0.015625)"/>
      </defs>
      <use xlink:href="#DejaVuSans-43"/>
      <use xlink:href="#DejaVuSans-65" x="69.824219"/>
      <use xlink:href="#DejaVuSans-6c" x="131.347656"/>
      <use xlink:href="#DejaVuSans-6b" x="159.130859"/>
      <use xlink:href="#DejaVuSans-6f" x="213.416016"/>
      <use xlink:href="#DejaVuSans-76" x="274.597656"/>
      <use xlink:href="#DejaVuSans-fd" x="333.777344"/>
      <use xlink:href="#DejaVuSans-20" x="392.957031"/>
      <use xlink:href="#DejaVuSans-10d" x="424.744141"/>
      <use xlink:href="#DejaVuSans-61" x="479.724609"/>
      <use xlink:href="#DejaVuSans-73" x="541.003906"/>
      <use xlink:href="#DejaVuSans-20" x="593.103516"/>
      <use xlink:href="#DejaVuSans-28" x="624.890625"/>
      <use xlink:href="#DejaVuSans-68" x="663.904297"/>
      <use xlink:href="#DejaVuSans-6f" x="727.283203"/>
      <use xlink:href="#DejaVuSans-64" x="788.464844"/>
      <use xlink:href="#DejaVuSans-69" x="851.941406"/>
      <use xlink:href="#DejaVuSans-6e" x="879.724609"/>
      <use xlink:href="#DejaVuSans-79" x="943.103516"/>
      <use xlink:href="#DejaVuSans-29" x="1002.283203"/>
     </g>
    </g>
   </g>
   <g id="line2d_19">
    <path d="M 81.755455 194.03915 
L 92.56 214.760403 
L 103.364545 219.570694 
L 108.766818 244.362192 
L 119.571364 236.2217 
L 124.973636 252.502685 
L 130.375909 228.081208 
L 135.778182 188.118792 
L 141.180455 112.264206 
L 146.582727 230.671365 
L 151.985 256.202908 
L 157.387273 42.7 
L 162.789545 200.699553 
L 168.191818 196.629306 
L 173.594091 243.252125 
L 178.996364 212.170246 
L 184.398636 178.128188 
L 189.800909 275.814094 
L 195.203182 210.320134 
L 211.41 161.107159 
L 216.812273 186.638702 
L 222.214545 188.858837 
L 227.616818 285.434676 
L 233.019091 269.893736 
L 243.823636 172.577852 
L 249.225909 337.60783 
L 260.030455 226.601119 
L 265.432727 217.350559 
L 270.835 221.050783 
L 276.237273 189.598881 
L 281.639545 199.959508 
L 287.041818 160.737136 
L 292.444091 208.470022 
L 297.846364 206.249888 
L 303.248636 204.399776 
L 308.650909 282.474497 
L 314.053182 261.383221 
L 319.455455 198.849441 
L 324.857727 193.299105 
L 330.26 168.137584 
L 335.662273 209.210067 
L 341.064545 220.310738 
L 346.466818 278.404251 
L 351.869091 345.748322 
L 362.673636 205.509843 
L 368.075909 225.121029 
L 373.478182 193.299105 
L 378.880455 266.563535 
L 389.685 188.488814 
L 395.087273 139.275839 
L 400.489545 357.589038 
L 405.891818 217.350559 
L 411.294091 235.481655 
L 416.696364 183.678523 
L 422.098636 312.076286 
L 427.500909 189.598881 
L 438.305455 214.39038 
L 443.707727 227.341163 
L 449.11 214.39038 
L 454.512273 203.659732 
L 459.914545 226.231096 
L 465.316818 182.938479 
L 470.719091 224.010962 
L 476.121364 179.608277 
L 481.523636 236.591723 
L 492.328182 222.530872 
L 497.730455 306.525951 
L 503.132727 164.43736 
L 508.535 182.198434 
L 513.937273 157.776957 
L 524.741818 186.26868 
L 530.144091 259.53311 
L 535.546364 194.409172 
L 540.948636 215.87047 
L 546.350909 338.347875 
L 551.753182 159.627069 
L 557.155455 302.825727 
L 567.96 373.5 
L 573.362273 230.671365 
L 578.764545 320.956823 
L 584.166818 162.957271 
L 589.569091 216.240492 
L 594.971364 181.458389 
L 600.373636 216.240492 
L 605.775909 188.673826 
L 611.178182 207.359955 
L 616.580455 253.42774 
L 621.982727 347.0434 
L 627.385 207.729978 
L 632.787273 245.842282 
L 638.189545 238.071812 
L 643.591818 181.828412 
L 654.396364 179.793289 
L 659.798636 206.804922 
L 665.200909 198.66443 
L 670.603182 184.973602 
L 676.005455 219.01566 
L 681.407727 315.036465 
L 692.212273 222.530872 
L 697.614545 176.278076 
L 703.016818 232.891499 
L 713.821364 258.423043 
L 719.223636 162.587248 
L 740.832727 221.235794 
L 757.039545 285.989709 
L 762.441818 199.774497 
L 767.844091 156.296868 
L 773.246364 216.240492 
L 778.648636 204.399776 
L 784.050909 264.898434 
L 789.453182 161.107159 
L 800.257727 277.849217 
L 805.66 354.81387 
L 811.062273 199.774497 
L 816.464545 212.355257 
" clip-path="url(#paad2236d2a)" style="fill: none; stroke: #1f77b4; stroke-width: 1.5; stroke-linecap: square"/>
    <defs>
     <path id="m29b947d8e1" d="M 0 3 
C 0.795609 3 1.55874 2.683901 2.12132 2.12132 
C 2.683901 1.55874 3 0.795609 3 0 
C 3 -0.795609 2.683901 -1.55874 2.12132 -2.12132 
C 1.55874 -2.683901 0.795609 -3 0 -3 
C -0.795609 -3 -1.55874 -2.683901 -2.12132 -2.12132 
C -2.683901 -1.55874 -3 -0.795609 -3 0 
C -3 0.795609 -2.683901 1.55874 -2.12132 2.12132 
C -1.55874 2.683901 -0.795609 3 0 3 
z
" style="stroke: #1f77b4"/>
    </defs>
    <g clip-path="url(#paad2236d2a)">
     <use xlink:href="#m29b947d8e1" x="81.755455" y="194.03915" style="fill: #1f77b4; stroke: #1f77b4"/>
     <use xlink:href="#m29b947d8e1" x="92.56" y="214.760403" style="fill: #1f77b4; stroke: #1f77b4"/>
     <use xlink:href="#m29b947d8e1" x="103.364545" y="219.570694" style="fill: #1f77b4; stroke: #1f77b4"/>
     <use xlink:href="#m29b947d8e1" x="108.766818" y="244.362192" style="fill: #1f77b4; stroke: #1f77b4"/>
     <use xlink:href="#m29b947d8e1" x="119.571364" y="236.2217" style="fill: #1f77b4; stroke: #1f77b4"/>
     <use xlink:href="#m29b947d8e1" x="124.973636" y="252.502685" style="fill: #1f77b4; stroke: #1f77b4"/>
     <use xlink:href="#m29b947d8e1" x="130.375909" y="228.081208" style="fill: #1f77b4; stroke: #1f77b4"/>
     <use xlink:href="#m29b947d8e1" x="135.778182" y="188.118792" style="fill: #1f77b4; stroke: #1f77b4"/>
     <use xlink:href="#m29b947d8e1" x="141.180455" y="112.264206" style="fill: #1f77b4; stroke: #1f77b4"/>
     <use xlink:href="#m29b947d8e1" x="146.582727" y="230.671365" style="fill: #1f77b4; stroke: #1f77b4"/>
     <use xlink:href="#m29b947d8e1" x="151.985" y="256.202908" style="fill: #1f77b4; stroke: #1f77b4"/>
     <use xlink:href="#m29b947d8e1" x="157.387273" y="42.7" style="fill: #1f77b4; stroke: #1f77b4"/>
     <use xlink:href="#m29b947d8e1" x="162.789545" y="200.699553" style="fill: #1f77b4; stroke: #1f77b4"/>
     <use xlink:href="#m29b947d8e1" x="168.191818" y="196.629306" style="fill: #1f77b4; stroke: #1f77b4"/>
     <use xlink:href="#m29b947d8e1" x="173.594091" y="243.252125" style="fill: #1f77b4; stroke: #1f77b4"/>
     <use xlink:href="#m29b947d8e1" x="178.996364" y="212.170246" style="fill: #1f77b4; stroke: #1f77b4"/>
     <use xlink:href="#m29b947d8e1" x="184.398636" y="178.128188" style="fill: #1f77b4; stroke: #1f77b4"/>
     <use xlink:href="#m29b947d8e1" x="189.800909" y="275.814094" style="fill: #1f77b4; stroke: #1f77b4"/>
     <use xlink:href="#m29b947d8e1" x="195.203182" y="210.320134" style="fill: #1f77b4; stroke: #1f77b4"/>
     <use xlink:href="#m29b947d8e1" x="211.41" y="161.107159" style="fill: #1f77b4; stroke: #1f77b4"/>
     <use xlink:href="#m29b947d8e1" x="216.812273" y="186.638702" style="fill: #1f77b4; stroke: #1f77b4"/>
     <use xlink:href="#m29b947d8e1" x="222.214545" y="188.858837" style="fill: #1f77b4; stroke: #1f77b4"/>
     <use xlink:href="#m29b947d8e1" x="227.616818" y="285.434676" style="fill: #1f77b4; stroke: #1f77b4"/>
     <use xlink:href="#m29b947d8e1" x="233.019091" y="269.893736" style="fill: #1f77b4; stroke: #1f77b4"/>
     <use xlink:href="#m29b947d8e1" x="243.823636" y="172.577852" style="fill: #1f77b4; stroke: #1f77b4"/>
     <use xlink:href="#m29b947d8e1" x="249.225909" y="337.60783" style="fill: #1f77b4; stroke: #1f77b4"/>
     <use xlink:href="#m29b947d8e1" x="260.030455" y="226.601119" style="fill: #1f77b4; stroke: #1f77b4"/>
     <use xlink:href="#m29b947d8e1" x="265.432727" y="217.350559" style="fill: #1f77b4; stroke: #1f77b4"/>
     <use xlink:href="#m29b947d8e1" x="270.835" y="221.050783" style="fill: #1f77b4; stroke: #1f77b4"/>
     <use xlink:href="#m29b947d8e1" x="276.237273" y="189.598881" style="fill: #1f77b4; stroke: #1f77b4"/>
     <use xlink:href="#m29b947d8e1" x="281.639545" y="199.959508" style="fill: #1f77b4; stroke: #1f77b4"/>
     <use xlink:href="#m29b947d8e1" x="287.041818" y="160.737136" style="fill: #1f77b4; stroke: #1f77b4"/>
     <use xlink:href="#m29b947d8e1" x="292.444091" y="208.470022" style="fill: #1f77b4; stroke: #1f77b4"/>
     <use xlink:href="#m29b947d8e1" x="297.846364" y="206.249888" style="fill: #1f77b4; stroke: #1f77b4"/>
     <use xlink:href="#m29b947d8e1" x="303.248636" y="204.399776" style="fill: #1f77b4; stroke: #1f77b4"/>
     <use xlink:href="#m29b947d8e1" x="308.650909" y="282.474497" style="fill: #1f77b4; stroke: #1f77b4"/>
     <use xlink:href="#m29b947d8e1" x="314.053182" y="261.383221" style="fill: #1f77b4; stroke: #1f77b4"/>
     <use xlink:href="#m29b947d8e1" x="319.455455" y="198.849441" style="fill: #1f77b4; stroke: #1f77b4"/>
     <use xlink:href="#m29b947d8e1" x="324.857727" y="193.299105" style="fill: #1f77b4; stroke: #1f77b4"/>
     <use xlink:href="#m29b947d8e1" x="330.26" y="168.137584" style="fill: #1f77b4; stroke: #1f77b4"/>
     <use xlink:href="#m29b947d8e1" x="335.662273" y="209.210067" style="fill: #1f77b4; stroke: #1f77b4"/>
     <use xlink:href="#m29b947d8e1" x="341.064545" y="220.310738" style="fill: #1f77b4; stroke: #1f77b4"/>
     <use xlink:href="#m29b947d8e1" x="346.466818" y="278.404251" style="fill: #1f77b4; stroke: #1f77b4"/>
     <use xlink:href="#m29b947d8e1" x="351.869091" y="345.748322" style="fill: #1f77b4; stroke: #1f77b4"/>
     <use xlink:href="#m29b947d8e1" x="362.673636" y="205.509843" style="fill: #1f77b4; stroke: #1f77b4"/>
     <use xlink:href="#m29b947d8e1" x="368.075909" y="225.121029" style="fill: #1f77b4; stroke: #1f77b4"/>
     <use xlink:href="#m29b947d8e1" x="373.478182" y="193.299105" style="fill: #1f77b4; stroke: #1f77b4"/>
     <use xlink:href="#m29b947d8e1" x="378.880455" y="266.563535" style="fill: #1f77b4; stroke: #1f77b4"/>
     <use xlink:href="#m29b947d8e1" x="389.685" y="188.488814" style="fill: #1f77b4; stroke: #1f77b4"/>
     <use xlink:href="#m29b947d8e1" x="395.087273" y="139.275839" style="fill: #1f77b4; stroke: #1f77b4"/>
     <use xlink:href="#m29b947d8e1" x="400.489545" y="357.589038" style="fill: #1f77b4; stroke: #1f77b4"/>
     <use xlink:href="#m29b947d8e1" x="405.891818" y="217.350559" style="fill: #1f77b4; stroke: #1f77b4"/>
     <use xlink:href="#m29b947d8e1" x="411.294091" y="235.481655" style="fill: #1f77b4; stroke: #1f77b4"/>
     <use xlink:href="#m29b947d8e1" x="416.696364" y="183.678523" style="fill: #1f77b4; stroke: #1f77b4"/>
     <use xlink:href="#m29b947d8e1" x="422.098636" y="312.076286" style="fill: #1f77b4; stroke: #1f77b4"/>
     <use xlink:href="#m29b947d8e1" x="427.500909" y="189.598881" style="fill: #1f77b4; stroke: #1f77b4"/>
     <use xlink:href="#m29b947d8e1" x="438.305455" y="214.39038" style="fill: #1f77b4; stroke: #1f77b4"/>
     <use xlink:href="#m29b947d8e1" x="443.707727" y="227.341163" style="fill: #1f77b4; stroke: #1f77b4"/>
     <use xlink:href="#m29b947d8e1" x="449.11" y="214.39038" style="fill: #1f77b4; stroke: #1f77b4"/>
     <use xlink:href="#m29b947d8e1" x="454.512273" y="203.659732" style="fill: #1f77b4; stroke: #1f77b4"/>
     <use xlink:href="#m29b947d8e1" x="459.914545" y="226.231096" style="fill: #1f77b4; stroke: #1f77b4"/>
     <use xlink:href="#m29b947d8e1" x="465.316818" y="182.938479" style="fill: #1f77b4; stroke: #1f77b4"/>
     <use xlink:href="#m29b947d8e1" x="470.719091" y="224.010962" style="fill: #1f77b4; stroke: #1f77b4"/>
     <use xlink:href="#m29b947d8e1" x="476.121364" y="179.608277" style="fill: #1f77b4; stroke: #1f77b4"/>
     <use xlink:href="#m29b947d8e1" x="481.523636" y="236.591723" style="fill: #1f77b4; stroke: #1f77b4"/>
     <use xlink:href="#m29b947d8e1" x="492.328182" y="222.530872" style="fill: #1f77b4; stroke: #1f77b4"/>
     <use xlink:href="#m29b947d8e1" x="497.730455" y="306.525951" style="fill: #1f77b4; stroke: #1f77b4"/>
     <use xlink:href="#m29b947d8e1" x="503.132727" y="164.43736" style="fill: #1f77b4; stroke: #1f77b4"/>
     <use xlink:href="#m29b947d8e1" x="508.535" y="182.198434" style="fill: #1f77b4; stroke: #1f77b4"/>
     <use xlink:href="#m29b947d8e1" x="513.937273" y="157.776957" style="fill: #1f77b4; stroke: #1f77b4"/>
     <use xlink:href="#m29b947d8e1" x="524.741818" y="186.26868" style="fill: #1f77b4; stroke: #1f77b4"/>
     <use xlink:href="#m29b947d8e1" x="530.144091" y="259.53311" style="fill: #1f77b4; stroke: #1f77b4"/>
     <use xlink:href="#m29b947d8e1" x="535.546364" y="194.409172" style="fill: #1f77b4; stroke: #1f77b4"/>
     <use xlink:href="#m29b947d8e1" x="540.948636" y="215.87047" style="fill: #1f77b4; stroke: #1f77b4"/>
     <use xlink:href="#m29b947d8e1" x="546.350909" y="338.347875" style="fill: #1f77b4; stroke: #1f77b4"/>
     <use xlink:href="#m29b947d8e1" x="551.753182" y="159.627069" style="fill: #1f77b4; stroke: #1f77b4"/>
     <use xlink:href="#m29b947d8e1" x="557.155455" y="302.825727" style="fill: #1f77b4; stroke: #1f77b4"/>
     <use xlink:href="#m29b947d8e1" x="567.96" y="373.5" style="fill: #1f77b4; stroke: #1f77b4"/>
     <use xlink:href="#m29b947d8e1" x="573.362273" y="230.671365" style="fill: #1f77b4; stroke: #1f77b4"/>
     <use xlink:href="#m29b947d8e1" x="578.764545" y="320.956823" style="fill: #1f77b4; stroke: #1f77b4"/>
     <use xlink:href="#m29b947d8e1" x="584.166818" y="162.957271" style="fill: #1f77b4; stroke: #1f77b4"/>
     <use xlink:href="#m29b947d8e1" x="589.569091" y="216.240492" style="fill: #1f77b4; stroke: #1f77b4"/>
     <use xlink:href="#m29b947d8e1" x="594.971364" y="181.458389" style="fill: #1f77b4; stroke: #1f77b4"/>
     <use xlink:href="#m29b947d8e1" x="600.373636" y="216.240492" style="fill: #1f77b4; stroke: #1f77b4"/>
     <use xlink:href="#m29b947d8e1" x="605.775909" y="188.673826" style="fill: #1f77b4; stroke: #1f77b4"/>
     <use xlink:href="#m29b947d8e1" x="611.178182" y="207.359955" style="fill: #1f77b4; stroke: #1f77b4"/>
     <use xlink:href="#m29b947d8e1" x="616.580455" y="253.42774" style="fill: #1f77b4; stroke: #1f77b4"/>
     <use xlink:href="#m29b947d8e1" x="621.982727" y="347.0434" style="fill: #1f77b4; stroke: #1f77b4"/>
     <use xlink:href="#m29b947d8e1" x="627.385" y="207.729978" style="fill: #1f77b4; stroke: #1f77b4"/>
     <use xlink:href="#m29b947d8e1" x="632.787273" y="245.842282" style="fill: #1f77b4; stroke: #1f77b4"/>
     <use xlink:href="#m29b947d8e1" x="638.189545" y="238.071812" style="fill: #1f77b4; stroke: #1f77b4"/>
     <use xlink:href="#m29b947d8e1" x="643.591818" y="181.828412" style="fill: #1f77b4; stroke: #1f77b4"/>
     <use xlink:href="#m29b947d8e1" x="654.396364" y="179.793289" style="fill: #1f77b4; stroke: #1f77b4"/>
     <use xlink:href="#m29b947d8e1" x="659.798636" y="206.804922" style="fill: #1f77b4; stroke: #1f77b4"/>
     <use xlink:href="#m29b947d8e1" x="665.200909" y="198.66443" style="fill: #1f77b4; stroke: #1f77b4"/>
     <use xlink:href="#m29b947d8e1" x="670.603182" y="184.973602" style="fill: #1f77b4; stroke: #1f77b4"/>
     <use xlink:href="#m29b947d8e1" x="676.005455" y="219.01566" style="fill: #1f77b4; stroke: #1f77b4"/>
     <use xlink:href="#m29b947d8e1" x="681.407727" y="315.036465" style="fill: #1f77b4; stroke: #1f77b4"/>
     <use xlink:href="#m29b947d8e1" x="692.212273" y="222.530872" style="fill: #1f77b4; stroke: #1f77b4"/>
     <use xlink:href="#m29b947d8e1" x="697.614545" y="176.278076" style="fill: #1f77b4; stroke: #1f77b4"/>
     <use xlink:href="#m29b947d8e1" x="703.016818" y="232.891499" style="fill: #1f77b4; stroke: #1f77b4"/>
     <use xlink:href="#m29b947d8e1" x="713.821364" y="258.423043" style="fill: #1f77b4; stroke: #1f77b4"/>
     <use xlink:href="#m29b947d8e1" x="719.223636" y="162.587248" style="fill: #1f77b4; stroke: #1f77b4"/>
     <use xlink:href="#m29b947d8e1" x="740.832727" y="221.235794" style="fill: #1f77b4; stroke: #1f77b4"/>
     <use xlink:href="#m29b947d8e1" x="757.039545" y="285.989709" style="fill: #1f77b4; stroke: #1f77b4"/>
     <use xlink:href="#m29b947d8e1" x="762.441818" y="199.774497" style="fill: #1f77b4; stroke: #1f77b4"/>
     <use xlink:href="#m29b947d8e1" x="767.844091" y="156.296868" style="fill: #1f77b4; stroke: #1f77b4"/>
     <use xlink:href="#m29b947d8e1" x="773.246364" y="216.240492" style="fill: #1f77b4; stroke: #1f77b4"/>
     <use xlink:href="#m29b947d8e1" x="778.648636" y="204.399776" style="fill: #1f77b4; stroke: #1f77b4"/>
     <use xlink:href="#m29b947d8e1" x="784.050909" y="264.898434" style="fill: #1f77b4; stroke: #1f77b4"/>
     <use xlink:href="#m29b947d8e1" x="789.453182" y="161.107159" style="fill: #1f77b4; stroke: #1f77b4"/>
     <use xlink:href="#m29b947d8e1" x="800.257727" y="277.849217" style="fill: #1f77b4; stroke: #1f77b4"/>
     <use xlink:href="#m29b947d8e1" x="805.66" y="354.81387" style="fill: #1f77b4; stroke: #1f77b4"/>
     <use xlink:href="#m29b947d8e1" x="811.062273" y="199.774497" style="fill: #1f77b4; stroke: #1f77b4"/>
     <use xlink:href="#m29b947d8e1" x="816.464545" y="212.355257" style="fill: #1f77b4; stroke: #1f77b4"/>
    </g>
   </g>
   <g id="line2d_20">
    <path d="M 135.778182 325.810283 
L 141.180455 288.129672 
L 151.985 226.989642 
L 157.387273 320.907487 
L 162.789545 259.286428 
L 168.191818 314.814452 
L 173.594091 251.972319 
L 178.996364 259.058248 
L 184.398636 297.959933 
L 189.800909 250.856085 
L 195.203182 322.529418 
L 200.605455 272.477726 
L 206.007727 264.620917 
L 211.41 217.776085 
L 216.812273 275.622916 
L 222.214545 323.886167 
L 227.616818 261.654571 
L 233.019091 293.723177 
L 238.421364 216.709187 
L 243.823636 71.987271 
L 249.225909 287.98783 
L 254.628182 161.952043 
L 260.030455 307.765526 
L 265.432727 261.728576 
L 270.835 279.569821 
L 281.639545 281.660447 
L 287.041818 267.741439 
L 292.444091 236.653393 
L 297.846364 281.611111 
L 303.248636 250.060537 
L 308.650909 258.05302 
L 314.053182 284.059426 
L 319.455455 199.83 
L 324.857727 265.817323 
L 330.26 256.369418 
L 335.662273 263.34434 
L 341.064545 237.276264 
L 346.466818 228.574571 
L 357.271364 328.351104 
L 362.673636 220.767099 
L 368.075909 308.4439 
L 373.478182 304.274981 
L 378.880455 186.422856 
L 384.282727 237.134422 
L 389.685 234.5566 
L 400.489545 238.30616 
L 405.891818 243.295295 
L 416.696364 246.724169 
L 422.098636 244.115511 
L 427.500909 265.681648 
L 432.903182 278.021894 
L 438.305455 208.877047 
L 443.707727 339.593617 
L 449.11 210.529814 
L 454.512273 278.669433 
L 459.914545 192.608397 
L 465.316818 247.464213 
L 470.719091 163.203952 
L 476.121364 226.385272 
L 481.523636 188.457979 
L 486.925909 272.366719 
L 492.328182 294.765406 
L 497.730455 273.741969 
L 503.132727 333.969277 
L 508.535 267.75994 
L 513.937273 279.841171 
L 519.339545 275.382401 
L 524.741818 258.299702 
L 530.144091 231.220231 
L 535.546364 258.05302 
L 540.948636 135.945638 
L 546.350909 199.959508 
L 562.557727 208.840045 
L 567.96 63.791275 
L 573.362273 258.361372 
L 578.764545 335.017673 
L 643.591818 202.549664 
L 648.994091 176.62343 
L 654.396364 305.785906 
L 659.798636 202.549664 
L 665.200909 224.751007 
L 670.603182 246.952349 
L 676.005455 46.418725 
L 681.407727 283.954586 
L 703.016818 314.296421 
L 708.419091 247.322371 
L 713.821364 304.305817 
L 730.028182 249.659679 
L 746.235 258.404541 
L 751.637273 287.65481 
" clip-path="url(#paad2236d2a)" style="fill: none; stroke: #ff7f0e; stroke-width: 1.5; stroke-linecap: square"/>
    <defs>
     <path id="mad3becc1b1" d="M 0 3 
C 0.795609 3 1.55874 2.683901 2.12132 2.12132 
C 2.683901 1.55874 3 0.795609 3 0 
C 3 -0.795609 2.683901 -1.55874 2.12132 -2.12132 
C 1.55874 -2.683901 0.795609 -3 0 -3 
C -0.795609 -3 -1.55874 -2.683901 -2.12132 -2.12132 
C -2.683901 -1.55874 -3 -0.795609 -3 0 
C -3 0.795609 -2.683901 1.55874 -2.12132 2.12132 
C -1.55874 2.683901 -0.795609 3 0 3 
z
" style="stroke: #ff7f0e"/>
    </defs>
    <g clip-path="url(#paad2236d2a)">
     <use xlink:href="#mad3becc1b1" x="135.778182" y="325.810283" style="fill: #ff7f0e; stroke: #ff7f0e"/>
     <use xlink:href="#mad3becc1b1" x="141.180455" y="288.129672" style="fill: #ff7f0e; stroke: #ff7f0e"/>
     <use xlink:href="#mad3becc1b1" x="151.985" y="226.989642" style="fill: #ff7f0e; stroke: #ff7f0e"/>
     <use xlink:href="#mad3becc1b1" x="157.387273" y="320.907487" style="fill: #ff7f0e; stroke: #ff7f0e"/>
     <use xlink:href="#mad3becc1b1" x="162.789545" y="259.286428" style="fill: #ff7f0e; stroke: #ff7f0e"/>
     <use xlink:href="#mad3becc1b1" x="168.191818" y="314.814452" style="fill: #ff7f0e; stroke: #ff7f0e"/>
     <use xlink:href="#mad3becc1b1" x="173.594091" y="251.972319" style="fill: #ff7f0e; stroke: #ff7f0e"/>
     <use xlink:href="#mad3becc1b1" x="178.996364" y="259.058248" style="fill: #ff7f0e; stroke: #ff7f0e"/>
     <use xlink:href="#mad3becc1b1" x="184.398636" y="297.959933" style="fill: #ff7f0e; stroke: #ff7f0e"/>
     <use xlink:href="#mad3becc1b1" x="189.800909" y="250.856085" style="fill: #ff7f0e; stroke: #ff7f0e"/>
     <use xlink:href="#mad3becc1b1" x="195.203182" y="322.529418" style="fill: #ff7f0e; stroke: #ff7f0e"/>
     <use xlink:href="#mad3becc1b1" x="200.605455" y="272.477726" style="fill: #ff7f0e; stroke: #ff7f0e"/>
     <use xlink:href="#mad3becc1b1" x="206.007727" y="264.620917" style="fill: #ff7f0e; stroke: #ff7f0e"/>
     <use xlink:href="#mad3becc1b1" x="211.41" y="217.776085" style="fill: #ff7f0e; stroke: #ff7f0e"/>
     <use xlink:href="#mad3becc1b1" x="216.812273" y="275.622916" style="fill: #ff7f0e; stroke: #ff7f0e"/>
     <use xlink:href="#mad3becc1b1" x="222.214545" y="323.886167" style="fill: #ff7f0e; stroke: #ff7f0e"/>
     <use xlink:href="#mad3becc1b1" x="227.616818" y="261.654571" style="fill: #ff7f0e; stroke: #ff7f0e"/>
     <use xlink:href="#mad3becc1b1" x="233.019091" y="293.723177" style="fill: #ff7f0e; stroke: #ff7f0e"/>
     <use xlink:href="#mad3becc1b1" x="238.421364" y="216.709187" style="fill: #ff7f0e; stroke: #ff7f0e"/>
     <use xlink:href="#mad3becc1b1" x="243.823636" y="71.987271" style="fill: #ff7f0e; stroke: #ff7f0e"/>
     <use xlink:href="#mad3becc1b1" x="249.225909" y="287.98783" style="fill: #ff7f0e; stroke: #ff7f0e"/>
     <use xlink:href="#mad3becc1b1" x="254.628182" y="161.952043" style="fill: #ff7f0e; stroke: #ff7f0e"/>
     <use xlink:href="#mad3becc1b1" x="260.030455" y="307.765526" style="fill: #ff7f0e; stroke: #ff7f0e"/>
     <use xlink:href="#mad3becc1b1" x="265.432727" y="261.728576" style="fill: #ff7f0e; stroke: #ff7f0e"/>
     <use xlink:href="#mad3becc1b1" x="270.835" y="279.569821" style="fill: #ff7f0e; stroke: #ff7f0e"/>
     <use xlink:href="#mad3becc1b1" x="281.639545" y="281.660447" style="fill: #ff7f0e; stroke: #ff7f0e"/>
     <use xlink:href="#mad3becc1b1" x="287.041818" y="267.741439" style="fill: #ff7f0e; stroke: #ff7f0e"/>
     <use xlink:href="#mad3becc1b1" x="292.444091" y="236.653393" style="fill: #ff7f0e; stroke: #ff7f0e"/>
     <use xlink:href="#mad3becc1b1" x="297.846364" y="281.611111" style="fill: #ff7f0e; stroke: #ff7f0e"/>
     <use xlink:href="#mad3becc1b1" x="303.248636" y="250.060537" style="fill: #ff7f0e; stroke: #ff7f0e"/>
     <use xlink:href="#mad3becc1b1" x="308.650909" y="258.05302" style="fill: #ff7f0e; stroke: #ff7f0e"/>
     <use xlink:href="#mad3becc1b1" x="314.053182" y="284.059426" style="fill: #ff7f0e; stroke: #ff7f0e"/>
     <use xlink:href="#mad3becc1b1" x="319.455455" y="199.83" style="fill: #ff7f0e; stroke: #ff7f0e"/>
     <use xlink:href="#mad3becc1b1" x="324.857727" y="265.817323" style="fill: #ff7f0e; stroke: #ff7f0e"/>
     <use xlink:href="#mad3becc1b1" x="330.26" y="256.369418" style="fill: #ff7f0e; stroke: #ff7f0e"/>
     <use xlink:href="#mad3becc1b1" x="335.662273" y="263.34434" style="fill: #ff7f0e; stroke: #ff7f0e"/>
     <use xlink:href="#mad3becc1b1" x="341.064545" y="237.276264" style="fill: #ff7f0e; stroke: #ff7f0e"/>
     <use xlink:href="#mad3becc1b1" x="346.466818" y="228.574571" style="fill: #ff7f0e; stroke: #ff7f0e"/>
     <use xlink:href="#mad3becc1b1" x="357.271364" y="328.351104" style="fill: #ff7f0e; stroke: #ff7f0e"/>
     <use xlink:href="#mad3becc1b1" x="362.673636" y="220.767099" style="fill: #ff7f0e; stroke: #ff7f0e"/>
     <use xlink:href="#mad3becc1b1" x="368.075909" y="308.4439" style="fill: #ff7f0e; stroke: #ff7f0e"/>
     <use xlink:href="#mad3becc1b1" x="373.478182" y="304.274981" style="fill: #ff7f0e; stroke: #ff7f0e"/>
     <use xlink:href="#mad3becc1b1" x="378.880455" y="186.422856" style="fill: #ff7f0e; stroke: #ff7f0e"/>
     <use xlink:href="#mad3becc1b1" x="384.282727" y="237.134422" style="fill: #ff7f0e; stroke: #ff7f0e"/>
     <use xlink:href="#mad3becc1b1" x="389.685" y="234.5566" style="fill: #ff7f0e; stroke: #ff7f0e"/>
     <use xlink:href="#mad3becc1b1" x="400.489545" y="238.30616" style="fill: #ff7f0e; stroke: #ff7f0e"/>
     <use xlink:href="#mad3becc1b1" x="405.891818" y="243.295295" style="fill: #ff7f0e; stroke: #ff7f0e"/>
     <use xlink:href="#mad3becc1b1" x="416.696364" y="246.724169" style="fill: #ff7f0e; stroke: #ff7f0e"/>
     <use xlink:href="#mad3becc1b1" x="422.098636" y="244.115511" style="fill: #ff7f0e; stroke: #ff7f0e"/>
     <use xlink:href="#mad3becc1b1" x="427.500909" y="265.681648" style="fill: #ff7f0e; stroke: #ff7f0e"/>
     <use xlink:href="#mad3becc1b1" x="432.903182" y="278.021894" style="fill: #ff7f0e; stroke: #ff7f0e"/>
     <use xlink:href="#mad3becc1b1" x="438.305455" y="208.877047" style="fill: #ff7f0e; stroke: #ff7f0e"/>
     <use xlink:href="#mad3becc1b1" x="443.707727" y="339.593617" style="fill: #ff7f0e; stroke: #ff7f0e"/>
     <use xlink:href="#mad3becc1b1" x="449.11" y="210.529814" style="fill: #ff7f0e; stroke: #ff7f0e"/>
     <use xlink:href="#mad3becc1b1" x="454.512273" y="278.669433" style="fill: #ff7f0e; stroke: #ff7f0e"/>
     <use xlink:href="#mad3becc1b1" x="459.914545" y="192.608397" style="fill: #ff7f0e; stroke: #ff7f0e"/>
     <use xlink:href="#mad3becc1b1" x="465.316818" y="247.464213" style="fill: #ff7f0e; stroke: #ff7f0e"/>
     <use xlink:href="#mad3becc1b1" x="470.719091" y="163.203952" style="fill: #ff7f0e; stroke: #ff7f0e"/>
     <use xlink:href="#mad3becc1b1" x="476.121364" y="226.385272" style="fill: #ff7f0e; stroke: #ff7f0e"/>
     <use xlink:href="#mad3becc1b1" x="481.523636" y="188.457979" style="fill: #ff7f0e; stroke: #ff7f0e"/>
     <use xlink:href="#mad3becc1b1" x="486.925909" y="272.366719" style="fill: #ff7f0e; stroke: #ff7f0e"/>
     <use xlink:href="#mad3becc1b1" x="492.328182" y="294.765406" style="fill: #ff7f0e; stroke: #ff7f0e"/>
     <use xlink:href="#mad3becc1b1" x="497.730455" y="273.741969" style="fill: #ff7f0e; stroke: #ff7f0e"/>
     <use xlink:href="#mad3becc1b1" x="503.132727" y="333.969277" style="fill: #ff7f0e; stroke: #ff7f0e"/>
     <use xlink:href="#mad3becc1b1" x="508.535" y="267.75994" style="fill: #ff7f0e; stroke: #ff7f0e"/>
     <use xlink:href="#mad3becc1b1" x="513.937273" y="279.841171" style="fill: #ff7f0e; stroke: #ff7f0e"/>
     <use xlink:href="#mad3becc1b1" x="519.339545" y="275.382401" style="fill: #ff7f0e; stroke: #ff7f0e"/>
     <use xlink:href="#mad3becc1b1" x="524.741818" y="258.299702" style="fill: #ff7f0e; stroke: #ff7f0e"/>
     <use xlink:href="#mad3becc1b1" x="530.144091" y="231.220231" style="fill: #ff7f0e; stroke: #ff7f0e"/>
     <use xlink:href="#mad3becc1b1" x="535.546364" y="258.05302" style="fill: #ff7f0e; stroke: #ff7f0e"/>
     <use xlink:href="#mad3becc1b1" x="540.948636" y="135.945638" style="fill: #ff7f0e; stroke: #ff7f0e"/>
     <use xlink:href="#mad3becc1b1" x="546.350909" y="199.959508" style="fill: #ff7f0e; stroke: #ff7f0e"/>
     <use xlink:href="#mad3becc1b1" x="562.557727" y="208.840045" style="fill: #ff7f0e; stroke: #ff7f0e"/>
     <use xlink:href="#mad3becc1b1" x="567.96" y="63.791275" style="fill: #ff7f0e; stroke: #ff7f0e"/>
     <use xlink:href="#mad3becc1b1" x="573.362273" y="258.361372" style="fill: #ff7f0e; stroke: #ff7f0e"/>
     <use xlink:href="#mad3becc1b1" x="578.764545" y="335.017673" style="fill: #ff7f0e; stroke: #ff7f0e"/>
     <use xlink:href="#mad3becc1b1" x="643.591818" y="202.549664" style="fill: #ff7f0e; stroke: #ff7f0e"/>
     <use xlink:href="#mad3becc1b1" x="648.994091" y="176.62343" style="fill: #ff7f0e; stroke: #ff7f0e"/>
     <use xlink:href="#mad3becc1b1" x="654.396364" y="305.785906" style="fill: #ff7f0e; stroke: #ff7f0e"/>
     <use xlink:href="#mad3becc1b1" x="659.798636" y="202.549664" style="fill: #ff7f0e; stroke: #ff7f0e"/>
     <use xlink:href="#mad3becc1b1" x="665.200909" y="224.751007" style="fill: #ff7f0e; stroke: #ff7f0e"/>
     <use xlink:href="#mad3becc1b1" x="670.603182" y="246.952349" style="fill: #ff7f0e; stroke: #ff7f0e"/>
     <use xlink:href="#mad3becc1b1" x="676.005455" y="46.418725" style="fill: #ff7f0e; stroke: #ff7f0e"/>
     <use xlink:href="#mad3becc1b1" x="681.407727" y="283.954586" style="fill: #ff7f0e; stroke: #ff7f0e"/>
     <use xlink:href="#mad3becc1b1" x="703.016818" y="314.296421" style="fill: #ff7f0e; stroke: #ff7f0e"/>
     <use xlink:href="#mad3becc1b1" x="708.419091" y="247.322371" style="fill: #ff7f0e; stroke: #ff7f0e"/>
     <use xlink:href="#mad3becc1b1" x="713.821364" y="304.305817" style="fill: #ff7f0e; stroke: #ff7f0e"/>
     <use xlink:href="#mad3becc1b1" x="730.028182" y="249.659679" style="fill: #ff7f0e; stroke: #ff7f0e"/>
     <use xlink:href="#mad3becc1b1" x="746.235" y="258.404541" style="fill: #ff7f0e; stroke: #ff7f0e"/>
     <use xlink:href="#mad3becc1b1" x="751.637273" y="287.65481" style="fill: #ff7f0e; stroke: #ff7f0e"/>
    </g>
   </g>
   <g id="line2d_21">
    <path d="M 45.02 221.983883 
L 853.2 221.983883 
" clip-path="url(#paad2236d2a)" style="fill: none; stroke-dasharray: 5.55,2.4; stroke-dashoffset: 0; stroke: #0000ff; stroke-width: 1.5"/>
   </g>
   <g id="line2d_22">
    <path d="M 45.02 251.302853 
L 853.2 251.302853 
" clip-path="url(#paad2236d2a)" style="fill: none; stroke-dasharray: 5.55,2.4; stroke-dashoffset: 0; stroke: #ffa500; stroke-width: 1.5"/>
   </g>
   <g id="patch_3">
    <path d="M 45.02 390.04 
L 45.02 26.16 
" style="fill: none; stroke: #000000; stroke-width: 0.8; stroke-linejoin: miter; stroke-linecap: square"/>
   </g>
   <g id="patch_4">
    <path d="M 853.2 390.04 
L 853.2 26.16 
" style="fill: none; stroke: #000000; stroke-width: 0.8; stroke-linejoin: miter; stroke-linecap: square"/>
   </g>
   <g id="patch_5">
    <path d="M 45.02 390.04 
L 853.2 390.04 
" style="fill: none; stroke: #000000; stroke-width: 0.8; stroke-linejoin: miter; stroke-linecap: square"/>
   </g>
   <g id="patch_6">
    <path d="M 45.02 26.16 
L 853.2 26.16 
" style="fill: none; stroke: #000000; stroke-width: 0.8; stroke-linejoin: miter; stroke-linecap: square"/>
   </g>
   <g id="text_21">
    <!-- Délka spánku a čas strávený aktivitami podle data -->
    <g transform="translate(297.145 20.16) scale(0.12 -0.12)">
     <defs>
      <path id="DejaVuSans-e9" d="M 3597 1894 
L 3597 1613 
L 953 1613 
Q 991 1019 1311 708 
Q 1631 397 2203 397 
Q 2534 397 2845 478 
Q 3156 559 3463 722 
L 3463 178 
Q 3153 47 2828 -22 
Q 2503 -91 2169 -91 
Q 1331 -91 842 396 
Q 353 884 353 1716 
Q 353 2575 817 3079 
Q 1281 3584 2069 3584 
Q 2775 3584 3186 3129 
Q 3597 2675 3597 1894 
z
M 3022 2063 
Q 3016 2534 2758 2815 
Q 2500 3097 2075 3097 
Q 1594 3097 1305 2825 
Q 1016 2553 972 2059 
L 3022 2063 
z
M 2469 5119 
L 3091 5119 
L 2072 3944 
L 1594 3944 
L 2469 5119 
z
" transform="scale(0.015625)"/>
      <path id="DejaVuSans-70" d="M 1159 525 
L 1159 -1331 
L 581 -1331 
L 581 3500 
L 1159 3500 
L 1159 2969 
Q 1341 3281 1617 3432 
Q 1894 3584 2278 3584 
Q 2916 3584 3314 3078 
Q 3713 2572 3713 1747 
Q 3713 922 3314 415 
Q 2916 -91 2278 -91 
Q 1894 -91 1617 61 
Q 1341 213 1159 525 
z
M 3116 1747 
Q 3116 2381 2855 2742 
Q 2594 3103 2138 3103 
Q 1681 3103 1420 2742 
Q 1159 2381 1159 1747 
Q 1159 1113 1420 752 
Q 1681 391 2138 391 
Q 2594 391 2855 752 
Q 3116 1113 3116 1747 
z
" transform="scale(0.015625)"/>
      <path id="DejaVuSans-e1" d="M 2194 1759 
Q 1497 1759 1228 1600 
Q 959 1441 959 1056 
Q 959 750 1161 570 
Q 1363 391 1709 391 
Q 2188 391 2477 730 
Q 2766 1069 2766 1631 
L 2766 1759 
L 2194 1759 
z
M 3341 1997 
L 3341 0 
L 2766 0 
L 2766 531 
Q 2569 213 2275 61 
Q 1981 -91 1556 -91 
Q 1019 -91 701 211 
Q 384 513 384 1019 
Q 384 1609 779 1909 
Q 1175 2209 1959 2209 
L 2766 2209 
L 2766 2266 
Q 2766 2663 2505 2880 
Q 2244 3097 1772 3097 
Q 1472 3097 1187 3025 
Q 903 2953 641 2809 
L 641 3341 
Q 956 3463 1253 3523 
Q 1550 3584 1831 3584 
Q 2591 3584 2966 3190 
Q 3341 2797 3341 1997 
z
M 2291 5119 
L 2913 5119 
L 1894 3944 
L 1416 3944 
L 2291 5119 
z
" transform="scale(0.015625)"/>
      <path id="DejaVuSans-72" d="M 2631 2963 
Q 2534 3019 2420 3045 
Q 2306 3072 2169 3072 
Q 1681 3072 1420 2755 
Q 1159 2438 1159 1844 
L 1159 0 
L 581 0 
L 581 3500 
L 1159 3500 
L 1159 2956 
Q 1341 3275 1631 3429 
Q 1922 3584 2338 3584 
Q 2397 3584 2469 3576 
Q 2541 3569 2628 3553 
L 2631 2963 
z
" transform="scale(0.015625)"/>
     </defs>
     <use xlink:href="#DejaVuSans-44"/>
     <use xlink:href="#DejaVuSans-e9" x="77.001953"/>
     <use xlink:href="#DejaVuSans-6c" x="138.525391"/>
     <use xlink:href="#DejaVuSans-6b" x="166.308594"/>
     <use xlink:href="#DejaVuSans-61" x="222.46875"/>
     <use xlink:href="#DejaVuSans-20" x="283.748047"/>
     <use xlink:href="#DejaVuSans-73" x="315.535156"/>
     <use xlink:href="#DejaVuSans-70" x="367.634766"/>
     <use xlink:href="#DejaVuSans-e1" x="431.111328"/>
     <use xlink:href="#DejaVuSans-6e" x="492.390625"/>
     <use xlink:href="#DejaVuSans-6b" x="555.769531"/>
     <use xlink:href="#DejaVuSans-75" x="610.554688"/>
     <use xlink:href="#DejaVuSans-20" x="673.933594"/>
     <use xlink:href="#DejaVuSans-61" x="705.720703"/>
     <use xlink:href="#DejaVuSans-20" x="767"/>
     <use xlink:href="#DejaVuSans-10d" x="798.787109"/>
     <use xlink:href="#DejaVuSans-61" x="853.767578"/>
     <use xlink:href="#DejaVuSans-73" x="915.046875"/>
     <use xlink:href="#DejaVuSans-20" x="967.146484"/>
     <use xlink:href="#DejaVuSans-73" x="998.933594"/>
     <use xlink:href="#DejaVuSans-74" x="1051.033203"/>
     <use xlink:href="#DejaVuSans-72" x="1090.242188"/>
     <use xlink:href="#DejaVuSans-e1" x="1131.355469"/>
     <use xlink:href="#DejaVuSans-76" x="1192.634766"/>
     <use xlink:href="#DejaVuSans-65" x="1251.814453"/>
     <use xlink:href="#DejaVuSans-6e" x="1313.337891"/>
     <use xlink:href="#DejaVuSans-fd" x="1376.716797"/>
     <use xlink:href="#DejaVuSans-20" x="1435.896484"/>
     <use xlink:href="#DejaVuSans-61" x="1467.683594"/>
     <use xlink:href="#DejaVuSans-6b" x="1528.962891"/>
     <use xlink:href="#DejaVuSans-74" x="1586.873047"/>
     <use xlink:href="#DejaVuSans-69" x="1626.082031"/>
     <use xlink:href="#DejaVuSans-76" x="1653.865234"/>
     <use xlink:href="#DejaVuSans-69" x="1713.044922"/>
     <use xlink:href="#DejaVuSans-74" x="1740.828125"/>
     <use xlink:href="#DejaVuSans-61" x="1780.037109"/>
     <use xlink:href="#DejaVuSans-6d" x="1841.316406"/>
     <use xlink:href="#DejaVuSans-69" x="1938.728516"/>
     <use xlink:href="#DejaVuSans-20" x="1966.511719"/>
     <use xlink:href="#DejaVuSans-70" x="1998.298828"/>
     <use xlink:href="#DejaVuSans-6f" x="2061.775391"/>
     <use xlink:href="#DejaVuSans-64" x="2122.957031"/>
     <use xlink:href="#DejaVuSans-6c" x="2186.433594"/>
     <use xlink:href="#DejaVuSans-65" x="2214.216797"/>
     <use xlink:href="#DejaVuSans-20" x="2275.740234"/>
     <use xlink:href="#DejaVuSans-64" x="2307.527344"/>
     <use xlink:href="#DejaVuSans-61" x="2371.003906"/>
     <use xlink:href="#DejaVuSans-74" x="2432.283203"/>
     <use xlink:href="#DejaVuSans-61" x="2471.492188"/>
    </g>
   </g>
   <g id="legend_1">
    <g id="patch_7">
     <path d="M 696.1125 94.286562 
L 846.2 94.286562 
Q 848.2 94.286562 848.2 92.286562 
L 848.2 33.16 
Q 848.2 31.16 846.2 31.16 
L 696.1125 31.16 
Q 694.1125 31.16 694.1125 33.16 
L 694.1125 92.286562 
Q 694.1125 94.286562 696.1125 94.286562 
z
" style="fill: #ffffff; opacity: 0.8; stroke: #cccccc; stroke-linejoin: miter"/>
    </g>
    <g id="line2d_23">
     <path d="M 698.1125 39.658437 
L 708.1125 39.658437 
L 718.1125 39.658437 
" style="fill: none; stroke: #1f77b4; stroke-width: 1.5; stroke-linecap: square"/>
     <g>
      <use xlink:href="#m29b947d8e1" x="708.1125" y="39.658437" style="fill: #1f77b4; stroke: #1f77b4"/>
     </g>
    </g>
    <g id="text_22">
     <!-- Spánek -->
     <g transform="translate(726.1125 43.158437) scale(0.1 -0.1)">
      <defs>
       <path id="DejaVuSans-53" d="M 3425 4513 
L 3425 3897 
Q 3066 4069 2747 4153 
Q 2428 4238 2131 4238 
Q 1616 4238 1336 4038 
Q 1056 3838 1056 3469 
Q 1056 3159 1242 3001 
Q 1428 2844 1947 2747 
L 2328 2669 
Q 3034 2534 3370 2195 
Q 3706 1856 3706 1288 
Q 3706 609 3251 259 
Q 2797 -91 1919 -91 
Q 1588 -91 1214 -16 
Q 841 59 441 206 
L 441 856 
Q 825 641 1194 531 
Q 1563 422 1919 422 
Q 2459 422 2753 634 
Q 3047 847 3047 1241 
Q 3047 1584 2836 1778 
Q 2625 1972 2144 2069 
L 1759 2144 
Q 1053 2284 737 2584 
Q 422 2884 422 3419 
Q 422 4038 858 4394 
Q 1294 4750 2059 4750 
Q 2388 4750 2728 4690 
Q 3069 4631 3425 4513 
z
" transform="scale(0.015625)"/>
      </defs>
      <use xlink:href="#DejaVuSans-53"/>
      <use xlink:href="#DejaVuSans-70" x="63.476562"/>
      <use xlink:href="#DejaVuSans-e1" x="126.953125"/>
      <use xlink:href="#DejaVuSans-6e" x="188.232422"/>
      <use xlink:href="#DejaVuSans-65" x="251.611328"/>
      <use xlink:href="#DejaVuSans-6b" x="313.134766"/>
     </g>
    </g>
    <g id="line2d_24">
     <path d="M 698.1125 54.336562 
L 708.1125 54.336562 
L 718.1125 54.336562 
" style="fill: none; stroke: #ff7f0e; stroke-width: 1.5; stroke-linecap: square"/>
     <g>
      <use xlink:href="#mad3becc1b1" x="708.1125" y="54.336562" style="fill: #ff7f0e; stroke: #ff7f0e"/>
     </g>
    </g>
    <g id="text_23">
     <!-- Aktivity -->
     <g transform="translate(726.1125 57.836562) scale(0.1 -0.1)">
      <defs>
       <path id="DejaVuSans-41" d="M 2188 4044 
L 1331 1722 
L 3047 1722 
L 2188 4044 
z
M 1831 4666 
L 2547 4666 
L 4325 0 
L 3669 0 
L 3244 1197 
L 1141 1197 
L 716 0 
L 50 0 
L 1831 4666 
z
" transform="scale(0.015625)"/>
      </defs>
      <use xlink:href="#DejaVuSans-41"/>
      <use xlink:href="#DejaVuSans-6b" x="68.408203"/>
      <use xlink:href="#DejaVuSans-74" x="126.318359"/>
      <use xlink:href="#DejaVuSans-69" x="165.527344"/>
      <use xlink:href="#DejaVuSans-76" x="193.310547"/>
      <use xlink:href="#DejaVuSans-69" x="252.490234"/>
      <use xlink:href="#DejaVuSans-74" x="280.273438"/>
      <use xlink:href="#DejaVuSans-79" x="319.482422"/>
     </g>
    </g>
    <g id="line2d_25">
     <path d="M 698.1125 69.902187 
L 708.1125 69.902187 
L 718.1125 69.902187 
" style="fill: none; stroke-dasharray: 5.55,2.4; stroke-dashoffset: 0; stroke: #0000ff; stroke-width: 1.5"/>
    </g>
    <g id="text_24">
     <!-- Průměr spánku (7.12 h) -->
     <g transform="translate(726.1125 73.402187) scale(0.1 -0.1)">
      <defs>
       <path id="DejaVuSans-50" d="M 1259 4147 
L 1259 2394 
L 2053 2394 
Q 2494 2394 2734 2622 
Q 2975 2850 2975 3272 
Q 2975 3691 2734 3919 
Q 2494 4147 2053 4147 
L 1259 4147 
z
M 628 4666 
L 2053 4666 
Q 2838 4666 3239 4311 
Q 3641 3956 3641 3272 
Q 3641 2581 3239 2228 
Q 2838 1875 2053 1875 
L 1259 1875 
L 1259 0 
L 628 0 
L 628 4666 
z
" transform="scale(0.015625)"/>
       <path id="DejaVuSans-16f" d="M 544 1381 
L 544 3500 
L 1119 3500 
L 1119 1403 
Q 1119 906 1312 657 
Q 1506 409 1894 409 
Q 2359 409 2629 706 
Q 2900 1003 2900 1516 
L 2900 3500 
L 3475 3500 
L 3475 0 
L 2900 0 
L 2900 538 
Q 2691 219 2414 64 
Q 2138 -91 1772 -91 
Q 1169 -91 856 284 
Q 544 659 544 1381 
z
M 1991 3584 
L 1991 3584 
z
M 2463 4575 
Q 2463 4771 2325 4908 
Q 2188 5046 1988 5046 
Q 1784 5046 1648 4910 
Q 1513 4775 1513 4575 
Q 1513 4371 1648 4235 
Q 1784 4100 1988 4100 
Q 2188 4100 2325 4237 
Q 2463 4375 2463 4575 
z
M 2844 4575 
Q 2844 4215 2595 3965 
Q 2347 3715 1988 3715 
Q 1628 3715 1379 3965 
Q 1131 4215 1131 4575 
Q 1131 4934 1379 5182 
Q 1628 5431 1988 5431 
Q 2347 5431 2595 5182 
Q 2844 4934 2844 4575 
z
" transform="scale(0.015625)"/>
       <path id="DejaVuSans-11b" d="M 3597 1894 
L 3597 1613 
L 953 1613 
Q 991 1019 1311 708 
Q 1631 397 2203 397 
Q 2534 397 2845 478 
Q 3156 559 3463 722 
L 3463 178 
Q 3153 47 2828 -22 
Q 2503 -91 2169 -91 
Q 1331 -91 842 396 
Q 353 884 353 1716 
Q 353 2575 817 3079 
Q 1281 3584 2069 3584 
Q 2775 3584 3186 3129 
Q 3597 2675 3597 1894 
z
M 3022 2063 
Q 3016 2534 2758 2815 
Q 2500 3097 2075 3097 
Q 1594 3097 1305 2825 
Q 1016 2553 972 2059 
L 3022 2063 
z
M 1831 3928 
L 1066 5103 
L 1500 5103 
L 2063 4337 
L 2625 5103 
L 3059 5103 
L 2294 3928 
L 1831 3928 
z
" transform="scale(0.015625)"/>
       <path id="DejaVuSans-37" d="M 525 4666 
L 3525 4666 
L 3525 4397 
L 1831 0 
L 1172 0 
L 2766 4134 
L 525 4134 
L 525 4666 
z
" transform="scale(0.015625)"/>
       <path id="DejaVuSans-2e" d="M 684 794 
L 1344 794 
L 1344 0 
L 684 0 
L 684 794 
z
" transform="scale(0.015625)"/>
      </defs>
      <use xlink:href="#DejaVuSans-50"/>
      <use xlink:href="#DejaVuSans-72" x="58.552734"/>
      <use xlink:href="#DejaVuSans-16f" x="99.666016"/>
      <use xlink:href="#DejaVuSans-6d" x="163.044922"/>
      <use xlink:href="#DejaVuSans-11b" x="260.457031"/>
      <use xlink:href="#DejaVuSans-72" x="321.980469"/>
      <use xlink:href="#DejaVuSans-20" x="363.09375"/>
      <use xlink:href="#DejaVuSans-73" x="394.880859"/>
      <use xlink:href="#DejaVuSans-70" x="446.980469"/>
      <use xlink:href="#DejaVuSans-e1" x="510.457031"/>
      <use xlink:href="#DejaVuSans-6e" x="571.736328"/>
      <use xlink:href="#DejaVuSans-6b" x="635.115234"/>
      <use xlink:href="#DejaVuSans-75" x="689.900391"/>
      <use xlink:href="#DejaVuSans-20" x="753.279297"/>
      <use xlink:href="#DejaVuSans-28" x="785.066406"/>
      <use xlink:href="#DejaVuSans-37" x="824.080078"/>
      <use xlink:href="#DejaVuSans-2e" x="887.703125"/>
      <use xlink:href="#DejaVuSans-31" x="919.490234"/>
      <use xlink:href="#DejaVuSans-32" x="983.113281"/>
      <use xlink:href="#DejaVuSans-20" x="1046.736328"/>
      <use xlink:href="#DejaVuSans-68" x="1078.523438"/>
      <use xlink:href="#DejaVuSans-29" x="1141.902344"/>
     </g>
    </g>
    <g id="line2d_26">
     <path d="M 698.1125 84.706875 
L 708.1125 84.706875 
L 718.1125 84.706875 
" style="fill: none; stroke-dasharray: 5.55,2.4; stroke-dashoffset: 0; stroke: #ffa500; stroke-width: 1.5"/>
    </g>
    <g id="text_25">
     <!-- Průměr aktivit (5.80 h) -->
     <g transform="translate(726.1125 88.206875) scale(0.1 -0.1)">
      <use xlink:href="#DejaVuSans-50"/>
      <use xlink:href="#DejaVuSans-72" x="58.552734"/>
      <use xlink:href="#DejaVuSans-16f" x="99.666016"/>
      <use xlink:href="#DejaVuSans-6d" x="163.044922"/>
      <use xlink:href="#DejaVuSans-11b" x="260.457031"/>
      <use xlink:href="#DejaVuSans-72" x="321.980469"/>
      <use xlink:href="#DejaVuSans-20" x="363.09375"/>
      <use xlink:href="#DejaVuSans-61" x="394.880859"/>
      <use xlink:href="#DejaVuSans-6b" x="456.160156"/>
      <use xlink:href="#DejaVuSans-74" x="514.070312"/>
      <use xlink:href="#DejaVuSans-69" x="553.279297"/>
      <use xlink:href="#DejaVuSans-76" x="581.0625"/>
      <use xlink:href="#DejaVuSans-69" x="640.242188"/>
      <use xlink:href="#DejaVuSans-74" x="668.025391"/>
      <use xlink:href="#DejaVuSans-20" x="707.234375"/>
      <use xlink:href="#DejaVuSans-28" x="739.021484"/>
      <use xlink:href="#DejaVuSans-35" x="778.035156"/>
      <use xlink:href="#DejaVuSans-2e" x="841.658203"/>
      <use xlink:href="#DejaVuSans-38" x="873.445312"/>
      <use xlink:href="#DejaVuSans-30" x="937.068359"/>
      <use xlink:href="#DejaVuSans-20" x="1000.691406"/>
      <use xlink:href="#DejaVuSans-68" x="1032.478516"/>
      <use xlink:href="#DejaVuSans-29" x="1095.857422"/>
     </g>
    </g>
   </g>
  </g>
 </g>
 <defs>
  <clipPath id="paad2236d2a">
   <rect x="45.02" y="26.16" width="808.18" height="363.88"/>
  </clipPath>
 </defs>
</svg>
