<?xml version="1.0" encoding="utf-8" standalone="no"?>
<!DOCTYPE svg PUBLIC "-//W3C//DTD SVG 1.1//EN"
  "http://www.w3.org/Graphics/SVG/1.1/DTD/svg11.dtd">
<svg xmlns:xlink="http://www.w3.org/1999/xlink" width="864pt" height="432pt" viewBox="0 0 864 432" xmlns="http://www.w3.org/2000/svg" version="1.1">
 <metadata>
  <rdf:RDF xmlns:dc="http://purl.org/dc/elements/1.1/" xmlns:cc="http://creativecommons.org/ns#" xmlns:rdf="http://www.w3.org/1999/02/22-rdf-syntax-ns#">
   <cc:Work>
    <dc:type rdf:resource="http://purl.org/dc/dcmitype/StillImage"/>
    <dc:date>2025-02-18T02:09:48.682817</dc:date>
    <dc:format>image/svg+xml</dc:format>
    <dc:creator>
     <cc:Agent>
      <dc:title>Matplotlib v3.9.2, https://matplotlib.org/</dc:title>
     </cc:Agent>
    </dc:creator>
   </cc:Work>
  </rdf:RDF>
 </metadata>
 <defs>
  <style type="text/css">*{stroke-linejoin: round; stroke-linecap: butt}</style>
 </defs>
 <g id="figure_1">
  <g id="patch_1">
   <path d="M 0 432 
L 864 432 
L 864 0 
L 0 0 
z
" style="fill: #ffffff"/>
  </g>
  <g id="axes_1">
   <g id="patch_2">
    <path d="M 45.02 327.592682 
L 853.2 327.592682 
L 853.2 26.16 
L 45.02 26.16 
z
" style="fill: #ffffff"/>
   </g>
   <g id="patch_3">
    <path d="M 57.647813 327.592682 
L 82.903437 327.592682 
L 82.903437 317.234242 
L 57.647813 317.234242 
z
" clip-path="url(#p2a62eff4ea)" style="fill: #1f77b4"/>
   </g>
   <g id="patch_4">
    <path d="M 108.159063 327.592682 
L 133.414688 327.592682 
L 133.414688 303.942469 
L 108.159063 303.942469 
z
" clip-path="url(#p2a62eff4ea)" style="fill: #1f77b4"/>
   </g>
   <g id="patch_5">
    <path d="M 158.670313 327.592682 
L 183.925938 327.592682 
L 183.925938 176.543354 
L 158.670313 176.543354 
z
" clip-path="url(#p2a62eff4ea)" style="fill: #1f77b4"/>
   </g>
   <g id="patch_6">
    <path d="M 209.181563 327.592682 
L 234.437188 327.592682 
L 234.437188 249.03685 
L 209.181563 249.03685 
z
" clip-path="url(#p2a62eff4ea)" style="fill: #1f77b4"/>
   </g>
   <g id="patch_7">
    <path d="M 259.692813 327.592682 
L 284.948438 327.592682 
L 284.948438 261.726025 
L 259.692813 261.726025 
z
" clip-path="url(#p2a62eff4ea)" style="fill: #1f77b4"/>
   </g>
   <g id="patch_8">
    <path d="M 310.204063 327.592682 
L 335.459688 327.592682 
L 335.459688 316.165844 
L 310.204063 316.165844 
z
" clip-path="url(#p2a62eff4ea)" style="fill: #1f77b4"/>
   </g>
   <g id="patch_9">
    <path d="M 360.715313 327.592682 
L 385.970938 327.592682 
L 385.970938 297.66195 
L 360.715313 297.66195 
z
" clip-path="url(#p2a62eff4ea)" style="fill: #1f77b4"/>
   </g>
   <g id="patch_10">
    <path d="M 411.226562 327.592682 
L 436.482188 327.592682 
L 436.482188 254.146806 
L 411.226562 254.146806 
z
" clip-path="url(#p2a62eff4ea)" style="fill: #1f77b4"/>
   </g>
   <g id="patch_11">
    <path d="M 461.737813 327.592682 
L 486.993438 327.592682 
L 486.993438 163.971927 
L 461.737813 163.971927 
z
" clip-path="url(#p2a62eff4ea)" style="fill: #1f77b4"/>
   </g>
   <g id="patch_12">
    <path d="M 512.249063 327.592682 
L 537.504688 327.592682 
L 537.504688 316.434242 
L 512.249063 316.434242 
z
" clip-path="url(#p2a62eff4ea)" style="fill: #1f77b4"/>
   </g>
   <g id="patch_13">
    <path d="M 562.760313 327.592682 
L 588.015938 327.592682 
L 588.015938 327.592682 
L 562.760313 327.592682 
z
" clip-path="url(#p2a62eff4ea)" style="fill: #1f77b4"/>
   </g>
   <g id="patch_14">
    <path d="M 613.271563 327.592682 
L 638.527188 327.592682 
L 638.527188 156.458509 
L 613.271563 156.458509 
z
" clip-path="url(#p2a62eff4ea)" style="fill: #1f77b4"/>
   </g>
   <g id="patch_15">
    <path d="M 663.782813 327.592682 
L 689.038438 327.592682 
L 689.038438 327.592682 
L 663.782813 327.592682 
z
" clip-path="url(#p2a62eff4ea)" style="fill: #1f77b4"/>
   </g>
   <g id="patch_16">
    <path d="M 714.294062 327.592682 
L 739.549688 327.592682 
L 739.549688 327.592682 
L 714.294062 327.592682 
z
" clip-path="url(#p2a62eff4ea)" style="fill: #1f77b4"/>
   </g>
   <g id="patch_17">
    <path d="M 764.805313 327.592682 
L 790.060938 327.592682 
L 790.060938 327.592682 
L 764.805313 327.592682 
z
" clip-path="url(#p2a62eff4ea)" style="fill: #1f77b4"/>
   </g>
   <g id="patch_18">
    <path d="M 815.316563 327.592682 
L 840.572188 327.592682 
L 840.572188 327.592682 
L 815.316563 327.592682 
z
" clip-path="url(#p2a62eff4ea)" style="fill: #1f77b4"/>
   </g>
   <g id="patch_19">
    <path d="M 57.647813 317.234242 
L 82.903437 317.234242 
L 82.903437 244.4204 
L 57.647813 244.4204 
z
" clip-path="url(#p2a62eff4ea)" style="fill: #ff7f0e"/>
   </g>
   <g id="patch_20">
    <path d="M 108.159063 303.942469 
L 133.414688 303.942469 
L 133.414688 257.861091 
L 108.159063 257.861091 
z
" clip-path="url(#p2a62eff4ea)" style="fill: #ff7f0e"/>
   </g>
   <g id="patch_21">
    <path d="M 158.670313 176.543354 
L 183.925938 176.543354 
L 183.925938 169.244654 
L 158.670313 169.244654 
z
" clip-path="url(#p2a62eff4ea)" style="fill: #ff7f0e"/>
   </g>
   <g id="patch_22">
    <path d="M 209.181563 249.03685 
L 234.437188 249.03685 
L 234.437188 184.988374 
L 209.181563 184.988374 
z
" clip-path="url(#p2a62eff4ea)" style="fill: #ff7f0e"/>
   </g>
   <g id="patch_23">
    <path d="M 259.692813 261.726025 
L 284.948438 261.726025 
L 284.948438 229.28274 
L 259.692813 229.28274 
z
" clip-path="url(#p2a62eff4ea)" style="fill: #ff7f0e"/>
   </g>
   <g id="patch_24">
    <path d="M 310.204063 316.165844 
L 335.459688 316.165844 
L 335.459688 209.819539 
L 310.204063 209.819539 
z
" clip-path="url(#p2a62eff4ea)" style="fill: #ff7f0e"/>
   </g>
   <g id="patch_25">
    <path d="M 360.715313 297.66195 
L 385.970938 297.66195 
L 385.970938 261.296588 
L 360.715313 261.296588 
z
" clip-path="url(#p2a62eff4ea)" style="fill: #ff7f0e"/>
   </g>
   <g id="patch_26">
    <path d="M 411.226562 254.146806 
L 436.482188 254.146806 
L 436.482188 223.445511 
L 411.226562 223.445511 
z
" clip-path="url(#p2a62eff4ea)" style="fill: #ff7f0e"/>
   </g>
   <g id="patch_27">
    <path d="M 461.737813 163.971927 
L 486.993438 163.971927 
L 486.993438 63.052462 
L 461.737813 63.052462 
z
" clip-path="url(#p2a62eff4ea)" style="fill: #ff7f0e"/>
   </g>
   <g id="patch_28">
    <path d="M 512.249063 316.434242 
L 537.504688 316.434242 
L 537.504688 203.705255 
L 512.249063 203.705255 
z
" clip-path="url(#p2a62eff4ea)" style="fill: #ff7f0e"/>
   </g>
   <g id="patch_29">
    <path d="M 562.760313 327.592682 
L 588.015938 327.592682 
L 588.015938 327.592682 
L 562.760313 327.592682 
z
" clip-path="url(#p2a62eff4ea)" style="fill: #ff7f0e"/>
   </g>
   <g id="patch_30">
    <path d="M 613.271563 156.458509 
L 638.527188 156.458509 
L 638.527188 143.783186 
L 613.271563 143.783186 
z
" clip-path="url(#p2a62eff4ea)" style="fill: #ff7f0e"/>
   </g>
   <g id="patch_31">
    <path d="M 663.782813 327.592682 
L 689.038438 327.592682 
L 689.038438 234.086202 
L 663.782813 234.086202 
z
" clip-path="url(#p2a62eff4ea)" style="fill: #ff7f0e"/>
   </g>
   <g id="patch_32">
    <path d="M 714.294062 327.592682 
L 739.549688 327.592682 
L 739.549688 327.592682 
L 714.294062 327.592682 
z
" clip-path="url(#p2a62eff4ea)" style="fill: #ff7f0e"/>
   </g>
   <g id="patch_33">
    <path d="M 764.805313 327.592682 
L 790.060938 327.592682 
L 790.060938 327.592682 
L 764.805313 327.592682 
z
" clip-path="url(#p2a62eff4ea)" style="fill: #ff7f0e"/>
   </g>
   <g id="patch_34">
    <path d="M 815.316563 327.592682 
L 840.572188 327.592682 
L 840.572188 327.592682 
L 815.316563 327.592682 
z
" clip-path="url(#p2a62eff4ea)" style="fill: #ff7f0e"/>
   </g>
   <g id="patch_35">
    <path d="M 57.647813 244.4204 
L 82.903437 244.4204 
L 82.903437 234.00828 
L 57.647813 234.00828 
z
" clip-path="url(#p2a62eff4ea)" style="fill: #2ca02c"/>
   </g>
   <g id="patch_36">
    <path d="M 108.159063 257.861091 
L 133.414688 257.861091 
L 133.414688 241.128626 
L 108.159063 241.128626 
z
" clip-path="url(#p2a62eff4ea)" style="fill: #2ca02c"/>
   </g>
   <g id="patch_37">
    <path d="M 158.670313 169.244654 
L 183.925938 169.244654 
L 183.925938 160.964136 
L 158.670313 160.964136 
z
" clip-path="url(#p2a62eff4ea)" style="fill: #2ca02c"/>
   </g>
   <g id="patch_38">
    <path d="M 209.181563 184.988374 
L 234.437188 184.988374 
L 234.437188 177.720843 
L 209.181563 177.720843 
z
" clip-path="url(#p2a62eff4ea)" style="fill: #2ca02c"/>
   </g>
   <g id="patch_39">
    <path d="M 259.692813 327.592682 
L 284.948438 327.592682 
L 284.948438 327.592682 
L 259.692813 327.592682 
z
" clip-path="url(#p2a62eff4ea)" style="fill: #2ca02c"/>
   </g>
   <g id="patch_40">
    <path d="M 310.204063 327.592682 
L 335.459688 327.592682 
L 335.459688 327.592682 
L 310.204063 327.592682 
z
" clip-path="url(#p2a62eff4ea)" style="fill: #2ca02c"/>
   </g>
   <g id="patch_41">
    <path d="M 360.715313 261.296588 
L 385.970938 261.296588 
L 385.970938 254.28187 
L 360.715313 254.28187 
z
" clip-path="url(#p2a62eff4ea)" style="fill: #2ca02c"/>
   </g>
   <g id="patch_42">
    <path d="M 411.226562 327.592682 
L 436.482188 327.592682 
L 436.482188 327.592682 
L 411.226562 327.592682 
z
" clip-path="url(#p2a62eff4ea)" style="fill: #2ca02c"/>
   </g>
   <g id="patch_43">
    <path d="M 461.737813 327.592682 
L 486.993438 327.592682 
L 486.993438 327.592682 
L 461.737813 327.592682 
z
" clip-path="url(#p2a62eff4ea)" style="fill: #2ca02c"/>
   </g>
   <g id="patch_44">
    <path d="M 512.249063 203.705255 
L 537.504688 203.705255 
L 537.504688 161.357209 
L 512.249063 161.357209 
z
" clip-path="url(#p2a62eff4ea)" style="fill: #2ca02c"/>
   </g>
   <g id="patch_45">
    <path d="M 562.760313 327.592682 
L 588.015938 327.592682 
L 588.015938 301.227318 
L 562.760313 301.227318 
z
" clip-path="url(#p2a62eff4ea)" style="fill: #2ca02c"/>
   </g>
   <g id="patch_46">
    <path d="M 613.271563 327.592682 
L 638.527188 327.592682 
L 638.527188 327.592682 
L 613.271563 327.592682 
z
" clip-path="url(#p2a62eff4ea)" style="fill: #2ca02c"/>
   </g>
   <g id="patch_47">
    <path d="M 663.782813 327.592682 
L 689.038438 327.592682 
L 689.038438 327.592682 
L 663.782813 327.592682 
z
" clip-path="url(#p2a62eff4ea)" style="fill: #2ca02c"/>
   </g>
   <g id="patch_48">
    <path d="M 714.294062 327.592682 
L 739.549688 327.592682 
L 739.549688 327.592682 
L 714.294062 327.592682 
z
" clip-path="url(#p2a62eff4ea)" style="fill: #2ca02c"/>
   </g>
   <g id="patch_49">
    <path d="M 764.805313 327.592682 
L 790.060938 327.592682 
L 790.060938 327.592682 
L 764.805313 327.592682 
z
" clip-path="url(#p2a62eff4ea)" style="fill: #2ca02c"/>
   </g>
   <g id="patch_50">
    <path d="M 815.316563 327.592682 
L 840.572188 327.592682 
L 840.572188 327.592682 
L 815.316563 327.592682 
z
" clip-path="url(#p2a62eff4ea)" style="fill: #2ca02c"/>
   </g>
   <g id="patch_51">
    <path d="M 57.647813 234.00828 
L 82.903437 234.00828 
L 82.903437 210.11218 
L 57.647813 210.11218 
z
" clip-path="url(#p2a62eff4ea)" style="fill: #d62728"/>
   </g>
   <g id="patch_52">
    <path d="M 108.159063 241.128626 
L 133.414688 241.128626 
L 133.414688 144.95548 
L 108.159063 144.95548 
z
" clip-path="url(#p2a62eff4ea)" style="fill: #d62728"/>
   </g>
   <g id="patch_53">
    <path d="M 158.670313 160.964136 
L 183.925938 160.964136 
L 183.925938 46.877573 
L 158.670313 46.877573 
z
" clip-path="url(#p2a62eff4ea)" style="fill: #d62728"/>
   </g>
   <g id="patch_54">
    <path d="M 209.181563 177.720843 
L 234.437188 177.720843 
L 234.437188 161.739893 
L 209.181563 161.739893 
z
" clip-path="url(#p2a62eff4ea)" style="fill: #d62728"/>
   </g>
   <g id="patch_55">
    <path d="M 259.692813 229.28274 
L 284.948438 229.28274 
L 284.948438 207.223869 
L 259.692813 207.223869 
z
" clip-path="url(#p2a62eff4ea)" style="fill: #d62728"/>
   </g>
   <g id="patch_56">
    <path d="M 310.204063 209.819539 
L 335.459688 209.819539 
L 335.459688 199.494 
L 310.204063 199.494 
z
" clip-path="url(#p2a62eff4ea)" style="fill: #d62728"/>
   </g>
   <g id="patch_57">
    <path d="M 360.715313 254.28187 
L 385.970938 254.28187 
L 385.970938 213.488803 
L 360.715313 213.488803 
z
" clip-path="url(#p2a62eff4ea)" style="fill: #d62728"/>
   </g>
   <g id="patch_58">
    <path d="M 411.226562 223.445511 
L 436.482188 223.445511 
L 436.482188 118.010029 
L 411.226562 118.010029 
z
" clip-path="url(#p2a62eff4ea)" style="fill: #d62728"/>
   </g>
   <g id="patch_59">
    <path d="M 461.737813 63.052462 
L 486.993438 63.052462 
L 486.993438 52.534715 
L 461.737813 52.534715 
z
" clip-path="url(#p2a62eff4ea)" style="fill: #d62728"/>
   </g>
   <g id="patch_60">
    <path d="M 512.249063 161.357209 
L 537.504688 161.357209 
L 537.504688 142.971065 
L 512.249063 142.971065 
z
" clip-path="url(#p2a62eff4ea)" style="fill: #d62728"/>
   </g>
   <g id="patch_61">
    <path d="M 562.760313 301.227318 
L 588.015938 301.227318 
L 588.015938 169.590974 
L 562.760313 169.590974 
z
" clip-path="url(#p2a62eff4ea)" style="fill: #d62728"/>
   </g>
   <g id="patch_62">
    <path d="M 613.271563 327.592682 
L 638.527188 327.592682 
L 638.527188 327.592682 
L 613.271563 327.592682 
z
" clip-path="url(#p2a62eff4ea)" style="fill: #d62728"/>
   </g>
   <g id="patch_63">
    <path d="M 663.782813 327.592682 
L 689.038438 327.592682 
L 689.038438 327.592682 
L 663.782813 327.592682 
z
" clip-path="url(#p2a62eff4ea)" style="fill: #d62728"/>
   </g>
   <g id="patch_64">
    <path d="M 714.294062 327.592682 
L 739.549688 327.592682 
L 739.549688 125.831673 
L 714.294062 125.831673 
z
" clip-path="url(#p2a62eff4ea)" style="fill: #d62728"/>
   </g>
   <g id="patch_65">
    <path d="M 764.805313 327.592682 
L 790.060938 327.592682 
L 790.060938 290.950263 
L 764.805313 290.950263 
z
" clip-path="url(#p2a62eff4ea)" style="fill: #d62728"/>
   </g>
   <g id="patch_66">
    <path d="M 815.316563 327.592682 
L 840.572188 327.592682 
L 840.572188 267.431652 
L 815.316563 267.431652 
z
" clip-path="url(#p2a62eff4ea)" style="fill: #d62728"/>
   </g>
   <g id="patch_67">
    <path d="M 57.647813 210.11218 
L 82.903437 210.11218 
L 82.903437 191.760668 
L 57.647813 191.760668 
z
" clip-path="url(#p2a62eff4ea)" style="fill: #9467bd"/>
   </g>
   <g id="patch_68">
    <path d="M 108.159063 144.95548 
L 133.414688 144.95548 
L 133.414688 128.44466 
L 108.159063 128.44466 
z
" clip-path="url(#p2a62eff4ea)" style="fill: #9467bd"/>
   </g>
   <g id="patch_69">
    <path d="M 158.670313 46.877573 
L 183.925938 46.877573 
L 183.925938 46.875841 
L 158.670313 46.875841 
z
" clip-path="url(#p2a62eff4ea)" style="fill: #9467bd"/>
   </g>
   <g id="patch_70">
    <path d="M 209.181563 161.739893 
L 234.437188 161.739893 
L 234.437188 141.412623 
L 209.181563 141.412623 
z
" clip-path="url(#p2a62eff4ea)" style="fill: #9467bd"/>
   </g>
   <g id="patch_71">
    <path d="M 259.692813 207.223869 
L 284.948438 207.223869 
L 284.948438 207.210016 
L 259.692813 207.210016 
z
" clip-path="url(#p2a62eff4ea)" style="fill: #9467bd"/>
   </g>
   <g id="patch_72">
    <path d="M 310.204063 199.494 
L 335.459688 199.494 
L 335.459688 145.246389 
L 310.204063 145.246389 
z
" clip-path="url(#p2a62eff4ea)" style="fill: #9467bd"/>
   </g>
   <g id="patch_73">
    <path d="M 360.715313 213.488803 
L 385.970938 213.488803 
L 385.970938 141.786649 
L 360.715313 141.786649 
z
" clip-path="url(#p2a62eff4ea)" style="fill: #9467bd"/>
   </g>
   <g id="patch_74">
    <path d="M 411.226562 327.592682 
L 436.482188 327.592682 
L 436.482188 327.592682 
L 411.226562 327.592682 
z
" clip-path="url(#p2a62eff4ea)" style="fill: #9467bd"/>
   </g>
   <g id="patch_75">
    <path d="M 461.737813 327.592682 
L 486.993438 327.592682 
L 486.993438 327.592682 
L 461.737813 327.592682 
z
" clip-path="url(#p2a62eff4ea)" style="fill: #9467bd"/>
   </g>
   <g id="patch_76">
    <path d="M 512.249063 142.971065 
L 537.504688 142.971065 
L 537.504688 101.933841 
L 512.249063 101.933841 
z
" clip-path="url(#p2a62eff4ea)" style="fill: #9467bd"/>
   </g>
   <g id="patch_77">
    <path d="M 562.760313 169.590974 
L 588.015938 169.590974 
L 588.015938 40.513937 
L 562.760313 40.513937 
z
" clip-path="url(#p2a62eff4ea)" style="fill: #9467bd"/>
   </g>
   <g id="patch_78">
    <path d="M 613.271563 327.592682 
L 638.527188 327.592682 
L 638.527188 327.592682 
L 613.271563 327.592682 
z
" clip-path="url(#p2a62eff4ea)" style="fill: #9467bd"/>
   </g>
   <g id="patch_79">
    <path d="M 663.782813 234.086202 
L 689.038438 234.086202 
L 689.038438 149.819548 
L 663.782813 149.819548 
z
" clip-path="url(#p2a62eff4ea)" style="fill: #9467bd"/>
   </g>
   <g id="patch_80">
    <path d="M 714.294062 327.592682 
L 739.549688 327.592682 
L 739.549688 327.592682 
L 714.294062 327.592682 
z
" clip-path="url(#p2a62eff4ea)" style="fill: #9467bd"/>
   </g>
   <g id="patch_81">
    <path d="M 764.805313 327.592682 
L 790.060938 327.592682 
L 790.060938 327.592682 
L 764.805313 327.592682 
z
" clip-path="url(#p2a62eff4ea)" style="fill: #9467bd"/>
   </g>
   <g id="patch_82">
    <path d="M 815.316563 327.592682 
L 840.572188 327.592682 
L 840.572188 327.592682 
L 815.316563 327.592682 
z
" clip-path="url(#p2a62eff4ea)" style="fill: #9467bd"/>
   </g>
   <g id="patch_83">
    <path d="M 57.647813 191.760668 
L 82.903437 191.760668 
L 82.903437 174.558939 
L 57.647813 174.558939 
z
" clip-path="url(#p2a62eff4ea)" style="fill: #8c564b"/>
   </g>
   <g id="patch_84">
    <path d="M 108.159063 128.44466 
L 133.414688 128.44466 
L 133.414688 119.350289 
L 108.159063 119.350289 
z
" clip-path="url(#p2a62eff4ea)" style="fill: #8c564b"/>
   </g>
   <g id="patch_85">
    <path d="M 158.670313 327.592682 
L 183.925938 327.592682 
L 183.925938 327.592682 
L 158.670313 327.592682 
z
" clip-path="url(#p2a62eff4ea)" style="fill: #8c564b"/>
   </g>
   <g id="patch_86">
    <path d="M 209.181563 141.412623 
L 234.437188 141.412623 
L 234.437188 130.960677 
L 209.181563 130.960677 
z
" clip-path="url(#p2a62eff4ea)" style="fill: #8c564b"/>
   </g>
   <g id="patch_87">
    <path d="M 259.692813 207.210016 
L 284.948438 207.210016 
L 284.948438 79.629083 
L 259.692813 79.629083 
z
" clip-path="url(#p2a62eff4ea)" style="fill: #8c564b"/>
   </g>
   <g id="patch_88">
    <path d="M 310.204063 145.246389 
L 335.459688 145.246389 
L 335.459688 130.699205 
L 310.204063 130.699205 
z
" clip-path="url(#p2a62eff4ea)" style="fill: #8c564b"/>
   </g>
   <g id="patch_89">
    <path d="M 360.715313 141.786649 
L 385.970938 141.786649 
L 385.970938 105.952888 
L 360.715313 105.952888 
z
" clip-path="url(#p2a62eff4ea)" style="fill: #8c564b"/>
   </g>
   <g id="patch_90">
    <path d="M 411.226562 118.010029 
L 436.482188 118.010029 
L 436.482188 112.844662 
L 411.226562 112.844662 
z
" clip-path="url(#p2a62eff4ea)" style="fill: #8c564b"/>
   </g>
   <g id="patch_91">
    <path d="M 461.737813 52.534715 
L 486.993438 52.534715 
L 486.993438 41.14424 
L 461.737813 41.14424 
z
" clip-path="url(#p2a62eff4ea)" style="fill: #8c564b"/>
   </g>
   <g id="patch_92">
    <path d="M 512.249063 327.592682 
L 537.504688 327.592682 
L 537.504688 327.592682 
L 512.249063 327.592682 
z
" clip-path="url(#p2a62eff4ea)" style="fill: #8c564b"/>
   </g>
   <g id="patch_93">
    <path d="M 562.760313 327.592682 
L 588.015938 327.592682 
L 588.015938 327.592682 
L 562.760313 327.592682 
z
" clip-path="url(#p2a62eff4ea)" style="fill: #8c564b"/>
   </g>
   <g id="patch_94">
    <path d="M 613.271563 327.592682 
L 638.527188 327.592682 
L 638.527188 327.592682 
L 613.271563 327.592682 
z
" clip-path="url(#p2a62eff4ea)" style="fill: #8c564b"/>
   </g>
   <g id="patch_95">
    <path d="M 663.782813 327.592682 
L 689.038438 327.592682 
L 689.038438 327.592682 
L 663.782813 327.592682 
z
" clip-path="url(#p2a62eff4ea)" style="fill: #8c564b"/>
   </g>
   <g id="patch_96">
    <path d="M 714.294062 327.592682 
L 739.549688 327.592682 
L 739.549688 327.592682 
L 714.294062 327.592682 
z
" clip-path="url(#p2a62eff4ea)" style="fill: #8c564b"/>
   </g>
   <g id="patch_97">
    <path d="M 764.805313 290.950263 
L 790.060938 290.950263 
L 790.060938 213.859366 
L 764.805313 213.859366 
z
" clip-path="url(#p2a62eff4ea)" style="fill: #8c564b"/>
   </g>
   <g id="patch_98">
    <path d="M 815.316563 327.592682 
L 840.572188 327.592682 
L 840.572188 327.592682 
L 815.316563 327.592682 
z
" clip-path="url(#p2a62eff4ea)" style="fill: #8c564b"/>
   </g>
   <g id="matplotlib.axis_1">
    <g id="xtick_1">
     <g id="line2d_1">
      <defs>
       <path id="m08a653ab1c" d="M 0 0 
L 0 3.5 
" style="stroke: #000000; stroke-width: 0.8"/>
      </defs>
      <g>
       <use xlink:href="#m08a653ab1c" x="70.275625" y="327.592682" style="stroke: #000000; stroke-width: 0.8"/>
      </g>
     </g>
     <g id="text_1">
      <!-- Týden 3 -->
      <g transform="translate(41.338385 367.71511) rotate(-45) scale(0.1 -0.1)">
       <defs>
        <path id="DejaVuSans-54" d="M -19 4666 
L 3928 4666 
L 3928 4134 
L 2272 4134 
L 2272 0 
L 1638 0 
L 1638 4134 
L -19 4134 
L -19 4666 
z
" transform="scale(0.015625)"/>
        <path id="DejaVuSans-fd" d="M 2059 -325 
Q 1816 -950 1584 -1140 
Q 1353 -1331 966 -1331 
L 506 -1331 
L 506 -850 
L 844 -850 
Q 1081 -850 1212 -737 
Q 1344 -625 1503 -206 
L 1606 56 
L 191 3500 
L 800 3500 
L 1894 763 
L 2988 3500 
L 3597 3500 
L 2059 -325 
z
M 2328 5119 
L 2950 5119 
L 1931 3944 
L 1453 3944 
L 2328 5119 
z
" transform="scale(0.015625)"/>
        <path id="DejaVuSans-64" d="M 2906 2969 
L 2906 4863 
L 3481 4863 
L 3481 0 
L 2906 0 
L 2906 525 
Q 2725 213 2448 61 
Q 2172 -91 1784 -91 
Q 1150 -91 751 415 
Q 353 922 353 1747 
Q 353 2572 751 3078 
Q 1150 3584 1784 3584 
Q 2172 3584 2448 3432 
Q 2725 3281 2906 2969 
z
M 947 1747 
Q 947 1113 1208 752 
Q 1469 391 1925 391 
Q 2381 391 2643 752 
Q 2906 1113 2906 1747 
Q 2906 2381 2643 2742 
Q 2381 3103 1925 3103 
Q 1469 3103 1208 2742 
Q 947 2381 947 1747 
z
" transform="scale(0.015625)"/>
        <path id="DejaVuSans-65" d="M 3597 1894 
L 3597 1613 
L 953 1613 
Q 991 1019 1311 708 
Q 1631 397 2203 397 
Q 2534 397 2845 478 
Q 3156 559 3463 722 
L 3463 178 
Q 3153 47 2828 -22 
Q 2503 -91 2169 -91 
Q 1331 -91 842 396 
Q 353 884 353 1716 
Q 353 2575 817 3079 
Q 1281 3584 2069 3584 
Q 2775 3584 3186 3129 
Q 3597 2675 3597 1894 
z
M 3022 2063 
Q 3016 2534 2758 2815 
Q 2500 3097 2075 3097 
Q 1594 3097 1305 2825 
Q 1016 2553 972 2059 
L 3022 2063 
z
" transform="scale(0.015625)"/>
        <path id="DejaVuSans-6e" d="M 3513 2113 
L 3513 0 
L 2938 0 
L 2938 2094 
Q 2938 2591 2744 2837 
Q 2550 3084 2163 3084 
Q 1697 3084 1428 2787 
Q 1159 2491 1159 1978 
L 1159 0 
L 581 0 
L 581 3500 
L 1159 3500 
L 1159 2956 
Q 1366 3272 1645 3428 
Q 1925 3584 2291 3584 
Q 2894 3584 3203 3211 
Q 3513 2838 3513 2113 
z
" transform="scale(0.015625)"/>
        <path id="DejaVuSans-20" transform="scale(0.015625)"/>
        <path id="DejaVuSans-33" d="M 2597 2516 
Q 3050 2419 3304 2112 
Q 3559 1806 3559 1356 
Q 3559 666 3084 287 
Q 2609 -91 1734 -91 
Q 1441 -91 1130 -33 
Q 819 25 488 141 
L 488 750 
Q 750 597 1062 519 
Q 1375 441 1716 441 
Q 2309 441 2620 675 
Q 2931 909 2931 1356 
Q 2931 1769 2642 2001 
Q 2353 2234 1838 2234 
L 1294 2234 
L 1294 2753 
L 1863 2753 
Q 2328 2753 2575 2939 
Q 2822 3125 2822 3475 
Q 2822 3834 2567 4026 
Q 2313 4219 1838 4219 
Q 1578 4219 1281 4162 
Q 984 4106 628 3988 
L 628 4550 
Q 988 4650 1302 4700 
Q 1616 4750 1894 4750 
Q 2613 4750 3031 4423 
Q 3450 4097 3450 3541 
Q 3450 3153 3228 2886 
Q 3006 2619 2597 2516 
z
" transform="scale(0.015625)"/>
       </defs>
       <use xlink:href="#DejaVuSans-54"/>
       <use xlink:href="#DejaVuSans-fd" x="45.458984"/>
       <use xlink:href="#DejaVuSans-64" x="104.638672"/>
       <use xlink:href="#DejaVuSans-65" x="168.115234"/>
       <use xlink:href="#DejaVuSans-6e" x="229.638672"/>
       <use xlink:href="#DejaVuSans-20" x="293.017578"/>
       <use xlink:href="#DejaVuSans-33" x="324.804688"/>
      </g>
     </g>
    </g>
    <g id="xtick_2">
     <g id="line2d_2">
      <g>
       <use xlink:href="#m08a653ab1c" x="120.786875" y="327.592682" style="stroke: #000000; stroke-width: 0.8"/>
      </g>
     </g>
     <g id="text_2">
      <!-- Týden 4 -->
      <g transform="translate(91.849635 367.71511) rotate(-45) scale(0.1 -0.1)">
       <defs>
        <path id="DejaVuSans-34" d="M 2419 4116 
L 825 1625 
L 2419 1625 
L 2419 4116 
z
M 2253 4666 
L 3047 4666 
L 3047 1625 
L 3713 1625 
L 3713 1100 
L 3047 1100 
L 3047 0 
L 2419 0 
L 2419 1100 
L 313 1100 
L 313 1709 
L 2253 4666 
z
" transform="scale(0.015625)"/>
       </defs>
       <use xlink:href="#DejaVuSans-54"/>
       <use xlink:href="#DejaVuSans-fd" x="45.458984"/>
       <use xlink:href="#DejaVuSans-64" x="104.638672"/>
       <use xlink:href="#DejaVuSans-65" x="168.115234"/>
       <use xlink:href="#DejaVuSans-6e" x="229.638672"/>
       <use xlink:href="#DejaVuSans-20" x="293.017578"/>
       <use xlink:href="#DejaVuSans-34" x="324.804688"/>
      </g>
     </g>
    </g>
    <g id="xtick_3">
     <g id="line2d_3">
      <g>
       <use xlink:href="#m08a653ab1c" x="171.298125" y="327.592682" style="stroke: #000000; stroke-width: 0.8"/>
      </g>
     </g>
     <g id="text_3">
      <!-- Týden 5 -->
      <g transform="translate(142.360885 367.71511) rotate(-45) scale(0.1 -0.1)">
       <defs>
        <path id="DejaVuSans-35" d="M 691 4666 
L 3169 4666 
L 3169 4134 
L 1269 4134 
L 1269 2991 
Q 1406 3038 1543 3061 
Q 1681 3084 1819 3084 
Q 2600 3084 3056 2656 
Q 3513 2228 3513 1497 
Q 3513 744 3044 326 
Q 2575 -91 1722 -91 
Q 1428 -91 1123 -41 
Q 819 9 494 109 
L 494 744 
Q 775 591 1075 516 
Q 1375 441 1709 441 
Q 2250 441 2565 725 
Q 2881 1009 2881 1497 
Q 2881 1984 2565 2268 
Q 2250 2553 1709 2553 
Q 1456 2553 1204 2497 
Q 953 2441 691 2322 
L 691 4666 
z
" transform="scale(0.015625)"/>
       </defs>
       <use xlink:href="#DejaVuSans-54"/>
       <use xlink:href="#DejaVuSans-fd" x="45.458984"/>
       <use xlink:href="#DejaVuSans-64" x="104.638672"/>
       <use xlink:href="#DejaVuSans-65" x="168.115234"/>
       <use xlink:href="#DejaVuSans-6e" x="229.638672"/>
       <use xlink:href="#DejaVuSans-20" x="293.017578"/>
       <use xlink:href="#DejaVuSans-35" x="324.804688"/>
      </g>
     </g>
    </g>
    <g id="xtick_4">
     <g id="line2d_4">
      <g>
       <use xlink:href="#m08a653ab1c" x="221.809375" y="327.592682" style="stroke: #000000; stroke-width: 0.8"/>
      </g>
     </g>
     <g id="text_4">
      <!-- Týden 6 -->
      <g transform="translate(192.872135 367.71511) rotate(-45) scale(0.1 -0.1)">
       <defs>
        <path id="DejaVuSans-36" d="M 2113 2584 
Q 1688 2584 1439 2293 
Q 1191 2003 1191 1497 
Q 1191 994 1439 701 
Q 1688 409 2113 409 
Q 2538 409 2786 701 
Q 3034 994 3034 1497 
Q 3034 2003 2786 2293 
Q 2538 2584 2113 2584 
z
M 3366 4563 
L 3366 3988 
Q 3128 4100 2886 4159 
Q 2644 4219 2406 4219 
Q 1781 4219 1451 3797 
Q 1122 3375 1075 2522 
Q 1259 2794 1537 2939 
Q 1816 3084 2150 3084 
Q 2853 3084 3261 2657 
Q 3669 2231 3669 1497 
Q 3669 778 3244 343 
Q 2819 -91 2113 -91 
Q 1303 -91 875 529 
Q 447 1150 447 2328 
Q 447 3434 972 4092 
Q 1497 4750 2381 4750 
Q 2619 4750 2861 4703 
Q 3103 4656 3366 4563 
z
" transform="scale(0.015625)"/>
       </defs>
       <use xlink:href="#DejaVuSans-54"/>
       <use xlink:href="#DejaVuSans-fd" x="45.458984"/>
       <use xlink:href="#DejaVuSans-64" x="104.638672"/>
       <use xlink:href="#DejaVuSans-65" x="168.115234"/>
       <use xlink:href="#DejaVuSans-6e" x="229.638672"/>
       <use xlink:href="#DejaVuSans-20" x="293.017578"/>
       <use xlink:href="#DejaVuSans-36" x="324.804688"/>
      </g>
     </g>
    </g>
    <g id="xtick_5">
     <g id="line2d_5">
      <g>
       <use xlink:href="#m08a653ab1c" x="272.320625" y="327.592682" style="stroke: #000000; stroke-width: 0.8"/>
      </g>
     </g>
     <g id="text_5">
      <!-- Týden 7 -->
      <g transform="translate(243.383385 367.71511) rotate(-45) scale(0.1 -0.1)">
       <defs>
        <path id="DejaVuSans-37" d="M 525 4666 
L 3525 4666 
L 3525 4397 
L 1831 0 
L 1172 0 
L 2766 4134 
L 525 4134 
L 525 4666 
z
" transform="scale(0.015625)"/>
       </defs>
       <use xlink:href="#DejaVuSans-54"/>
       <use xlink:href="#DejaVuSans-fd" x="45.458984"/>
       <use xlink:href="#DejaVuSans-64" x="104.638672"/>
       <use xlink:href="#DejaVuSans-65" x="168.115234"/>
       <use xlink:href="#DejaVuSans-6e" x="229.638672"/>
       <use xlink:href="#DejaVuSans-20" x="293.017578"/>
       <use xlink:href="#DejaVuSans-37" x="324.804688"/>
      </g>
     </g>
    </g>
    <g id="xtick_6">
     <g id="line2d_6">
      <g>
       <use xlink:href="#m08a653ab1c" x="322.831875" y="327.592682" style="stroke: #000000; stroke-width: 0.8"/>
      </g>
     </g>
     <g id="text_6">
      <!-- Týden 8 -->
      <g transform="translate(293.894635 367.71511) rotate(-45) scale(0.1 -0.1)">
       <defs>
        <path id="DejaVuSans-38" d="M 2034 2216 
Q 1584 2216 1326 1975 
Q 1069 1734 1069 1313 
Q 1069 891 1326 650 
Q 1584 409 2034 409 
Q 2484 409 2743 651 
Q 3003 894 3003 1313 
Q 3003 1734 2745 1975 
Q 2488 2216 2034 2216 
z
M 1403 2484 
Q 997 2584 770 2862 
Q 544 3141 544 3541 
Q 544 4100 942 4425 
Q 1341 4750 2034 4750 
Q 2731 4750 3128 4425 
Q 3525 4100 3525 3541 
Q 3525 3141 3298 2862 
Q 3072 2584 2669 2484 
Q 3125 2378 3379 2068 
Q 3634 1759 3634 1313 
Q 3634 634 3220 271 
Q 2806 -91 2034 -91 
Q 1263 -91 848 271 
Q 434 634 434 1313 
Q 434 1759 690 2068 
Q 947 2378 1403 2484 
z
M 1172 3481 
Q 1172 3119 1398 2916 
Q 1625 2713 2034 2713 
Q 2441 2713 2670 2916 
Q 2900 3119 2900 3481 
Q 2900 3844 2670 4047 
Q 2441 4250 2034 4250 
Q 1625 4250 1398 4047 
Q 1172 3844 1172 3481 
z
" transform="scale(0.015625)"/>
       </defs>
       <use xlink:href="#DejaVuSans-54"/>
       <use xlink:href="#DejaVuSans-fd" x="45.458984"/>
       <use xlink:href="#DejaVuSans-64" x="104.638672"/>
       <use xlink:href="#DejaVuSans-65" x="168.115234"/>
       <use xlink:href="#DejaVuSans-6e" x="229.638672"/>
       <use xlink:href="#DejaVuSans-20" x="293.017578"/>
       <use xlink:href="#DejaVuSans-38" x="324.804688"/>
      </g>
     </g>
    </g>
    <g id="xtick_7">
     <g id="line2d_7">
      <g>
       <use xlink:href="#m08a653ab1c" x="373.343125" y="327.592682" style="stroke: #000000; stroke-width: 0.8"/>
      </g>
     </g>
     <g id="text_7">
      <!-- Týden 9 -->
      <g transform="translate(344.405885 367.71511) rotate(-45) scale(0.1 -0.1)">
       <defs>
        <path id="DejaVuSans-39" d="M 703 97 
L 703 672 
Q 941 559 1184 500 
Q 1428 441 1663 441 
Q 2288 441 2617 861 
Q 2947 1281 2994 2138 
Q 2813 1869 2534 1725 
Q 2256 1581 1919 1581 
Q 1219 1581 811 2004 
Q 403 2428 403 3163 
Q 403 3881 828 4315 
Q 1253 4750 1959 4750 
Q 2769 4750 3195 4129 
Q 3622 3509 3622 2328 
Q 3622 1225 3098 567 
Q 2575 -91 1691 -91 
Q 1453 -91 1209 -44 
Q 966 3 703 97 
z
M 1959 2075 
Q 2384 2075 2632 2365 
Q 2881 2656 2881 3163 
Q 2881 3666 2632 3958 
Q 2384 4250 1959 4250 
Q 1534 4250 1286 3958 
Q 1038 3666 1038 3163 
Q 1038 2656 1286 2365 
Q 1534 2075 1959 2075 
z
" transform="scale(0.015625)"/>
       </defs>
       <use xlink:href="#DejaVuSans-54"/>
       <use xlink:href="#DejaVuSans-fd" x="45.458984"/>
       <use xlink:href="#DejaVuSans-64" x="104.638672"/>
       <use xlink:href="#DejaVuSans-65" x="168.115234"/>
       <use xlink:href="#DejaVuSans-6e" x="229.638672"/>
       <use xlink:href="#DejaVuSans-20" x="293.017578"/>
       <use xlink:href="#DejaVuSans-39" x="324.804688"/>
      </g>
     </g>
    </g>
    <g id="xtick_8">
     <g id="line2d_8">
      <g>
       <use xlink:href="#m08a653ab1c" x="423.854375" y="327.592682" style="stroke: #000000; stroke-width: 0.8"/>
      </g>
     </g>
     <g id="text_8">
      <!-- Týden 10 -->
      <g transform="translate(390.418168 372.214077) rotate(-45) scale(0.1 -0.1)">
       <defs>
        <path id="DejaVuSans-31" d="M 794 531 
L 1825 531 
L 1825 4091 
L 703 3866 
L 703 4441 
L 1819 4666 
L 2450 4666 
L 2450 531 
L 3481 531 
L 3481 0 
L 794 0 
L 794 531 
z
" transform="scale(0.015625)"/>
        <path id="DejaVuSans-30" d="M 2034 4250 
Q 1547 4250 1301 3770 
Q 1056 3291 1056 2328 
Q 1056 1369 1301 889 
Q 1547 409 2034 409 
Q 2525 409 2770 889 
Q 3016 1369 3016 2328 
Q 3016 3291 2770 3770 
Q 2525 4250 2034 4250 
z
M 2034 4750 
Q 2819 4750 3233 4129 
Q 3647 3509 3647 2328 
Q 3647 1150 3233 529 
Q 2819 -91 2034 -91 
Q 1250 -91 836 529 
Q 422 1150 422 2328 
Q 422 3509 836 4129 
Q 1250 4750 2034 4750 
z
" transform="scale(0.015625)"/>
       </defs>
       <use xlink:href="#DejaVuSans-54"/>
       <use xlink:href="#DejaVuSans-fd" x="45.458984"/>
       <use xlink:href="#DejaVuSans-64" x="104.638672"/>
       <use xlink:href="#DejaVuSans-65" x="168.115234"/>
       <use xlink:href="#DejaVuSans-6e" x="229.638672"/>
       <use xlink:href="#DejaVuSans-20" x="293.017578"/>
       <use xlink:href="#DejaVuSans-31" x="324.804688"/>
       <use xlink:href="#DejaVuSans-30" x="388.427734"/>
      </g>
     </g>
    </g>
    <g id="xtick_9">
     <g id="line2d_9">
      <g>
       <use xlink:href="#m08a653ab1c" x="474.365625" y="327.592682" style="stroke: #000000; stroke-width: 0.8"/>
      </g>
     </g>
     <g id="text_9">
      <!-- Týden 11 -->
      <g transform="translate(440.929418 372.214077) rotate(-45) scale(0.1 -0.1)">
       <use xlink:href="#DejaVuSans-54"/>
       <use xlink:href="#DejaVuSans-fd" x="45.458984"/>
       <use xlink:href="#DejaVuSans-64" x="104.638672"/>
       <use xlink:href="#DejaVuSans-65" x="168.115234"/>
       <use xlink:href="#DejaVuSans-6e" x="229.638672"/>
       <use xlink:href="#DejaVuSans-20" x="293.017578"/>
       <use xlink:href="#DejaVuSans-31" x="324.804688"/>
       <use xlink:href="#DejaVuSans-31" x="388.427734"/>
      </g>
     </g>
    </g>
    <g id="xtick_10">
     <g id="line2d_10">
      <g>
       <use xlink:href="#m08a653ab1c" x="524.876875" y="327.592682" style="stroke: #000000; stroke-width: 0.8"/>
      </g>
     </g>
     <g id="text_10">
      <!-- Týden 12 -->
      <g transform="translate(491.440668 372.214077) rotate(-45) scale(0.1 -0.1)">
       <defs>
        <path id="DejaVuSans-32" d="M 1228 531 
L 3431 531 
L 3431 0 
L 469 0 
L 469 531 
Q 828 903 1448 1529 
Q 2069 2156 2228 2338 
Q 2531 2678 2651 2914 
Q 2772 3150 2772 3378 
Q 2772 3750 2511 3984 
Q 2250 4219 1831 4219 
Q 1534 4219 1204 4116 
Q 875 4013 500 3803 
L 500 4441 
Q 881 4594 1212 4672 
Q 1544 4750 1819 4750 
Q 2544 4750 2975 4387 
Q 3406 4025 3406 3419 
Q 3406 3131 3298 2873 
Q 3191 2616 2906 2266 
Q 2828 2175 2409 1742 
Q 1991 1309 1228 531 
z
" transform="scale(0.015625)"/>
       </defs>
       <use xlink:href="#DejaVuSans-54"/>
       <use xlink:href="#DejaVuSans-fd" x="45.458984"/>
       <use xlink:href="#DejaVuSans-64" x="104.638672"/>
       <use xlink:href="#DejaVuSans-65" x="168.115234"/>
       <use xlink:href="#DejaVuSans-6e" x="229.638672"/>
       <use xlink:href="#DejaVuSans-20" x="293.017578"/>
       <use xlink:href="#DejaVuSans-31" x="324.804688"/>
       <use xlink:href="#DejaVuSans-32" x="388.427734"/>
      </g>
     </g>
    </g>
    <g id="xtick_11">
     <g id="line2d_11">
      <g>
       <use xlink:href="#m08a653ab1c" x="575.388125" y="327.592682" style="stroke: #000000; stroke-width: 0.8"/>
      </g>
     </g>
     <g id="text_11">
      <!-- Týden 13 -->
      <g transform="translate(541.951918 372.214077) rotate(-45) scale(0.1 -0.1)">
       <use xlink:href="#DejaVuSans-54"/>
       <use xlink:href="#DejaVuSans-fd" x="45.458984"/>
       <use xlink:href="#DejaVuSans-64" x="104.638672"/>
       <use xlink:href="#DejaVuSans-65" x="168.115234"/>
       <use xlink:href="#DejaVuSans-6e" x="229.638672"/>
       <use xlink:href="#DejaVuSans-20" x="293.017578"/>
       <use xlink:href="#DejaVuSans-31" x="324.804688"/>
       <use xlink:href="#DejaVuSans-33" x="388.427734"/>
      </g>
     </g>
    </g>
    <g id="xtick_12">
     <g id="line2d_12">
      <g>
       <use xlink:href="#m08a653ab1c" x="625.899375" y="327.592682" style="stroke: #000000; stroke-width: 0.8"/>
      </g>
     </g>
     <g id="text_12">
      <!-- Týden 14 VÁNOCE -->
      <g transform="translate(560.730646 404.84816) rotate(-45) scale(0.1 -0.1)">
       <defs>
        <path id="DejaVuSans-56" d="M 1831 0 
L 50 4666 
L 709 4666 
L 2188 738 
L 3669 4666 
L 4325 4666 
L 2547 0 
L 1831 0 
z
" transform="scale(0.015625)"/>
        <path id="DejaVuSans-c1" d="M 2188 4044 
L 1331 1722 
L 3047 1722 
L 2188 4044 
z
M 1831 4666 
L 2547 4666 
L 4325 0 
L 3669 0 
L 3244 1197 
L 1141 1197 
L 716 0 
L 50 0 
L 1831 4666 
z
M 2359 5935 
L 2938 5935 
L 2225 5110 
L 1747 5110 
L 2359 5935 
z
" transform="scale(0.015625)"/>
        <path id="DejaVuSans-4e" d="M 628 4666 
L 1478 4666 
L 3547 763 
L 3547 4666 
L 4159 4666 
L 4159 0 
L 3309 0 
L 1241 3903 
L 1241 0 
L 628 0 
L 628 4666 
z
" transform="scale(0.015625)"/>
        <path id="DejaVuSans-4f" d="M 2522 4238 
Q 1834 4238 1429 3725 
Q 1025 3213 1025 2328 
Q 1025 1447 1429 934 
Q 1834 422 2522 422 
Q 3209 422 3611 934 
Q 4013 1447 4013 2328 
Q 4013 3213 3611 3725 
Q 3209 4238 2522 4238 
z
M 2522 4750 
Q 3503 4750 4090 4092 
Q 4678 3434 4678 2328 
Q 4678 1225 4090 567 
Q 3503 -91 2522 -91 
Q 1538 -91 948 565 
Q 359 1222 359 2328 
Q 359 3434 948 4092 
Q 1538 4750 2522 4750 
z
" transform="scale(0.015625)"/>
        <path id="DejaVuSans-43" d="M 4122 4306 
L 4122 3641 
Q 3803 3938 3442 4084 
Q 3081 4231 2675 4231 
Q 1875 4231 1450 3742 
Q 1025 3253 1025 2328 
Q 1025 1406 1450 917 
Q 1875 428 2675 428 
Q 3081 428 3442 575 
Q 3803 722 4122 1019 
L 4122 359 
Q 3791 134 3420 21 
Q 3050 -91 2638 -91 
Q 1578 -91 968 557 
Q 359 1206 359 2328 
Q 359 3453 968 4101 
Q 1578 4750 2638 4750 
Q 3056 4750 3426 4639 
Q 3797 4528 4122 4306 
z
" transform="scale(0.015625)"/>
        <path id="DejaVuSans-45" d="M 628 4666 
L 3578 4666 
L 3578 4134 
L 1259 4134 
L 1259 2753 
L 3481 2753 
L 3481 2222 
L 1259 2222 
L 1259 531 
L 3634 531 
L 3634 0 
L 628 0 
L 628 4666 
z
" transform="scale(0.015625)"/>
       </defs>
       <use xlink:href="#DejaVuSans-54"/>
       <use xlink:href="#DejaVuSans-fd" x="45.458984"/>
       <use xlink:href="#DejaVuSans-64" x="104.638672"/>
       <use xlink:href="#DejaVuSans-65" x="168.115234"/>
       <use xlink:href="#DejaVuSans-6e" x="229.638672"/>
       <use xlink:href="#DejaVuSans-20" x="293.017578"/>
       <use xlink:href="#DejaVuSans-31" x="324.804688"/>
       <use xlink:href="#DejaVuSans-34" x="388.427734"/>
       <use xlink:href="#DejaVuSans-20" x="452.050781"/>
       <use xlink:href="#DejaVuSans-56" x="483.837891"/>
       <use xlink:href="#DejaVuSans-c1" x="545.871094"/>
       <use xlink:href="#DejaVuSans-4e" x="614.279297"/>
       <use xlink:href="#DejaVuSans-4f" x="689.083984"/>
       <use xlink:href="#DejaVuSans-43" x="767.794922"/>
       <use xlink:href="#DejaVuSans-45" x="837.619141"/>
      </g>
     </g>
    </g>
    <g id="xtick_13">
     <g id="line2d_13">
      <g>
       <use xlink:href="#m08a653ab1c" x="676.410625" y="327.592682" style="stroke: #000000; stroke-width: 0.8"/>
      </g>
     </g>
     <g id="text_13">
      <!-- Týden 16 Z -->
      <g transform="translate(635.883463 379.305032) rotate(-45) scale(0.1 -0.1)">
       <defs>
        <path id="DejaVuSans-5a" d="M 359 4666 
L 4025 4666 
L 4025 4184 
L 1075 531 
L 4097 531 
L 4097 0 
L 288 0 
L 288 481 
L 3238 4134 
L 359 4134 
L 359 4666 
z
" transform="scale(0.015625)"/>
       </defs>
       <use xlink:href="#DejaVuSans-54"/>
       <use xlink:href="#DejaVuSans-fd" x="45.458984"/>
       <use xlink:href="#DejaVuSans-64" x="104.638672"/>
       <use xlink:href="#DejaVuSans-65" x="168.115234"/>
       <use xlink:href="#DejaVuSans-6e" x="229.638672"/>
       <use xlink:href="#DejaVuSans-20" x="293.017578"/>
       <use xlink:href="#DejaVuSans-31" x="324.804688"/>
       <use xlink:href="#DejaVuSans-36" x="388.427734"/>
       <use xlink:href="#DejaVuSans-20" x="452.050781"/>
       <use xlink:href="#DejaVuSans-5a" x="483.837891"/>
      </g>
     </g>
    </g>
    <g id="xtick_14">
     <g id="line2d_14">
      <g>
       <use xlink:href="#m08a653ab1c" x="726.921875" y="327.592682" style="stroke: #000000; stroke-width: 0.8"/>
      </g>
     </g>
     <g id="text_14">
      <!-- Týden 17 Z -->
      <g transform="translate(686.394713 379.305032) rotate(-45) scale(0.1 -0.1)">
       <use xlink:href="#DejaVuSans-54"/>
       <use xlink:href="#DejaVuSans-fd" x="45.458984"/>
       <use xlink:href="#DejaVuSans-64" x="104.638672"/>
       <use xlink:href="#DejaVuSans-65" x="168.115234"/>
       <use xlink:href="#DejaVuSans-6e" x="229.638672"/>
       <use xlink:href="#DejaVuSans-20" x="293.017578"/>
       <use xlink:href="#DejaVuSans-31" x="324.804688"/>
       <use xlink:href="#DejaVuSans-37" x="388.427734"/>
       <use xlink:href="#DejaVuSans-20" x="452.050781"/>
       <use xlink:href="#DejaVuSans-5a" x="483.837891"/>
      </g>
     </g>
    </g>
    <g id="xtick_15">
     <g id="line2d_15">
      <g>
       <use xlink:href="#m08a653ab1c" x="777.433125" y="327.592682" style="stroke: #000000; stroke-width: 0.8"/>
      </g>
     </g>
     <g id="text_15">
      <!-- Týden 18 Z -->
      <g transform="translate(736.905963 379.305032) rotate(-45) scale(0.1 -0.1)">
       <use xlink:href="#DejaVuSans-54"/>
       <use xlink:href="#DejaVuSans-fd" x="45.458984"/>
       <use xlink:href="#DejaVuSans-64" x="104.638672"/>
       <use xlink:href="#DejaVuSans-65" x="168.115234"/>
       <use xlink:href="#DejaVuSans-6e" x="229.638672"/>
       <use xlink:href="#DejaVuSans-20" x="293.017578"/>
       <use xlink:href="#DejaVuSans-31" x="324.804688"/>
       <use xlink:href="#DejaVuSans-38" x="388.427734"/>
       <use xlink:href="#DejaVuSans-20" x="452.050781"/>
       <use xlink:href="#DejaVuSans-5a" x="483.837891"/>
      </g>
     </g>
    </g>
    <g id="xtick_16">
     <g id="line2d_16">
      <g>
       <use xlink:href="#m08a653ab1c" x="827.944375" y="327.592682" style="stroke: #000000; stroke-width: 0.8"/>
      </g>
     </g>
     <g id="text_16">
      <!-- Týden 19 Z -->
      <g transform="translate(787.417213 379.305032) rotate(-45) scale(0.1 -0.1)">
       <use xlink:href="#DejaVuSans-54"/>
       <use xlink:href="#DejaVuSans-fd" x="45.458984"/>
       <use xlink:href="#DejaVuSans-64" x="104.638672"/>
       <use xlink:href="#DejaVuSans-65" x="168.115234"/>
       <use xlink:href="#DejaVuSans-6e" x="229.638672"/>
       <use xlink:href="#DejaVuSans-20" x="293.017578"/>
       <use xlink:href="#DejaVuSans-31" x="324.804688"/>
       <use xlink:href="#DejaVuSans-39" x="388.427734"/>
       <use xlink:href="#DejaVuSans-20" x="452.050781"/>
       <use xlink:href="#DejaVuSans-5a" x="483.837891"/>
      </g>
     </g>
    </g>
    <g id="text_17">
     <!-- Týden semestru -->
     <g transform="translate(409.452188 418.317159) scale(0.1 -0.1)">
      <defs>
       <path id="DejaVuSans-73" d="M 2834 3397 
L 2834 2853 
Q 2591 2978 2328 3040 
Q 2066 3103 1784 3103 
Q 1356 3103 1142 2972 
Q 928 2841 928 2578 
Q 928 2378 1081 2264 
Q 1234 2150 1697 2047 
L 1894 2003 
Q 2506 1872 2764 1633 
Q 3022 1394 3022 966 
Q 3022 478 2636 193 
Q 2250 -91 1575 -91 
Q 1294 -91 989 -36 
Q 684 19 347 128 
L 347 722 
Q 666 556 975 473 
Q 1284 391 1588 391 
Q 1994 391 2212 530 
Q 2431 669 2431 922 
Q 2431 1156 2273 1281 
Q 2116 1406 1581 1522 
L 1381 1569 
Q 847 1681 609 1914 
Q 372 2147 372 2553 
Q 372 3047 722 3315 
Q 1072 3584 1716 3584 
Q 2034 3584 2315 3537 
Q 2597 3491 2834 3397 
z
" transform="scale(0.015625)"/>
       <path id="DejaVuSans-6d" d="M 3328 2828 
Q 3544 3216 3844 3400 
Q 4144 3584 4550 3584 
Q 5097 3584 5394 3201 
Q 5691 2819 5691 2113 
L 5691 0 
L 5113 0 
L 5113 2094 
Q 5113 2597 4934 2840 
Q 4756 3084 4391 3084 
Q 3944 3084 3684 2787 
Q 3425 2491 3425 1978 
L 3425 0 
L 2847 0 
L 2847 2094 
Q 2847 2600 2669 2842 
Q 2491 3084 2119 3084 
Q 1678 3084 1418 2786 
Q 1159 2488 1159 1978 
L 1159 0 
L 581 0 
L 581 3500 
L 1159 3500 
L 1159 2956 
Q 1356 3278 1631 3431 
Q 1906 3584 2284 3584 
Q 2666 3584 2933 3390 
Q 3200 3197 3328 2828 
z
" transform="scale(0.015625)"/>
       <path id="DejaVuSans-74" d="M 1172 4494 
L 1172 3500 
L 2356 3500 
L 2356 3053 
L 1172 3053 
L 1172 1153 
Q 1172 725 1289 603 
Q 1406 481 1766 481 
L 2356 481 
L 2356 0 
L 1766 0 
Q 1100 0 847 248 
Q 594 497 594 1153 
L 594 3053 
L 172 3053 
L 172 3500 
L 594 3500 
L 594 4494 
L 1172 4494 
z
" transform="scale(0.015625)"/>
       <path id="DejaVuSans-72" d="M 2631 2963 
Q 2534 3019 2420 3045 
Q 2306 3072 2169 3072 
Q 1681 3072 1420 2755 
Q 1159 2438 1159 1844 
L 1159 0 
L 581 0 
L 581 3500 
L 1159 3500 
L 1159 2956 
Q 1341 3275 1631 3429 
Q 1922 3584 2338 3584 
Q 2397 3584 2469 3576 
Q 2541 3569 2628 3553 
L 2631 2963 
z
" transform="scale(0.015625)"/>
       <path id="DejaVuSans-75" d="M 544 1381 
L 544 3500 
L 1119 3500 
L 1119 1403 
Q 1119 906 1312 657 
Q 1506 409 1894 409 
Q 2359 409 2629 706 
Q 2900 1003 2900 1516 
L 2900 3500 
L 3475 3500 
L 3475 0 
L 2900 0 
L 2900 538 
Q 2691 219 2414 64 
Q 2138 -91 1772 -91 
Q 1169 -91 856 284 
Q 544 659 544 1381 
z
M 1991 3584 
L 1991 3584 
z
" transform="scale(0.015625)"/>
      </defs>
      <use xlink:href="#DejaVuSans-54"/>
      <use xlink:href="#DejaVuSans-fd" x="45.458984"/>
      <use xlink:href="#DejaVuSans-64" x="104.638672"/>
      <use xlink:href="#DejaVuSans-65" x="168.115234"/>
      <use xlink:href="#DejaVuSans-6e" x="229.638672"/>
      <use xlink:href="#DejaVuSans-20" x="293.017578"/>
      <use xlink:href="#DejaVuSans-73" x="324.804688"/>
      <use xlink:href="#DejaVuSans-65" x="376.904297"/>
      <use xlink:href="#DejaVuSans-6d" x="438.427734"/>
      <use xlink:href="#DejaVuSans-65" x="535.839844"/>
      <use xlink:href="#DejaVuSans-73" x="597.363281"/>
      <use xlink:href="#DejaVuSans-74" x="649.462891"/>
      <use xlink:href="#DejaVuSans-72" x="688.671875"/>
      <use xlink:href="#DejaVuSans-75" x="729.785156"/>
     </g>
    </g>
   </g>
   <g id="matplotlib.axis_2">
    <g id="ytick_1">
     <g id="line2d_17">
      <defs>
       <path id="md5160653f6" d="M 0 0 
L -3.5 0 
" style="stroke: #000000; stroke-width: 0.8"/>
      </defs>
      <g>
       <use xlink:href="#md5160653f6" x="45.02" y="327.592682" style="stroke: #000000; stroke-width: 0.8"/>
      </g>
     </g>
     <g id="text_18">
      <!-- 0 -->
      <g transform="translate(31.6575 331.391901) scale(0.1 -0.1)">
       <use xlink:href="#DejaVuSans-30"/>
      </g>
     </g>
    </g>
    <g id="ytick_2">
     <g id="line2d_18">
      <g>
       <use xlink:href="#md5160653f6" x="45.02" y="265.255029" style="stroke: #000000; stroke-width: 0.8"/>
      </g>
     </g>
     <g id="text_19">
      <!-- 10 -->
      <g transform="translate(25.295 269.054248) scale(0.1 -0.1)">
       <use xlink:href="#DejaVuSans-31"/>
       <use xlink:href="#DejaVuSans-30" x="63.623047"/>
      </g>
     </g>
    </g>
    <g id="ytick_3">
     <g id="line2d_19">
      <g>
       <use xlink:href="#md5160653f6" x="45.02" y="202.917376" style="stroke: #000000; stroke-width: 0.8"/>
      </g>
     </g>
     <g id="text_20">
      <!-- 20 -->
      <g transform="translate(25.295 206.716595) scale(0.1 -0.1)">
       <use xlink:href="#DejaVuSans-32"/>
       <use xlink:href="#DejaVuSans-30" x="63.623047"/>
      </g>
     </g>
    </g>
    <g id="ytick_4">
     <g id="line2d_20">
      <g>
       <use xlink:href="#md5160653f6" x="45.02" y="140.579723" style="stroke: #000000; stroke-width: 0.8"/>
      </g>
     </g>
     <g id="text_21">
      <!-- 30 -->
      <g transform="translate(25.295 144.378942) scale(0.1 -0.1)">
       <use xlink:href="#DejaVuSans-33"/>
       <use xlink:href="#DejaVuSans-30" x="63.623047"/>
      </g>
     </g>
    </g>
    <g id="ytick_5">
     <g id="line2d_21">
      <g>
       <use xlink:href="#md5160653f6" x="45.02" y="78.24207" style="stroke: #000000; stroke-width: 0.8"/>
      </g>
     </g>
     <g id="text_22">
      <!-- 40 -->
      <g transform="translate(25.295 82.041289) scale(0.1 -0.1)">
       <use xlink:href="#DejaVuSans-34"/>
       <use xlink:href="#DejaVuSans-30" x="63.623047"/>
      </g>
     </g>
    </g>
    <g id="text_23">
     <!-- Celkový čas (hodiny) -->
     <g transform="translate(19.215312 228.942747) rotate(-90) scale(0.1 -0.1)">
      <defs>
       <path id="DejaVuSans-6c" d="M 603 4863 
L 1178 4863 
L 1178 0 
L 603 0 
L 603 4863 
z
" transform="scale(0.015625)"/>
       <path id="DejaVuSans-6b" d="M 581 4863 
L 1159 4863 
L 1159 1991 
L 2875 3500 
L 3609 3500 
L 1753 1863 
L 3688 0 
L 2938 0 
L 1159 1709 
L 1159 0 
L 581 0 
L 581 4863 
z
" transform="scale(0.015625)"/>
       <path id="DejaVuSans-6f" d="M 1959 3097 
Q 1497 3097 1228 2736 
Q 959 2375 959 1747 
Q 959 1119 1226 758 
Q 1494 397 1959 397 
Q 2419 397 2687 759 
Q 2956 1122 2956 1747 
Q 2956 2369 2687 2733 
Q 2419 3097 1959 3097 
z
M 1959 3584 
Q 2709 3584 3137 3096 
Q 3566 2609 3566 1747 
Q 3566 888 3137 398 
Q 2709 -91 1959 -91 
Q 1206 -91 779 398 
Q 353 888 353 1747 
Q 353 2609 779 3096 
Q 1206 3584 1959 3584 
z
" transform="scale(0.015625)"/>
       <path id="DejaVuSans-76" d="M 191 3500 
L 800 3500 
L 1894 563 
L 2988 3500 
L 3597 3500 
L 2284 0 
L 1503 0 
L 191 3500 
z
" transform="scale(0.015625)"/>
       <path id="DejaVuSans-10d" d="M 3122 3366 
L 3122 2828 
Q 2878 2963 2633 3030 
Q 2388 3097 2138 3097 
Q 1578 3097 1268 2742 
Q 959 2388 959 1747 
Q 959 1106 1268 751 
Q 1578 397 2138 397 
Q 2388 397 2633 464 
Q 2878 531 3122 666 
L 3122 134 
Q 2881 22 2623 -34 
Q 2366 -91 2075 -91 
Q 1284 -91 818 406 
Q 353 903 353 1747 
Q 353 2603 823 3093 
Q 1294 3584 2113 3584 
Q 2378 3584 2631 3529 
Q 2884 3475 3122 3366 
z
M 1797 3944 
L 1031 5119 
L 1466 5119 
L 2028 4353 
L 2591 5119 
L 3025 5119 
L 2259 3944 
L 1797 3944 
z
" transform="scale(0.015625)"/>
       <path id="DejaVuSans-61" d="M 2194 1759 
Q 1497 1759 1228 1600 
Q 959 1441 959 1056 
Q 959 750 1161 570 
Q 1363 391 1709 391 
Q 2188 391 2477 730 
Q 2766 1069 2766 1631 
L 2766 1759 
L 2194 1759 
z
M 3341 1997 
L 3341 0 
L 2766 0 
L 2766 531 
Q 2569 213 2275 61 
Q 1981 -91 1556 -91 
Q 1019 -91 701 211 
Q 384 513 384 1019 
Q 384 1609 779 1909 
Q 1175 2209 1959 2209 
L 2766 2209 
L 2766 2266 
Q 2766 2663 2505 2880 
Q 2244 3097 1772 3097 
Q 1472 3097 1187 3025 
Q 903 2953 641 2809 
L 641 3341 
Q 956 3463 1253 3523 
Q 1550 3584 1831 3584 
Q 2591 3584 2966 3190 
Q 3341 2797 3341 1997 
z
" transform="scale(0.015625)"/>
       <path id="DejaVuSans-28" d="M 1984 4856 
Q 1566 4138 1362 3434 
Q 1159 2731 1159 2009 
Q 1159 1288 1364 580 
Q 1569 -128 1984 -844 
L 1484 -844 
Q 1016 -109 783 600 
Q 550 1309 550 2009 
Q 550 2706 781 3412 
Q 1013 4119 1484 4856 
L 1984 4856 
z
" transform="scale(0.015625)"/>
       <path id="DejaVuSans-68" d="M 3513 2113 
L 3513 0 
L 2938 0 
L 2938 2094 
Q 2938 2591 2744 2837 
Q 2550 3084 2163 3084 
Q 1697 3084 1428 2787 
Q 1159 2491 1159 1978 
L 1159 0 
L 581 0 
L 581 4863 
L 1159 4863 
L 1159 2956 
Q 1366 3272 1645 3428 
Q 1925 3584 2291 3584 
Q 2894 3584 3203 3211 
Q 3513 2838 3513 2113 
z
" transform="scale(0.015625)"/>
       <path id="DejaVuSans-69" d="M 603 3500 
L 1178 3500 
L 1178 0 
L 603 0 
L 603 3500 
z
M 603 4863 
L 1178 4863 
L 1178 4134 
L 603 4134 
L 603 4863 
z
" transform="scale(0.015625)"/>
       <path id="DejaVuSans-79" d="M 2059 -325 
Q 1816 -950 1584 -1140 
Q 1353 -1331 966 -1331 
L 506 -1331 
L 506 -850 
L 844 -850 
Q 1081 -850 1212 -737 
Q 1344 -625 1503 -206 
L 1606 56 
L 191 3500 
L 800 3500 
L 1894 763 
L 2988 3500 
L 3597 3500 
L 2059 -325 
z
" transform="scale(0.015625)"/>
       <path id="DejaVuSans-29" d="M 513 4856 
L 1013 4856 
Q 1481 4119 1714 3412 
Q 1947 2706 1947 2009 
Q 1947 1309 1714 600 
Q 1481 -109 1013 -844 
L 513 -844 
Q 928 -128 1133 580 
Q 1338 1288 1338 2009 
Q 1338 2731 1133 3434 
Q 928 4138 513 4856 
z
" transform="scale(0.015625)"/>
      </defs>
      <use xlink:href="#DejaVuSans-43"/>
      <use xlink:href="#DejaVuSans-65" x="69.824219"/>
      <use xlink:href="#DejaVuSans-6c" x="131.347656"/>
      <use xlink:href="#DejaVuSans-6b" x="159.130859"/>
      <use xlink:href="#DejaVuSans-6f" x="213.416016"/>
      <use xlink:href="#DejaVuSans-76" x="274.597656"/>
      <use xlink:href="#DejaVuSans-fd" x="333.777344"/>
      <use xlink:href="#DejaVuSans-20" x="392.957031"/>
      <use xlink:href="#DejaVuSans-10d" x="424.744141"/>
      <use xlink:href="#DejaVuSans-61" x="479.724609"/>
      <use xlink:href="#DejaVuSans-73" x="541.003906"/>
      <use xlink:href="#DejaVuSans-20" x="593.103516"/>
      <use xlink:href="#DejaVuSans-28" x="624.890625"/>
      <use xlink:href="#DejaVuSans-68" x="663.904297"/>
      <use xlink:href="#DejaVuSans-6f" x="727.283203"/>
      <use xlink:href="#DejaVuSans-64" x="788.464844"/>
      <use xlink:href="#DejaVuSans-69" x="851.941406"/>
      <use xlink:href="#DejaVuSans-6e" x="879.724609"/>
      <use xlink:href="#DejaVuSans-79" x="943.103516"/>
      <use xlink:href="#DejaVuSans-29" x="1002.283203"/>
     </g>
    </g>
   </g>
   <g id="patch_99">
    <path d="M 45.02 327.592682 
L 45.02 26.16 
" style="fill: none; stroke: #000000; stroke-width: 0.8; stroke-linejoin: miter; stroke-linecap: square"/>
   </g>
   <g id="patch_100">
    <path d="M 853.2 327.592682 
L 853.2 26.16 
" style="fill: none; stroke: #000000; stroke-width: 0.8; stroke-linejoin: miter; stroke-linecap: square"/>
   </g>
   <g id="patch_101">
    <path d="M 45.02 327.592682 
L 853.2 327.592682 
" style="fill: none; stroke: #000000; stroke-width: 0.8; stroke-linejoin: miter; stroke-linecap: square"/>
   </g>
   <g id="patch_102">
    <path d="M 45.02 26.16 
L 853.2 26.16 
" style="fill: none; stroke: #000000; stroke-width: 0.8; stroke-linejoin: miter; stroke-linecap: square"/>
   </g>
   <g id="text_24">
    <!-- Týdenní čas strávený na aktivitách (seskupeno podle týdne semestru) -->
    <g transform="translate(238.840938 20.16) scale(0.12 -0.12)">
     <defs>
      <path id="DejaVuSans-ed" d="M 1325 5119 
L 1947 5119 
L 928 3944 
L 450 3944 
L 1325 5119 
z
M 603 3500 
L 1178 3500 
L 1178 0 
L 603 0 
L 603 3500 
z
M 891 3584 
L 891 3584 
z
" transform="scale(0.015625)"/>
      <path id="DejaVuSans-e1" d="M 2194 1759 
Q 1497 1759 1228 1600 
Q 959 1441 959 1056 
Q 959 750 1161 570 
Q 1363 391 1709 391 
Q 2188 391 2477 730 
Q 2766 1069 2766 1631 
L 2766 1759 
L 2194 1759 
z
M 3341 1997 
L 3341 0 
L 2766 0 
L 2766 531 
Q 2569 213 2275 61 
Q 1981 -91 1556 -91 
Q 1019 -91 701 211 
Q 384 513 384 1019 
Q 384 1609 779 1909 
Q 1175 2209 1959 2209 
L 2766 2209 
L 2766 2266 
Q 2766 2663 2505 2880 
Q 2244 3097 1772 3097 
Q 1472 3097 1187 3025 
Q 903 2953 641 2809 
L 641 3341 
Q 956 3463 1253 3523 
Q 1550 3584 1831 3584 
Q 2591 3584 2966 3190 
Q 3341 2797 3341 1997 
z
M 2291 5119 
L 2913 5119 
L 1894 3944 
L 1416 3944 
L 2291 5119 
z
" transform="scale(0.015625)"/>
      <path id="DejaVuSans-63" d="M 3122 3366 
L 3122 2828 
Q 2878 2963 2633 3030 
Q 2388 3097 2138 3097 
Q 1578 3097 1268 2742 
Q 959 2388 959 1747 
Q 959 1106 1268 751 
Q 1578 397 2138 397 
Q 2388 397 2633 464 
Q 2878 531 3122 666 
L 3122 134 
Q 2881 22 2623 -34 
Q 2366 -91 2075 -91 
Q 1284 -91 818 406 
Q 353 903 353 1747 
Q 353 2603 823 3093 
Q 1294 3584 2113 3584 
Q 2378 3584 2631 3529 
Q 2884 3475 3122 3366 
z
" transform="scale(0.015625)"/>
      <path id="DejaVuSans-70" d="M 1159 525 
L 1159 -1331 
L 581 -1331 
L 581 3500 
L 1159 3500 
L 1159 2969 
Q 1341 3281 1617 3432 
Q 1894 3584 2278 3584 
Q 2916 3584 3314 3078 
Q 3713 2572 3713 1747 
Q 3713 922 3314 415 
Q 2916 -91 2278 -91 
Q 1894 -91 1617 61 
Q 1341 213 1159 525 
z
M 3116 1747 
Q 3116 2381 2855 2742 
Q 2594 3103 2138 3103 
Q 1681 3103 1420 2742 
Q 1159 2381 1159 1747 
Q 1159 1113 1420 752 
Q 1681 391 2138 391 
Q 2594 391 2855 752 
Q 3116 1113 3116 1747 
z
" transform="scale(0.015625)"/>
     </defs>
     <use xlink:href="#DejaVuSans-54"/>
     <use xlink:href="#DejaVuSans-fd" x="45.458984"/>
     <use xlink:href="#DejaVuSans-64" x="104.638672"/>
     <use xlink:href="#DejaVuSans-65" x="168.115234"/>
     <use xlink:href="#DejaVuSans-6e" x="229.638672"/>
     <use xlink:href="#DejaVuSans-6e" x="293.017578"/>
     <use xlink:href="#DejaVuSans-ed" x="356.396484"/>
     <use xlink:href="#DejaVuSans-20" x="384.179688"/>
     <use xlink:href="#DejaVuSans-10d" x="415.966797"/>
     <use xlink:href="#DejaVuSans-61" x="470.947266"/>
     <use xlink:href="#DejaVuSans-73" x="532.226562"/>
     <use xlink:href="#DejaVuSans-20" x="584.326172"/>
     <use xlink:href="#DejaVuSans-73" x="616.113281"/>
     <use xlink:href="#DejaVuSans-74" x="668.212891"/>
     <use xlink:href="#DejaVuSans-72" x="707.421875"/>
     <use xlink:href="#DejaVuSans-e1" x="748.535156"/>
     <use xlink:href="#DejaVuSans-76" x="809.814453"/>
     <use xlink:href="#DejaVuSans-65" x="868.994141"/>
     <use xlink:href="#DejaVuSans-6e" x="930.517578"/>
     <use xlink:href="#DejaVuSans-fd" x="993.896484"/>
     <use xlink:href="#DejaVuSans-20" x="1053.076172"/>
     <use xlink:href="#DejaVuSans-6e" x="1084.863281"/>
     <use xlink:href="#DejaVuSans-61" x="1148.242188"/>
     <use xlink:href="#DejaVuSans-20" x="1209.521484"/>
     <use xlink:href="#DejaVuSans-61" x="1241.308594"/>
     <use xlink:href="#DejaVuSans-6b" x="1302.587891"/>
     <use xlink:href="#DejaVuSans-74" x="1360.498047"/>
     <use xlink:href="#DejaVuSans-69" x="1399.707031"/>
     <use xlink:href="#DejaVuSans-76" x="1427.490234"/>
     <use xlink:href="#DejaVuSans-69" x="1486.669922"/>
     <use xlink:href="#DejaVuSans-74" x="1514.453125"/>
     <use xlink:href="#DejaVuSans-e1" x="1553.662109"/>
     <use xlink:href="#DejaVuSans-63" x="1614.941406"/>
     <use xlink:href="#DejaVuSans-68" x="1669.921875"/>
     <use xlink:href="#DejaVuSans-20" x="1733.300781"/>
     <use xlink:href="#DejaVuSans-28" x="1765.087891"/>
     <use xlink:href="#DejaVuSans-73" x="1804.101562"/>
     <use xlink:href="#DejaVuSans-65" x="1856.201172"/>
     <use xlink:href="#DejaVuSans-73" x="1917.724609"/>
     <use xlink:href="#DejaVuSans-6b" x="1969.824219"/>
     <use xlink:href="#DejaVuSans-75" x="2024.609375"/>
     <use xlink:href="#DejaVuSans-70" x="2087.988281"/>
     <use xlink:href="#DejaVuSans-65" x="2151.464844"/>
     <use xlink:href="#DejaVuSans-6e" x="2212.988281"/>
     <use xlink:href="#DejaVuSans-6f" x="2276.367188"/>
     <use xlink:href="#DejaVuSans-20" x="2337.548828"/>
     <use xlink:href="#DejaVuSans-70" x="2369.335938"/>
     <use xlink:href="#DejaVuSans-6f" x="2432.8125"/>
     <use xlink:href="#DejaVuSans-64" x="2493.994141"/>
     <use xlink:href="#DejaVuSans-6c" x="2557.470703"/>
     <use xlink:href="#DejaVuSans-65" x="2585.253906"/>
     <use xlink:href="#DejaVuSans-20" x="2646.777344"/>
     <use xlink:href="#DejaVuSans-74" x="2678.564453"/>
     <use xlink:href="#DejaVuSans-fd" x="2717.773438"/>
     <use xlink:href="#DejaVuSans-64" x="2776.953125"/>
     <use xlink:href="#DejaVuSans-6e" x="2840.429688"/>
     <use xlink:href="#DejaVuSans-65" x="2903.808594"/>
     <use xlink:href="#DejaVuSans-20" x="2965.332031"/>
     <use xlink:href="#DejaVuSans-73" x="2997.119141"/>
     <use xlink:href="#DejaVuSans-65" x="3049.21875"/>
     <use xlink:href="#DejaVuSans-6d" x="3110.742188"/>
     <use xlink:href="#DejaVuSans-65" x="3208.154297"/>
     <use xlink:href="#DejaVuSans-73" x="3269.677734"/>
     <use xlink:href="#DejaVuSans-74" x="3321.777344"/>
     <use xlink:href="#DejaVuSans-72" x="3360.986328"/>
     <use xlink:href="#DejaVuSans-75" x="3402.099609"/>
     <use xlink:href="#DejaVuSans-29" x="3465.478516"/>
    </g>
   </g>
   <g id="legend_1">
    <g id="patch_103">
     <path d="M 792.901563 136.906875 
L 846.2 136.906875 
Q 848.2 136.906875 848.2 134.906875 
L 848.2 33.16 
Q 848.2 31.16 846.2 31.16 
L 792.901563 31.16 
Q 790.901563 31.16 790.901563 33.16 
L 790.901563 134.906875 
Q 790.901563 136.906875 792.901563 136.906875 
z
" style="fill: #ffffff; opacity: 0.8; stroke: #cccccc; stroke-linejoin: miter"/>
    </g>
    <g id="text_25">
     <!-- Subject -->
     <g transform="translate(800.858594 42.758437) scale(0.1 -0.1)">
      <defs>
       <path id="DejaVuSans-53" d="M 3425 4513 
L 3425 3897 
Q 3066 4069 2747 4153 
Q 2428 4238 2131 4238 
Q 1616 4238 1336 4038 
Q 1056 3838 1056 3469 
Q 1056 3159 1242 3001 
Q 1428 2844 1947 2747 
L 2328 2669 
Q 3034 2534 3370 2195 
Q 3706 1856 3706 1288 
Q 3706 609 3251 259 
Q 2797 -91 1919 -91 
Q 1588 -91 1214 -16 
Q 841 59 441 206 
L 441 856 
Q 825 641 1194 531 
Q 1563 422 1919 422 
Q 2459 422 2753 634 
Q 3047 847 3047 1241 
Q 3047 1584 2836 1778 
Q 2625 1972 2144 2069 
L 1759 2144 
Q 1053 2284 737 2584 
Q 422 2884 422 3419 
Q 422 4038 858 4394 
Q 1294 4750 2059 4750 
Q 2388 4750 2728 4690 
Q 3069 4631 3425 4513 
z
" transform="scale(0.015625)"/>
       <path id="DejaVuSans-62" d="M 3116 1747 
Q 3116 2381 2855 2742 
Q 2594 3103 2138 3103 
Q 1681 3103 1420 2742 
Q 1159 2381 1159 1747 
Q 1159 1113 1420 752 
Q 1681 391 2138 391 
Q 2594 391 2855 752 
Q 3116 1113 3116 1747 
z
M 1159 2969 
Q 1341 3281 1617 3432 
Q 1894 3584 2278 3584 
Q 2916 3584 3314 3078 
Q 3713 2572 3713 1747 
Q 3713 922 3314 415 
Q 2916 -91 2278 -91 
Q 1894 -91 1617 61 
Q 1341 213 1159 525 
L 1159 0 
L 581 0 
L 581 4863 
L 1159 4863 
L 1159 2969 
z
" transform="scale(0.015625)"/>
       <path id="DejaVuSans-6a" d="M 603 3500 
L 1178 3500 
L 1178 -63 
Q 1178 -731 923 -1031 
Q 669 -1331 103 -1331 
L -116 -1331 
L -116 -844 
L 38 -844 
Q 366 -844 484 -692 
Q 603 -541 603 -63 
L 603 3500 
z
M 603 4863 
L 1178 4863 
L 1178 4134 
L 603 4134 
L 603 4863 
z
" transform="scale(0.015625)"/>
      </defs>
      <use xlink:href="#DejaVuSans-53"/>
      <use xlink:href="#DejaVuSans-75" x="63.476562"/>
      <use xlink:href="#DejaVuSans-62" x="126.855469"/>
      <use xlink:href="#DejaVuSans-6a" x="190.332031"/>
      <use xlink:href="#DejaVuSans-65" x="218.115234"/>
      <use xlink:href="#DejaVuSans-63" x="279.638672"/>
      <use xlink:href="#DejaVuSans-74" x="334.619141"/>
     </g>
    </g>
    <g id="patch_104">
     <path d="M 794.901563 57.436562 
L 814.901563 57.436562 
L 814.901563 50.436562 
L 794.901563 50.436562 
z
" style="fill: #1f77b4"/>
    </g>
    <g id="text_26">
     <!-- AVS -->
     <g transform="translate(822.901563 57.436562) scale(0.1 -0.1)">
      <defs>
       <path id="DejaVuSans-41" d="M 2188 4044 
L 1331 1722 
L 3047 1722 
L 2188 4044 
z
M 1831 4666 
L 2547 4666 
L 4325 0 
L 3669 0 
L 3244 1197 
L 1141 1197 
L 716 0 
L 50 0 
L 1831 4666 
z
" transform="scale(0.015625)"/>
      </defs>
      <use xlink:href="#DejaVuSans-41"/>
      <use xlink:href="#DejaVuSans-56" x="62.033203"/>
      <use xlink:href="#DejaVuSans-53" x="130.441406"/>
     </g>
    </g>
    <g id="patch_105">
     <path d="M 794.901563 72.114688 
L 814.901563 72.114688 
L 814.901563 65.114688 
L 794.901563 65.114688 
z
" style="fill: #ff7f0e"/>
    </g>
    <g id="text_27">
     <!-- TIN -->
     <g transform="translate(822.901563 72.114688) scale(0.1 -0.1)">
      <defs>
       <path id="DejaVuSans-49" d="M 628 4666 
L 1259 4666 
L 1259 0 
L 628 0 
L 628 4666 
z
" transform="scale(0.015625)"/>
      </defs>
      <use xlink:href="#DejaVuSans-54"/>
      <use xlink:href="#DejaVuSans-49" x="61.083984"/>
      <use xlink:href="#DejaVuSans-4e" x="90.576172"/>
     </g>
    </g>
    <g id="patch_106">
     <path d="M 794.901563 86.792812 
L 814.901563 86.792812 
L 814.901563 79.792812 
L 794.901563 79.792812 
z
" style="fill: #2ca02c"/>
    </g>
    <g id="text_28">
     <!-- mg -->
     <g transform="translate(822.901563 86.792812) scale(0.1 -0.1)">
      <defs>
       <path id="DejaVuSans-67" d="M 2906 1791 
Q 2906 2416 2648 2759 
Q 2391 3103 1925 3103 
Q 1463 3103 1205 2759 
Q 947 2416 947 1791 
Q 947 1169 1205 825 
Q 1463 481 1925 481 
Q 2391 481 2648 825 
Q 2906 1169 2906 1791 
z
M 3481 434 
Q 3481 -459 3084 -895 
Q 2688 -1331 1869 -1331 
Q 1566 -1331 1297 -1286 
Q 1028 -1241 775 -1147 
L 775 -588 
Q 1028 -725 1275 -790 
Q 1522 -856 1778 -856 
Q 2344 -856 2625 -561 
Q 2906 -266 2906 331 
L 2906 616 
Q 2728 306 2450 153 
Q 2172 0 1784 0 
Q 1141 0 747 490 
Q 353 981 353 1791 
Q 353 2603 747 3093 
Q 1141 3584 1784 3584 
Q 2172 3584 2450 3431 
Q 2728 3278 2906 2969 
L 2906 3500 
L 3481 3500 
L 3481 434 
z
" transform="scale(0.015625)"/>
      </defs>
      <use xlink:href="#DejaVuSans-6d"/>
      <use xlink:href="#DejaVuSans-67" x="97.412109"/>
     </g>
    </g>
    <g id="patch_107">
     <path d="M 794.901563 101.470937 
L 814.901563 101.470937 
L 814.901563 94.470937 
L 794.901563 94.470937 
z
" style="fill: #d62728"/>
    </g>
    <g id="text_29">
     <!-- msp -->
     <g transform="translate(822.901563 101.470937) scale(0.1 -0.1)">
      <use xlink:href="#DejaVuSans-6d"/>
      <use xlink:href="#DejaVuSans-73" x="97.412109"/>
      <use xlink:href="#DejaVuSans-70" x="149.511719"/>
     </g>
    </g>
    <g id="patch_108">
     <path d="M 794.901563 116.149063 
L 814.901563 116.149063 
L 814.901563 109.149063 
L 794.901563 109.149063 
z
" style="fill: #9467bd"/>
    </g>
    <g id="text_30">
     <!-- sui -->
     <g transform="translate(822.901563 116.149063) scale(0.1 -0.1)">
      <use xlink:href="#DejaVuSans-73"/>
      <use xlink:href="#DejaVuSans-75" x="52.099609"/>
      <use xlink:href="#DejaVuSans-69" x="115.478516"/>
     </g>
    </g>
    <g id="patch_109">
     <path d="M 794.901563 130.827187 
L 814.901563 130.827187 
L 814.901563 123.827187 
L 794.901563 123.827187 
z
" style="fill: #8c564b"/>
    </g>
    <g id="text_31">
     <!-- upa -->
     <g transform="translate(822.901563 130.827187) scale(0.1 -0.1)">
      <use xlink:href="#DejaVuSans-75"/>
      <use xlink:href="#DejaVuSans-70" x="63.378906"/>
      <use xlink:href="#DejaVuSans-61" x="126.855469"/>
     </g>
    </g>
   </g>
  </g>
 </g>
 <defs>
  <clipPath id="p2a62eff4ea">
   <rect x="45.02" y="26.16" width="808.18" height="301.432682"/>
  </clipPath>
 </defs>
</svg>
